M48
;Layer_Color=9474304
;FILE_FORMAT=4:2
METRIC,LZ
;TYPE=PLATED
T1F00S00C0.30
T2F00S00C0.40
T3F00S00C0.50
T4F00S00C0.90
;TYPE=NON_PLATED
T5F00S00C0.65
%
T01
X002375Y00066
X002527Y001029
X002663Y000923
X002146Y001016
X001892Y001041
X00188Y000952
X001778Y001181
X001689Y000775
X001437Y000835
X00127Y000902
X001448Y001372
X001664Y001588
X002017Y001926
X00209Y001987
X002426Y00146
X0024Y001295
X003251Y001778
X003467Y0016
X003696Y001219
X003734Y001041
X000851Y001194
X000686Y001384
X000775Y001575
T02
X000381Y00109
Y00117
Y00125
X000451Y00121
Y00129
Y00137
Y00145
X000381Y00149
Y00157
X000451Y001635
X000381Y00141
X000451Y001025
T03
X000531Y00088
Y00178
X-000029
Y00088
T04
X001016Y000178
Y000432
X00127
Y000178
X001524
Y000432
X001778
Y000178
X002388Y000229
X002642
X002896
X00315
X003404
X004001Y000864
Y001118
Y001372
Y001626
X002489Y002451
X002235
X001981
X001727
X001473
X001219
X000965
T05
X000381Y000957
Y001702
M30
