G04*
G04 #@! TF.GenerationSoftware,Altium Limited,Altium Designer,21.0.8 (223)*
G04*
G04 Layer_Physical_Order=1*
G04 Layer_Color=255*
%FSLAX42Y42*%
%MOMM*%
G71*
G04*
G04 #@! TF.SameCoordinates,3342F10C-20B5-45E4-B721-DC8BC5ABD3D0*
G04*
G04*
G04 #@! TF.FilePolarity,Positive*
G04*
G01*
G75*
%ADD14C,0.25*%
G04:AMPARAMS|DCode=15|XSize=1.27mm|YSize=0.89mm|CornerRadius=0mm|HoleSize=0mm|Usage=FLASHONLY|Rotation=180.000|XOffset=0mm|YOffset=0mm|HoleType=Round|Shape=Octagon|*
%AMOCTAGOND15*
4,1,8,-0.64,0.22,-0.64,-0.22,-0.41,-0.44,0.41,-0.44,0.64,-0.22,0.64,0.22,0.41,0.44,-0.41,0.44,-0.64,0.22,0.0*
%
%ADD15OCTAGOND15*%

%ADD16R,1.27X0.89*%
%ADD17R,0.40X0.50*%
%ADD18R,0.50X0.40*%
%ADD19R,0.70X0.35*%
%ADD20R,0.70X0.25*%
%ADD21O,0.70X0.25*%
%ADD22O,0.25X0.70*%
%ADD39C,0.25*%
%ADD40C,0.38*%
%ADD41O,2.00X1.00*%
%ADD42C,0.65*%
%ADD43R,1.70X1.70*%
%ADD44C,1.70*%
%ADD45C,1.60*%
%ADD46R,1.60X1.60*%
%ADD47R,1.70X1.70*%
%ADD48C,0.61*%
G36*
X4101Y2662D02*
X4124Y2653D01*
X4145Y2639D01*
X4163Y2621D01*
X4177Y2600D01*
X4186Y2577D01*
X4191Y2553D01*
Y2540D01*
Y127D01*
Y114D01*
X4186Y90D01*
X4177Y67D01*
X4163Y46D01*
X4145Y28D01*
X4124Y14D01*
X4101Y5D01*
X4077Y0D01*
X-89D01*
X-113Y5D01*
X-136Y14D01*
X-157Y28D01*
X-175Y46D01*
X-189Y67D01*
X-198Y90D01*
X-203Y114D01*
Y127D01*
Y2540D01*
Y2553D01*
X-198Y2577D01*
X-189Y2600D01*
X-175Y2621D01*
X-157Y2639D01*
X-136Y2653D01*
X-113Y2662D01*
X-89Y2667D01*
X4077D01*
X4101Y2662D01*
D02*
G37*
%LPC*%
G36*
X2235Y2550D02*
X2210Y2546D01*
X2186Y2536D01*
X2166Y2521D01*
X2150Y2500D01*
X2140Y2477D01*
X2137Y2451D01*
X2140Y2426D01*
X2150Y2402D01*
X2166Y2381D01*
X2184Y2367D01*
Y2302D01*
X2172Y2297D01*
X2067Y2402D01*
X2076Y2426D01*
X2080Y2451D01*
X2076Y2477D01*
X2067Y2500D01*
X2051Y2521D01*
X2030Y2536D01*
X2007Y2546D01*
X1981Y2550D01*
X1956Y2546D01*
X1932Y2536D01*
X1912Y2521D01*
X1896Y2500D01*
X1886Y2477D01*
X1883Y2451D01*
X1886Y2426D01*
X1896Y2402D01*
X1912Y2381D01*
X1932Y2366D01*
X1956Y2356D01*
X1981Y2353D01*
X2007Y2356D01*
X2030Y2366D01*
X2146Y2250D01*
Y1992D01*
X2133Y1990D01*
X2130Y2004D01*
X2121Y2018D01*
X2107Y2028D01*
X2090Y2031D01*
X2073Y2028D01*
X2059Y2018D01*
X2049Y2004D01*
X2046Y1987D01*
X2049Y1972D01*
X2045Y1968D01*
X2038Y1963D01*
X2033Y1967D01*
X2017Y1970D01*
X2000Y1967D01*
X1985Y1957D01*
X1976Y1943D01*
X1973Y1926D01*
X1976Y1909D01*
X1978Y1905D01*
X1968Y1897D01*
X1753Y2113D01*
Y2356D01*
X1776Y2366D01*
X1797Y2381D01*
X1813Y2402D01*
X1822Y2426D01*
X1826Y2451D01*
X1822Y2477D01*
X1813Y2500D01*
X1797Y2521D01*
X1776Y2536D01*
X1753Y2546D01*
X1727Y2550D01*
X1702Y2546D01*
X1678Y2536D01*
X1658Y2521D01*
X1642Y2500D01*
X1632Y2477D01*
X1629Y2451D01*
X1632Y2426D01*
X1642Y2402D01*
X1658Y2381D01*
X1678Y2366D01*
X1701Y2356D01*
Y2127D01*
X1690Y2122D01*
X1499Y2313D01*
Y2356D01*
X1522Y2366D01*
X1543Y2381D01*
X1559Y2402D01*
X1568Y2426D01*
X1572Y2451D01*
X1568Y2477D01*
X1559Y2500D01*
X1543Y2521D01*
X1522Y2536D01*
X1499Y2546D01*
X1473Y2550D01*
X1448Y2546D01*
X1424Y2536D01*
X1404Y2521D01*
X1388Y2500D01*
X1378Y2477D01*
X1375Y2451D01*
X1378Y2426D01*
X1388Y2402D01*
X1404Y2381D01*
X1424Y2366D01*
X1447Y2356D01*
Y2303D01*
X1445Y2301D01*
X1435Y2297D01*
X1312Y2420D01*
X1314Y2426D01*
X1318Y2451D01*
X1314Y2477D01*
X1305Y2500D01*
X1289Y2521D01*
X1268Y2536D01*
X1245Y2546D01*
X1219Y2550D01*
X1194Y2546D01*
X1170Y2536D01*
X1150Y2521D01*
X1134Y2500D01*
X1124Y2477D01*
X1121Y2451D01*
X1123Y2432D01*
X1114Y2422D01*
X1112Y2421D01*
X1109Y2421D01*
X1109Y2421D01*
X1109Y2421D01*
X1101Y2429D01*
X1100Y2430D01*
X1093Y2434D01*
X1083Y2436D01*
X1071D01*
X1063Y2446D01*
X1064Y2451D01*
X1060Y2477D01*
X1051Y2500D01*
X1035Y2521D01*
X1014Y2536D01*
X991Y2546D01*
X965Y2550D01*
X940Y2546D01*
X916Y2536D01*
X896Y2521D01*
X880Y2500D01*
X870Y2477D01*
X867Y2451D01*
X870Y2426D01*
X880Y2402D01*
X896Y2381D01*
X916Y2366D01*
X940Y2356D01*
X965Y2353D01*
X991Y2356D01*
X1014Y2366D01*
X1035Y2381D01*
X1037Y2384D01*
X1072D01*
X1077Y2380D01*
X1116Y2330D01*
X1117Y2330D01*
X1117Y2329D01*
X1119Y2327D01*
X1120Y2326D01*
X1120Y2326D01*
X1153Y2293D01*
X1161Y2287D01*
X1171Y2286D01*
X1285D01*
X1821Y1749D01*
Y1623D01*
X1805D01*
Y1574D01*
X1787D01*
X1754Y1606D01*
X1744Y1613D01*
X1732Y1615D01*
X1679D01*
X1676Y1617D01*
X1664Y1620D01*
X1651Y1617D01*
X1641Y1610D01*
X1634Y1600D01*
X1631Y1588D01*
X1634Y1575D01*
X1641Y1565D01*
X1645Y1560D01*
X1656Y1553D01*
X1668Y1551D01*
X1718D01*
X1733Y1536D01*
X1727Y1524D01*
X1015D01*
X1005Y1522D01*
X997Y1516D01*
X891Y1410D01*
X822D01*
X821Y1423D01*
X830Y1425D01*
X841Y1432D01*
X1136Y1728D01*
X1161D01*
Y1803D01*
X1096D01*
Y1778D01*
X824Y1507D01*
X811Y1512D01*
Y1552D01*
X815Y1558D01*
X819Y1575D01*
X815Y1592D01*
X806Y1606D01*
X792Y1615D01*
X775Y1619D01*
X758Y1615D01*
X744Y1606D01*
X734Y1592D01*
X731Y1575D01*
X734Y1558D01*
X744Y1544D01*
X747Y1542D01*
Y1493D01*
X741Y1487D01*
X610D01*
Y1585D01*
X514D01*
Y1486D01*
X478D01*
X469Y1492D01*
X451Y1496D01*
X433Y1492D01*
X425Y1502D01*
X424Y1507D01*
X414Y1522D01*
X412Y1525D01*
Y1534D01*
X414Y1537D01*
X424Y1552D01*
X427Y1570D01*
X424Y1587D01*
X414Y1602D01*
X399Y1612D01*
X381Y1616D01*
X363Y1612D01*
X348Y1602D01*
X338Y1587D01*
X335Y1570D01*
X338Y1552D01*
X348Y1537D01*
X350Y1534D01*
Y1525D01*
X348Y1522D01*
X338Y1507D01*
X335Y1490D01*
X338Y1472D01*
X348Y1457D01*
X350Y1454D01*
Y1445D01*
X348Y1442D01*
X338Y1427D01*
X335Y1410D01*
X338Y1392D01*
X348Y1377D01*
X363Y1367D01*
X381Y1364D01*
X399Y1367D01*
X407Y1358D01*
X408Y1352D01*
X418Y1337D01*
X420Y1334D01*
Y1325D01*
X418Y1322D01*
X408Y1307D01*
X407Y1302D01*
X399Y1292D01*
X381Y1296D01*
X363Y1292D01*
X348Y1282D01*
X338Y1267D01*
X335Y1250D01*
X338Y1232D01*
X348Y1217D01*
X350Y1216D01*
Y1203D01*
X348Y1202D01*
X338Y1187D01*
X335Y1170D01*
X338Y1152D01*
X348Y1137D01*
X350Y1134D01*
Y1125D01*
X348Y1122D01*
X338Y1107D01*
X335Y1090D01*
X338Y1072D01*
X348Y1057D01*
X363Y1047D01*
X381Y1044D01*
X399Y1047D01*
X414Y1057D01*
X424Y1072D01*
X427Y1090D01*
X424Y1107D01*
X414Y1122D01*
X412Y1125D01*
Y1134D01*
X414Y1137D01*
X424Y1152D01*
X425Y1158D01*
X433Y1167D01*
X451Y1164D01*
X469Y1167D01*
X478Y1173D01*
X514D01*
Y1074D01*
X610D01*
Y1142D01*
X621Y1147D01*
X679Y1089D01*
Y737D01*
X681Y724D01*
X688Y714D01*
X932Y470D01*
X926Y456D01*
X923Y432D01*
X926Y408D01*
X935Y385D01*
X950Y366D01*
X969Y351D01*
X992Y341D01*
X1016Y338D01*
X1040Y341D01*
X1063Y351D01*
X1082Y366D01*
X1097Y385D01*
X1103Y399D01*
X1183D01*
X1189Y385D01*
X1204Y366D01*
X1223Y351D01*
X1246Y341D01*
X1270Y338D01*
X1294Y341D01*
X1317Y351D01*
X1336Y366D01*
X1351Y385D01*
X1360Y408D01*
X1364Y432D01*
X1360Y456D01*
X1351Y479D01*
X1336Y498D01*
X1325Y506D01*
Y556D01*
X1560Y790D01*
X1567Y800D01*
X1569Y813D01*
Y851D01*
X1569D01*
Y857D01*
X1816D01*
X1828Y859D01*
X1839Y866D01*
X1882Y909D01*
X1896Y912D01*
X1911Y921D01*
X1920Y936D01*
X1924Y952D01*
X1920Y969D01*
X1911Y984D01*
X1906Y987D01*
X1908Y1001D01*
X1909Y1001D01*
X1923Y1010D01*
X1931Y1022D01*
X1954D01*
Y1016D01*
X2020D01*
Y1092D01*
X1954D01*
Y1086D01*
X1908D01*
X1898Y1084D01*
X1897Y1084D01*
X1893Y1097D01*
X1973Y1178D01*
X1980Y1189D01*
X1983Y1201D01*
Y1218D01*
X1987Y1220D01*
X2000Y1213D01*
Y1183D01*
X2001Y1173D01*
X2007Y1165D01*
X2046Y1126D01*
Y1092D01*
X2039D01*
Y1016D01*
X2102D01*
X2102Y1016D01*
X2106Y999D01*
X2115Y985D01*
X2129Y975D01*
X2133Y975D01*
Y812D01*
X2126D01*
Y737D01*
X2192D01*
Y812D01*
X2185D01*
Y996D01*
X2187Y999D01*
X2188Y1003D01*
X2201Y1007D01*
X2540Y669D01*
Y326D01*
X2541Y317D01*
X2547Y308D01*
X2565Y290D01*
X2556Y278D01*
X2546Y254D01*
X2543Y229D01*
X2546Y203D01*
X2556Y179D01*
X2572Y159D01*
X2592Y143D01*
X2616Y133D01*
X2642Y130D01*
X2667Y133D01*
X2691Y143D01*
X2711Y159D01*
X2727Y179D01*
X2737Y203D01*
X2740Y229D01*
X2737Y254D01*
X2727Y278D01*
X2711Y298D01*
X2691Y314D01*
X2667Y324D01*
X2642Y327D01*
X2616Y324D01*
X2608Y320D01*
X2591Y337D01*
Y480D01*
X2603Y485D01*
X2810Y277D01*
X2800Y254D01*
X2797Y229D01*
X2800Y203D01*
X2810Y179D01*
X2826Y159D01*
X2846Y143D01*
X2870Y133D01*
X2896Y130D01*
X2921Y133D01*
X2945Y143D01*
X2965Y159D01*
X2981Y179D01*
X2991Y203D01*
X2994Y229D01*
X2991Y254D01*
X2981Y278D01*
X2965Y298D01*
X2945Y314D01*
X2921Y324D01*
X2896Y327D01*
X2870Y324D01*
X2847Y314D01*
X2629Y531D01*
Y670D01*
X2641Y675D01*
X3057Y260D01*
X3054Y254D01*
X3051Y229D01*
X3054Y203D01*
X3064Y179D01*
X3080Y159D01*
X3100Y143D01*
X3124Y133D01*
X3150Y130D01*
X3175Y133D01*
X3199Y143D01*
X3219Y159D01*
X3235Y179D01*
X3245Y203D01*
X3248Y229D01*
X3245Y254D01*
X3235Y278D01*
X3219Y298D01*
X3199Y314D01*
X3175Y324D01*
X3150Y327D01*
X3124Y324D01*
X3100Y314D01*
X3086Y303D01*
X2970Y420D01*
X2975Y431D01*
X3139D01*
X3311Y260D01*
X3308Y254D01*
X3305Y229D01*
X3308Y203D01*
X3318Y179D01*
X3334Y159D01*
X3354Y143D01*
X3378Y133D01*
X3404Y130D01*
X3429Y133D01*
X3453Y143D01*
X3473Y159D01*
X3489Y179D01*
X3499Y203D01*
X3502Y229D01*
X3499Y254D01*
X3489Y278D01*
X3473Y298D01*
X3453Y314D01*
X3429Y324D01*
X3404Y327D01*
X3378Y324D01*
X3354Y314D01*
X3340Y303D01*
X3168Y476D01*
X3160Y481D01*
X3150Y483D01*
X2960D01*
X2337Y1106D01*
Y1360D01*
X2335Y1370D01*
X2330Y1379D01*
X2304Y1404D01*
X2297Y1409D01*
X2296Y1411D01*
X2301Y1422D01*
X2326D01*
X2382Y1366D01*
X2390Y1360D01*
X2400Y1358D01*
X2440D01*
X2531Y1268D01*
Y1114D01*
X2533Y1104D01*
X2538Y1095D01*
X2559Y1075D01*
X2551Y1065D01*
X2544Y1069D01*
X2527Y1073D01*
X2518Y1071D01*
X2501Y1087D01*
Y1116D01*
X2426D01*
Y1051D01*
X2465D01*
X2484Y1032D01*
X2483Y1029D01*
X2487Y1012D01*
X2496Y998D01*
X2510Y988D01*
X2527Y985D01*
X2544Y988D01*
X2558Y998D01*
X2568Y1012D01*
X2571Y1029D01*
X2568Y1046D01*
X2564Y1052D01*
X2573Y1060D01*
X2638Y996D01*
Y958D01*
X2632Y954D01*
X2622Y940D01*
X2619Y923D01*
X2622Y906D01*
X2632Y892D01*
X2646Y882D01*
X2663Y879D01*
X2680Y882D01*
X2694Y892D01*
X2703Y906D01*
X2707Y923D01*
X2703Y940D01*
X2694Y954D01*
X2690Y957D01*
Y1006D01*
X2688Y1016D01*
X2682Y1025D01*
X2583Y1124D01*
Y1279D01*
X2581Y1289D01*
X2575Y1297D01*
X2469Y1403D01*
X2461Y1408D01*
X2451Y1410D01*
X2451D01*
X2447Y1423D01*
X2457Y1429D01*
X2466Y1444D01*
X2470Y1460D01*
X2466Y1477D01*
X2457Y1492D01*
X2443Y1501D01*
X2426Y1505D01*
X2414Y1502D01*
X2400Y1516D01*
X2391Y1522D01*
X2382Y1524D01*
X2301D01*
X2296Y1535D01*
X2297Y1536D01*
X2304Y1542D01*
X2327Y1564D01*
X2332Y1572D01*
X2334Y1582D01*
Y2259D01*
X2428Y2353D01*
X2587D01*
Y2549D01*
X2392D01*
Y2390D01*
X2290Y2289D01*
X2284Y2280D01*
X2282Y2270D01*
Y1706D01*
X2270Y1702D01*
X2266Y1707D01*
X2236Y1738D01*
Y2353D01*
X2261Y2356D01*
X2284Y2366D01*
X2305Y2381D01*
X2321Y2402D01*
X2330Y2426D01*
X2334Y2451D01*
X2330Y2477D01*
X2321Y2500D01*
X2305Y2521D01*
X2284Y2536D01*
X2261Y2546D01*
X2235Y2550D01*
D02*
G37*
G36*
X3515Y1848D02*
X3419D01*
X3391Y1819D01*
Y1785D01*
X3371D01*
X3360Y1797D01*
X3349Y1804D01*
X3337Y1806D01*
X3284D01*
X3282Y1809D01*
X3268Y1819D01*
X3251Y1822D01*
X3234Y1819D01*
X3220Y1809D01*
X3211Y1795D01*
X3207Y1778D01*
X3211Y1761D01*
X3220Y1747D01*
X3234Y1737D01*
X3251Y1734D01*
X3268Y1737D01*
X3274Y1741D01*
X3323D01*
X3335Y1730D01*
X3345Y1723D01*
X3358Y1720D01*
X3359D01*
Y1676D01*
X3361Y1664D01*
X3368Y1654D01*
X3424Y1598D01*
X3426Y1583D01*
X3436Y1569D01*
X3450Y1560D01*
X3467Y1556D01*
X3484Y1560D01*
X3498Y1569D01*
X3508Y1583D01*
X3511Y1600D01*
X3508Y1617D01*
X3498Y1631D01*
X3484Y1641D01*
X3469Y1644D01*
X3423Y1690D01*
Y1714D01*
X3430Y1720D01*
X3441Y1723D01*
X3452Y1730D01*
X3456Y1734D01*
X3515D01*
X3543Y1762D01*
Y1819D01*
X3515Y1848D01*
D02*
G37*
G36*
X1346Y2000D02*
X1194D01*
Y1886D01*
X1244D01*
Y1838D01*
X1209Y1803D01*
X1181D01*
Y1728D01*
X1246D01*
Y1766D01*
X1288Y1809D01*
X1294Y1817D01*
X1296Y1827D01*
Y1886D01*
X1346D01*
Y2000D01*
D02*
G37*
G36*
X581Y1844D02*
X481D01*
X457Y1839D01*
X436Y1825D01*
X422Y1804D01*
X417Y1780D01*
X422Y1755D01*
X436Y1734D01*
X457Y1721D01*
X481Y1716D01*
X581D01*
X605Y1721D01*
X626Y1734D01*
X640Y1755D01*
X645Y1780D01*
X640Y1804D01*
X626Y1825D01*
X605Y1839D01*
X581Y1844D01*
D02*
G37*
G36*
X21D02*
X-79D01*
X-103Y1839D01*
X-124Y1825D01*
X-138Y1804D01*
X-143Y1780D01*
X-138Y1755D01*
X-124Y1734D01*
X-103Y1721D01*
X-79Y1716D01*
X21D01*
X45Y1721D01*
X66Y1734D01*
X80Y1755D01*
X85Y1780D01*
X80Y1804D01*
X66Y1825D01*
X45Y1839D01*
X21Y1844D01*
D02*
G37*
G36*
X381Y1748D02*
X363Y1745D01*
X348Y1735D01*
X338Y1720D01*
X335Y1702D01*
X338Y1685D01*
X348Y1670D01*
X363Y1660D01*
X381Y1656D01*
X399Y1660D01*
X414Y1670D01*
X424Y1685D01*
X427Y1702D01*
X424Y1720D01*
X414Y1735D01*
X399Y1745D01*
X381Y1748D01*
D02*
G37*
G36*
X3721Y1848D02*
X3569D01*
Y1734D01*
X3684D01*
X3708Y1710D01*
Y1641D01*
X3666Y1600D01*
X3638D01*
Y1524D01*
X3703D01*
Y1563D01*
X3752Y1612D01*
X3758Y1621D01*
X3760Y1631D01*
Y1721D01*
X3758Y1731D01*
X3752Y1739D01*
X3721Y1770D01*
Y1848D01*
D02*
G37*
G36*
X4001Y1470D02*
X3975Y1467D01*
X3951Y1457D01*
X3931Y1441D01*
X3915Y1421D01*
X3905Y1397D01*
X3902Y1372D01*
X3905Y1346D01*
X3915Y1322D01*
X3931Y1302D01*
X3951Y1286D01*
X3975Y1276D01*
X4001Y1273D01*
X4026Y1276D01*
X4050Y1286D01*
X4070Y1302D01*
X4086Y1322D01*
X4096Y1346D01*
X4099Y1372D01*
X4096Y1397D01*
X4086Y1421D01*
X4070Y1441D01*
X4050Y1457D01*
X4026Y1467D01*
X4001Y1470D01*
D02*
G37*
G36*
X3618Y1600D02*
X3553D01*
Y1524D01*
X3553D01*
Y1330D01*
X3555Y1317D01*
X3562Y1307D01*
X3652Y1217D01*
X3655Y1202D01*
X3665Y1188D01*
X3679Y1179D01*
X3696Y1175D01*
X3713Y1179D01*
X3727Y1188D01*
X3736Y1202D01*
X3740Y1219D01*
X3736Y1236D01*
X3727Y1250D01*
X3713Y1260D01*
X3698Y1263D01*
X3618Y1343D01*
Y1524D01*
X3618D01*
Y1600D01*
D02*
G37*
G36*
X2400Y1339D02*
X2383Y1336D01*
X2369Y1327D01*
X2360Y1312D01*
X2356Y1295D01*
X2360Y1279D01*
X2369Y1264D01*
X2383Y1255D01*
X2400Y1251D01*
X2406Y1253D01*
X2438Y1221D01*
Y1201D01*
X2426D01*
Y1136D01*
X2501D01*
Y1201D01*
X2490D01*
Y1232D01*
X2488Y1242D01*
X2482Y1250D01*
X2443Y1289D01*
X2444Y1295D01*
X2441Y1312D01*
X2431Y1327D01*
X2417Y1336D01*
X2400Y1339D01*
D02*
G37*
G36*
X4001Y1216D02*
X3975Y1213D01*
X3951Y1203D01*
X3931Y1187D01*
X3915Y1167D01*
X3905Y1143D01*
X3658D01*
X3648Y1142D01*
X3639Y1136D01*
X3572Y1068D01*
X3572Y1068D01*
X3284Y780D01*
X3278Y772D01*
X3276Y762D01*
Y699D01*
X3278Y689D01*
X3284Y680D01*
X3378Y586D01*
Y555D01*
X3407Y526D01*
X3502D01*
X3531Y555D01*
Y612D01*
X3502Y641D01*
X3407D01*
X3402Y636D01*
X3328Y709D01*
Y751D01*
X3536Y959D01*
X3548Y953D01*
X3547Y951D01*
Y914D01*
X3547D01*
Y839D01*
X3612D01*
Y914D01*
X3612D01*
Y937D01*
X3633Y958D01*
X3860D01*
X3903Y916D01*
Y766D01*
X4098D01*
Y961D01*
X3949D01*
X3896Y1013D01*
X3886Y1021D01*
X3874Y1023D01*
X3787D01*
X3777Y1036D01*
X3778Y1041D01*
X3774Y1058D01*
X3765Y1073D01*
X3755Y1079D01*
X3759Y1092D01*
X3905D01*
X3915Y1068D01*
X3931Y1048D01*
X3951Y1032D01*
X3975Y1022D01*
X4001Y1019D01*
X4026Y1022D01*
X4050Y1032D01*
X4070Y1048D01*
X4086Y1068D01*
X4096Y1092D01*
X4099Y1118D01*
X4096Y1143D01*
X4086Y1167D01*
X4070Y1187D01*
X4050Y1203D01*
X4026Y1213D01*
X4001Y1216D01*
D02*
G37*
G36*
X381Y1003D02*
X363Y1000D01*
X348Y990D01*
X338Y975D01*
X335Y957D01*
X338Y940D01*
X348Y925D01*
X363Y915D01*
X381Y911D01*
X399Y915D01*
X414Y925D01*
X424Y940D01*
X427Y957D01*
X424Y975D01*
X414Y990D01*
X399Y1000D01*
X381Y1003D01*
D02*
G37*
G36*
X581Y944D02*
X481D01*
X457Y939D01*
X436Y925D01*
X422Y904D01*
X417Y880D01*
X422Y855D01*
X436Y834D01*
X457Y821D01*
X481Y816D01*
X581D01*
X605Y821D01*
X626Y834D01*
X640Y855D01*
X645Y880D01*
X640Y904D01*
X626Y925D01*
X605Y939D01*
X581Y944D01*
D02*
G37*
G36*
X21D02*
X-79D01*
X-103Y939D01*
X-124Y925D01*
X-138Y904D01*
X-143Y880D01*
X-138Y855D01*
X-124Y834D01*
X-103Y821D01*
X-79Y816D01*
X21D01*
X45Y821D01*
X66Y834D01*
X80Y855D01*
X85Y880D01*
X80Y904D01*
X66Y925D01*
X45Y939D01*
X21Y944D01*
D02*
G37*
G36*
X2069Y801D02*
X2069Y801D01*
X1689D01*
X1679Y799D01*
X1671Y793D01*
X1671Y793D01*
X1665Y785D01*
X1663Y775D01*
X1665Y765D01*
X1671Y756D01*
X1679Y751D01*
X1689Y749D01*
X1689Y749D01*
X2069D01*
X2079Y751D01*
X2087Y756D01*
X2087Y756D01*
X2093Y765D01*
X2095Y775D01*
X2093Y785D01*
X2087Y793D01*
X2079Y799D01*
X2069Y801D01*
D02*
G37*
G36*
X2375Y704D02*
X2358Y701D01*
X2344Y692D01*
X2334Y677D01*
X2331Y660D01*
X2332Y654D01*
X2268Y590D01*
X2262Y581D01*
X2260Y572D01*
Y330D01*
X2262Y320D01*
X2268Y312D01*
X2290Y290D01*
Y131D01*
X2485D01*
Y326D01*
X2327D01*
X2312Y341D01*
Y561D01*
X2369Y618D01*
X2375Y616D01*
X2392Y620D01*
X2406Y629D01*
X2416Y644D01*
X2419Y660D01*
X2416Y677D01*
X2406Y692D01*
X2392Y701D01*
X2375Y704D01*
D02*
G37*
G36*
X3697Y914D02*
X3632D01*
Y839D01*
X3697D01*
Y850D01*
X3723D01*
X3733Y840D01*
Y684D01*
X3715Y666D01*
X3710Y658D01*
X3708Y648D01*
Y646D01*
X3703Y641D01*
X3556D01*
Y526D01*
X3708D01*
Y573D01*
X3752Y617D01*
X3758Y625D01*
X3760Y635D01*
Y637D01*
X3778Y655D01*
X3783Y663D01*
X3785Y673D01*
Y851D01*
X3783Y861D01*
X3778Y869D01*
X3752Y895D01*
X3744Y900D01*
X3734Y902D01*
X3697D01*
Y914D01*
D02*
G37*
G36*
X1524Y525D02*
X1500Y522D01*
X1477Y513D01*
X1458Y498D01*
X1443Y479D01*
X1434Y456D01*
X1431Y432D01*
X1434Y408D01*
X1443Y385D01*
X1458Y366D01*
X1477Y351D01*
X1500Y341D01*
X1524Y338D01*
X1548Y341D01*
X1571Y351D01*
X1590Y366D01*
X1605Y385D01*
X1611Y399D01*
X1685D01*
Y339D01*
X1871D01*
Y524D01*
X1685D01*
Y464D01*
X1611D01*
X1605Y479D01*
X1590Y498D01*
X1571Y513D01*
X1548Y522D01*
X1524Y525D01*
D02*
G37*
%LPD*%
G36*
X2222Y1678D02*
Y1623D01*
X2216Y1622D01*
X2207Y1616D01*
X2202Y1608D01*
X2200Y1598D01*
X2202Y1588D01*
X2207Y1580D01*
Y1566D01*
X2202Y1558D01*
X2200Y1548D01*
X2202Y1538D01*
X2207Y1530D01*
Y1516D01*
X2202Y1508D01*
X2200Y1498D01*
X2202Y1488D01*
X2207Y1480D01*
Y1466D01*
X2202Y1458D01*
X2200Y1448D01*
X2202Y1438D01*
X2207Y1430D01*
Y1416D01*
X2202Y1408D01*
X2200Y1398D01*
X2202Y1388D01*
X2207Y1380D01*
Y1366D01*
X2202Y1358D01*
X2200Y1348D01*
X2202Y1338D01*
X2207Y1330D01*
X2216Y1324D01*
X2222Y1323D01*
Y1130D01*
X2210Y1125D01*
X2201Y1134D01*
Y1275D01*
X2201Y1276D01*
Y1298D01*
X2199Y1308D01*
X2194Y1316D01*
X2185Y1322D01*
X2175Y1323D01*
X2166Y1322D01*
X2157Y1316D01*
X2144D01*
X2135Y1322D01*
X2125Y1323D01*
X2116Y1322D01*
X2107Y1316D01*
X2094D01*
X2085Y1322D01*
X2075Y1323D01*
X2066Y1322D01*
X2057Y1316D01*
X2044D01*
X2035Y1322D01*
X2025Y1323D01*
X2016Y1322D01*
X2007Y1316D01*
X1994D01*
X1985Y1322D01*
X1975Y1323D01*
X1966Y1322D01*
X1958Y1317D01*
X1956Y1316D01*
X1945D01*
X1942Y1317D01*
X1935Y1322D01*
X1925Y1323D01*
X1916Y1322D01*
X1907Y1316D01*
X1902Y1308D01*
X1900Y1298D01*
Y1294D01*
X1895Y1288D01*
X1893Y1275D01*
X1895Y1263D01*
X1900Y1257D01*
Y1253D01*
X1902Y1243D01*
X1907Y1235D01*
X1916Y1229D01*
X1918Y1229D01*
Y1215D01*
X1625Y921D01*
X1569D01*
Y927D01*
X1504D01*
Y851D01*
X1504D01*
Y826D01*
X1270Y592D01*
X1263Y581D01*
X1260Y569D01*
Y524D01*
X1246Y522D01*
X1223Y513D01*
X1204Y498D01*
X1189Y479D01*
X1183Y464D01*
X1103D01*
X1097Y479D01*
X1082Y498D01*
X1063Y513D01*
X1040Y522D01*
X1016Y525D01*
X992Y522D01*
X977Y516D01*
X744Y750D01*
Y1071D01*
X760D01*
X772Y1073D01*
X783Y1080D01*
X853Y1150D01*
X868Y1153D01*
X882Y1163D01*
X892Y1177D01*
X895Y1194D01*
X892Y1211D01*
X882Y1225D01*
X868Y1234D01*
X851Y1238D01*
X834Y1234D01*
X820Y1225D01*
X810Y1211D01*
X807Y1196D01*
X747Y1135D01*
X725D01*
X633Y1227D01*
X623Y1234D01*
X610Y1236D01*
X610D01*
Y1279D01*
X886D01*
X896Y1281D01*
X904Y1286D01*
X1039Y1422D01*
X1801D01*
X1808Y1409D01*
X1807Y1408D01*
X1805Y1398D01*
X1807Y1388D01*
X1812Y1380D01*
X1750Y1318D01*
X1683Y1252D01*
X1570D01*
Y1257D01*
X1505D01*
Y1181D01*
X1570D01*
Y1187D01*
X1602D01*
X1607Y1175D01*
X1524Y1092D01*
X1504D01*
Y1062D01*
X1427Y985D01*
X1324D01*
X1312Y982D01*
X1301Y975D01*
X1271Y945D01*
X1270Y946D01*
X1253Y942D01*
X1239Y933D01*
X1229Y919D01*
X1226Y902D01*
X1229Y885D01*
X1239Y871D01*
X1253Y861D01*
X1270Y858D01*
X1287Y861D01*
X1301Y871D01*
X1311Y885D01*
X1313Y895D01*
X1338Y920D01*
X1425D01*
X1429Y907D01*
X1428Y907D01*
X1423Y902D01*
X1418Y894D01*
X1416Y884D01*
Y850D01*
X1413Y845D01*
X1411Y835D01*
X1413Y826D01*
X1418Y817D01*
X1427Y811D01*
X1437Y810D01*
X1446Y811D01*
X1455Y817D01*
X1460Y822D01*
X1466Y831D01*
X1468Y840D01*
Y874D01*
X1471Y879D01*
X1473Y889D01*
X1471Y899D01*
X1465Y907D01*
X1458Y912D01*
X1457Y920D01*
X1457Y926D01*
X1463Y930D01*
X1550Y1016D01*
X1569D01*
Y1046D01*
X1726Y1203D01*
X1730Y1202D01*
X1737Y1195D01*
X1734Y1181D01*
X1737Y1164D01*
X1747Y1150D01*
X1761Y1140D01*
X1778Y1137D01*
X1795Y1140D01*
X1809Y1150D01*
X1819Y1164D01*
X1822Y1181D01*
X1819Y1198D01*
X1810Y1210D01*
Y1287D01*
X1845Y1322D01*
X1875D01*
X1885Y1324D01*
X1894Y1330D01*
X1899Y1338D01*
X1901Y1348D01*
X1899Y1358D01*
X1894Y1366D01*
Y1380D01*
X1899Y1388D01*
X1901Y1398D01*
X1899Y1408D01*
X1894Y1416D01*
Y1430D01*
X1899Y1438D01*
X1901Y1448D01*
X1899Y1458D01*
X1894Y1466D01*
Y1480D01*
X1899Y1488D01*
X1901Y1498D01*
X1899Y1508D01*
X1894Y1516D01*
X1885Y1522D01*
X1882Y1522D01*
X1876Y1535D01*
X1876Y1536D01*
X1877Y1538D01*
X1879Y1548D01*
X1877Y1558D01*
X1875Y1560D01*
X1882Y1573D01*
X1901D01*
Y1619D01*
X1912Y1627D01*
X1916Y1624D01*
X1925Y1622D01*
X1935Y1624D01*
X1944Y1630D01*
X1957D01*
X1966Y1624D01*
X1975Y1622D01*
X1985Y1624D01*
X1994Y1630D01*
X2007D01*
X2016Y1624D01*
X2025Y1622D01*
X2035Y1624D01*
X2044Y1630D01*
X2057D01*
X2066Y1624D01*
X2075Y1622D01*
X2085Y1624D01*
X2094Y1630D01*
X2107D01*
X2116Y1624D01*
X2125Y1622D01*
X2135Y1624D01*
X2144Y1630D01*
X2157D01*
X2166Y1624D01*
X2175Y1622D01*
X2185Y1624D01*
X2194Y1630D01*
X2199Y1638D01*
X2201Y1648D01*
Y1681D01*
X2212Y1686D01*
X2222Y1678D01*
D02*
G37*
%LPC*%
G36*
X1448Y1404D02*
X1435Y1402D01*
X1425Y1394D01*
X1418Y1384D01*
X1415Y1372D01*
Y1219D01*
X1418Y1207D01*
X1425Y1196D01*
X1435Y1189D01*
X1448Y1187D01*
X1460Y1189D01*
X1471Y1196D01*
X1478Y1207D01*
X1480Y1219D01*
Y1372D01*
X1478Y1384D01*
X1471Y1394D01*
X1460Y1402D01*
X1448Y1404D01*
D02*
G37*
%LPD*%
D14*
X1437Y835D02*
X1442Y840D01*
Y884D02*
X1447Y889D01*
X1442Y840D02*
Y884D01*
X2069Y775D02*
X2069Y775D01*
X1689Y775D02*
X2069D01*
X1689Y775D02*
X1689Y775D01*
X1767Y1548D02*
X1853D01*
X1765Y1549D02*
X1767Y1548D01*
X686Y1384D02*
X902D01*
X1848Y1598D02*
X1853D01*
X1847Y1598D02*
X1848Y1598D01*
X1015Y1498D02*
X1853D01*
X902Y1384D02*
X1015Y1498D01*
X1171Y2311D02*
X1295D01*
X1138Y2344D02*
X1171Y2311D01*
X1111Y2378D02*
X1136Y2346D01*
X1138Y2344D01*
X1295Y2311D02*
X1847Y1759D01*
X1096Y2397D02*
X1096Y2397D01*
X1095Y2398D02*
X1096Y2397D01*
X1096Y2397D02*
X1111Y2378D01*
X1091Y2403D02*
X1095Y2398D01*
X1083Y2410D02*
X1091Y2403D01*
X1006Y2410D02*
X1083D01*
X999Y2418D02*
X999Y2418D01*
X965Y2451D02*
X999Y2418D01*
X999Y2418D02*
X1006Y2410D01*
X2663Y923D02*
X2664Y924D01*
Y1006D01*
X2090Y1977D02*
X2125Y1942D01*
Y1670D02*
Y1942D01*
X2090Y1977D02*
Y1987D01*
X2286Y572D02*
X2375Y660D01*
X2286Y330D02*
Y572D01*
Y330D02*
X2388Y229D01*
X2524Y1029D02*
X2527D01*
X2469Y1083D02*
X2524Y1029D01*
X2464Y1168D02*
Y1232D01*
Y1083D02*
X2469D01*
X2400Y1295D02*
X2464Y1232D01*
X2159Y775D02*
Y996D01*
X2146Y1009D02*
X2159Y996D01*
X2146Y1009D02*
Y1016D01*
X2382Y1498D02*
X2419Y1460D01*
X2426D01*
X2248Y1498D02*
X2382D01*
X2337Y1448D02*
X2400Y1384D01*
X2248Y1448D02*
X2337D01*
X2451Y1384D02*
X2557Y1279D01*
Y1114D02*
Y1279D01*
X2400Y1384D02*
X2451D01*
X886Y1305D02*
X1029Y1448D01*
X1853D01*
X562Y1305D02*
X886D01*
X2072Y1054D02*
Y1136D01*
X2025Y1183D02*
X2072Y1136D01*
X2025Y1183D02*
Y1275D01*
X2557Y1114D02*
X2664Y1006D01*
X2017Y1926D02*
X2075Y1867D01*
Y1670D02*
Y1867D01*
X2125Y1670D02*
X2125Y1670D01*
X3759Y673D02*
Y851D01*
X3664Y876D02*
X3734D01*
X3759Y851D01*
X3590Y1050D02*
X3658Y1118D01*
X4001D01*
X3590Y1050D02*
X3590D01*
X3302Y762D02*
X3590Y1050D01*
X3302Y699D02*
Y762D01*
Y699D02*
X3416Y584D01*
X3378Y229D02*
X3404D01*
X3150Y457D02*
X3378Y229D01*
X2949Y457D02*
X3150D01*
X2311Y1095D02*
X2949Y457D01*
X2311Y1095D02*
Y1360D01*
X2270Y1398D02*
X2282Y1386D01*
X2286D01*
X2311Y1360D01*
X2248Y1398D02*
X2270D01*
X2248Y1105D02*
Y1348D01*
X2175Y1124D02*
Y1275D01*
X2125Y1120D02*
Y1275D01*
X2603Y521D02*
Y695D01*
X3124Y229D02*
X3150D01*
X2175Y1124D02*
X2603Y695D01*
X2565Y326D02*
Y680D01*
X2125Y1120D02*
X2565Y680D01*
X2248Y1105D02*
X3124Y229D01*
X2603Y521D02*
X2896Y229D01*
X2642D02*
Y250D01*
X2565Y326D02*
X2642Y250D01*
X3683Y584D02*
X3734Y635D01*
X3670Y584D02*
X3683D01*
X3734Y635D02*
Y648D01*
X3759Y673D01*
X3670Y1567D02*
X3734Y1631D01*
X3670Y1562D02*
Y1567D01*
X3734Y1631D02*
Y1721D01*
X3645Y1791D02*
X3664D01*
X3734Y1721D01*
X451Y1370D02*
X453D01*
X513Y1310D01*
X557D01*
X562Y1305D01*
X1853Y1398D02*
X1853Y1398D01*
X1213Y1770D02*
X1270Y1827D01*
Y1943D01*
X1213Y1765D02*
Y1770D01*
X1847Y1598D02*
Y1759D01*
X2172Y1696D02*
Y2261D01*
Y1696D02*
X2175Y1693D01*
X1981Y2451D02*
X2172Y2261D01*
X2210Y1727D02*
X2248Y1689D01*
X2210Y2426D02*
X2235Y2451D01*
X2210Y1727D02*
Y2426D01*
X2308Y2270D02*
X2489Y2451D01*
X2308Y1582D02*
Y2270D01*
X1727Y2102D02*
Y2451D01*
X1473Y2302D02*
X1975Y1800D01*
Y1670D02*
Y1800D01*
X2025Y1670D02*
Y1804D01*
X1727Y2102D02*
X2025Y1804D01*
X1473Y2302D02*
Y2451D01*
X2282Y1560D02*
X2286D01*
X2308Y1582D01*
X2270Y1548D02*
X2282Y1560D01*
X2248Y1548D02*
X2270D01*
X2248Y1598D02*
Y1689D01*
X1219Y2451D02*
X1245D01*
X1925Y1670D02*
Y1770D01*
X1245Y2451D02*
X1925Y1770D01*
D15*
X3454Y584D02*
D03*
X1092Y1943D02*
D03*
X3467Y1791D02*
D03*
D16*
X3632Y584D02*
D03*
X1270Y1943D02*
D03*
X3645Y1791D02*
D03*
D17*
X1448Y1219D02*
D03*
X1538Y1219D02*
D03*
X3579Y876D02*
D03*
X3664D02*
D03*
X2069Y775D02*
D03*
X2159Y775D02*
D03*
X2072Y1054D02*
D03*
X1987D02*
D03*
X1537Y889D02*
D03*
X1447Y889D02*
D03*
X1537Y1054D02*
D03*
X1447Y1054D02*
D03*
X1128Y1765D02*
D03*
X1213D02*
D03*
X3585Y1562D02*
D03*
X3670D02*
D03*
D18*
X2464Y1083D02*
D03*
Y1168D02*
D03*
D19*
X562Y1055D02*
D03*
Y1105D02*
D03*
Y1155D02*
D03*
Y1205D02*
D03*
Y1255D02*
D03*
Y1305D02*
D03*
Y1355D02*
D03*
Y1405D02*
D03*
Y1455D02*
D03*
Y1505D02*
D03*
Y1555D02*
D03*
Y1605D02*
D03*
D20*
X1853Y1598D02*
D03*
D21*
Y1548D02*
D03*
Y1498D02*
D03*
Y1448D02*
D03*
Y1398D02*
D03*
Y1348D02*
D03*
X2248D02*
D03*
Y1398D02*
D03*
Y1448D02*
D03*
Y1498D02*
D03*
Y1548D02*
D03*
Y1598D02*
D03*
D22*
X1925Y1275D02*
D03*
X1975D02*
D03*
X2025D02*
D03*
X2075D02*
D03*
X2125D02*
D03*
X2175D02*
D03*
Y1670D02*
D03*
X2125D02*
D03*
X2075D02*
D03*
X2025D02*
D03*
X1975D02*
D03*
X1925D02*
D03*
D39*
X1091Y2403D02*
D03*
D40*
X1638Y889D02*
X1950Y1201D01*
X1816Y889D02*
X1880Y952D01*
X1537Y889D02*
X1638D01*
X1816D01*
X775Y1575D02*
X779Y1570D01*
Y1493D02*
Y1570D01*
Y1493D02*
X818Y1455D01*
X680Y1384D02*
X686D01*
X651Y1355D02*
X680Y1384D01*
X563Y1355D02*
X651D01*
X760Y1103D02*
X851Y1194D01*
X711Y1103D02*
X760D01*
X1664Y1588D02*
X1668Y1583D01*
X1732D02*
X1765Y1549D01*
X1668Y1583D02*
X1732D01*
X1448Y1219D02*
Y1372D01*
X3358Y1753D02*
X3416D01*
X3256Y1774D02*
X3337D01*
X3358Y1753D01*
X3251Y1778D02*
X3256Y1774D01*
X562Y1455D02*
X818D01*
X1122Y1759D01*
X1925Y1275D02*
X1950D01*
X1975D01*
X1950Y1201D02*
Y1275D01*
X3585Y1330D02*
Y1562D01*
Y1330D02*
X3696Y1219D01*
X1896Y1041D02*
X1908Y1054D01*
X1892Y1041D02*
X1896D01*
X1908Y1054D02*
X1987D01*
X711Y737D02*
X1016Y432D01*
X610Y1204D02*
X711Y1103D01*
Y737D02*
Y1103D01*
X562Y1205D02*
X563Y1204D01*
X610D01*
X1778Y1181D02*
Y1290D01*
X1773Y1295D02*
X1848Y1371D01*
X1773Y1295D02*
X1778Y1290D01*
X1697Y1219D02*
X1773Y1295D01*
X3416Y1753D02*
X3429D01*
X3391Y1727D02*
X3416Y1753D01*
X3429D02*
X3467Y1791D01*
X3391Y1676D02*
Y1727D01*
Y1676D02*
X3467Y1600D01*
X3680Y991D02*
X3874D01*
X3680D02*
X3730Y1041D01*
X3734D01*
X3619Y991D02*
X3680D01*
X3579Y876D02*
Y951D01*
X3619Y991D01*
X3874D02*
X4001Y864D01*
X562Y1355D02*
X563Y1355D01*
X451Y1210D02*
X455Y1205D01*
X561D01*
X562Y1205D01*
X455Y1454D02*
X561D01*
X562Y1455D01*
X451Y1450D02*
X455Y1454D01*
X1128Y1760D02*
Y1765D01*
X1127Y1759D02*
X1128Y1760D01*
X1122Y1759D02*
X1127D01*
X1270Y902D02*
X1273D01*
X1324Y952D01*
X1537Y813D02*
Y889D01*
X1293Y455D02*
Y569D01*
X1270Y432D02*
X1293Y455D01*
Y569D02*
X1537Y813D01*
X1324Y952D02*
X1440D01*
X1537Y1049D01*
Y1054D01*
Y1059D02*
X1697Y1219D01*
X1538D02*
X1697D01*
X1848Y1393D02*
X1853Y1398D01*
X1537Y1054D02*
Y1059D01*
X1848Y1371D02*
Y1393D01*
X1524Y432D02*
X1778D01*
X1016D02*
X1270D01*
D41*
X-29Y880D02*
D03*
X531D02*
D03*
X-29Y1780D02*
D03*
X531D02*
D03*
D42*
X381Y1090D02*
D03*
Y1170D02*
D03*
Y1250D02*
D03*
Y1570D02*
D03*
Y1490D02*
D03*
Y1410D02*
D03*
X451Y1290D02*
D03*
Y1210D02*
D03*
Y1025D02*
D03*
Y1635D02*
D03*
Y1450D02*
D03*
Y1370D02*
D03*
X381Y957D02*
D03*
Y1702D02*
D03*
D43*
X2388Y229D02*
D03*
X2489Y2451D02*
D03*
D44*
X2642Y229D02*
D03*
X2896D02*
D03*
X3150D02*
D03*
X3404D02*
D03*
X4001Y1626D02*
D03*
Y1372D02*
D03*
Y1118D02*
D03*
X1219Y2451D02*
D03*
X1473D02*
D03*
X1727D02*
D03*
X1981D02*
D03*
X2235D02*
D03*
X965D02*
D03*
D45*
X1016Y432D02*
D03*
Y178D02*
D03*
X1270D02*
D03*
Y432D02*
D03*
X1524Y178D02*
D03*
Y432D02*
D03*
X1778Y178D02*
D03*
D46*
Y432D02*
D03*
D47*
X4001Y864D02*
D03*
D48*
X1437Y835D02*
D03*
X1689Y775D02*
D03*
X775Y1575D02*
D03*
X686Y1384D02*
D03*
X851Y1194D02*
D03*
X1664Y1588D02*
D03*
X1448Y1372D02*
D03*
X2663Y923D02*
D03*
X3251Y1778D02*
D03*
X2090Y1987D02*
D03*
X2400Y1295D02*
D03*
X2527Y1029D02*
D03*
X3696Y1219D02*
D03*
X2146Y1016D02*
D03*
X1892Y1041D02*
D03*
X2426Y1460D02*
D03*
X1778Y1181D02*
D03*
X1880Y952D02*
D03*
X2017Y1926D02*
D03*
X3467Y1600D02*
D03*
X3734Y1041D02*
D03*
X2375Y660D02*
D03*
X1270Y902D02*
D03*
M02*
