G04*
G04 #@! TF.GenerationSoftware,Altium Limited,Altium Designer,21.0.8 (223)*
G04*
G04 Layer_Color=65535*
%FSLAX42Y42*%
%MOMM*%
G71*
G04*
G04 #@! TF.SameCoordinates,3342F10C-20B5-45E4-B721-DC8BC5ABD3D0*
G04*
G04*
G04 #@! TF.FilePolarity,Positive*
G04*
G01*
G75*
%ADD10C,0.20*%
%ADD11C,0.20*%
%ADD12C,0.15*%
%ADD13C,0.13*%
%ADD14C,0.25*%
G36*
X119Y2467D02*
X122D01*
X126Y2466D01*
X131Y2466D01*
X137Y2465D01*
X149Y2462D01*
X163Y2459D01*
X179Y2453D01*
X195Y2447D01*
X204Y2442D01*
X213Y2438D01*
X221Y2432D01*
X230Y2426D01*
X239Y2420D01*
X247Y2413D01*
X256Y2405D01*
X265Y2397D01*
X274Y2388D01*
X282Y2378D01*
X289Y2367D01*
X297Y2356D01*
X305Y2343D01*
X311Y2330D01*
X318Y2316D01*
X324Y2300D01*
Y2300D01*
X324Y2299D01*
Y2298D01*
X325Y2296D01*
X326Y2291D01*
X328Y2284D01*
X329Y2275D01*
X330Y2267D01*
X330Y2257D01*
X331Y2248D01*
Y2241D01*
Y2240D01*
Y2239D01*
Y2237D01*
X330Y2234D01*
Y2231D01*
X330Y2227D01*
X329Y2222D01*
X329Y2218D01*
X326Y2205D01*
X323Y2192D01*
X318Y2177D01*
X311Y2161D01*
X303Y2144D01*
X298Y2135D01*
X293Y2126D01*
X287Y2118D01*
X280Y2109D01*
X273Y2101D01*
X265Y2092D01*
X257Y2084D01*
X247Y2076D01*
X238Y2067D01*
X227Y2060D01*
X215Y2053D01*
X203Y2046D01*
X190Y2039D01*
X175Y2033D01*
X168D01*
X164Y2041D01*
Y2107D01*
Y2108D01*
X163Y2109D01*
Y2111D01*
X163Y2113D01*
X162Y2118D01*
X161Y2125D01*
X159Y2132D01*
X158Y2138D01*
X157Y2144D01*
X157Y2147D01*
Y2148D01*
X158D01*
X161Y2149D01*
X165Y2150D01*
X171Y2151D01*
X178Y2154D01*
X185Y2156D01*
X193Y2160D01*
X202Y2163D01*
X210Y2168D01*
X217Y2174D01*
X225Y2180D01*
X232Y2187D01*
X238Y2196D01*
X242Y2205D01*
X245Y2215D01*
X246Y2226D01*
X246Y2227D01*
X247Y2227D01*
X248Y2229D01*
X249Y2232D01*
X249Y2236D01*
X250Y2241D01*
Y2248D01*
Y2263D01*
Y2264D01*
X249Y2267D01*
X247Y2270D01*
X246Y2275D01*
X245Y2280D01*
X243Y2287D01*
X240Y2294D01*
X239Y2303D01*
X234Y2320D01*
X231Y2339D01*
X228Y2357D01*
X227Y2366D01*
Y2375D01*
X217D01*
X215Y2374D01*
X209Y2374D01*
X203Y2372D01*
X195Y2369D01*
X186Y2365D01*
X177Y2360D01*
X168Y2352D01*
X167D01*
X166Y2353D01*
X164D01*
X162Y2353D01*
X158Y2354D01*
X155Y2354D01*
X146Y2356D01*
X136Y2358D01*
X125Y2359D01*
X115Y2359D01*
X104Y2360D01*
X102D01*
X98Y2359D01*
X92Y2359D01*
X84Y2358D01*
X80Y2357D01*
X75Y2357D01*
X69Y2356D01*
X63Y2355D01*
X56Y2353D01*
X49Y2352D01*
X48Y2353D01*
X45Y2356D01*
X40Y2359D01*
X34Y2364D01*
X26Y2368D01*
X17Y2371D01*
X7Y2374D01*
X-3Y2375D01*
X-11D01*
Y2374D01*
Y2372D01*
Y2370D01*
X-11Y2367D01*
Y2363D01*
X-12Y2357D01*
X-12Y2351D01*
X-13Y2345D01*
X-14Y2337D01*
X-16Y2328D01*
X-18Y2319D01*
X-20Y2309D01*
X-23Y2299D01*
X-25Y2287D01*
X-29Y2276D01*
X-33Y2263D01*
Y2248D01*
Y2248D01*
Y2245D01*
X-32Y2242D01*
X-32Y2237D01*
X-31Y2232D01*
X-30Y2226D01*
X-28Y2219D01*
X-26Y2211D01*
X-23Y2204D01*
X-19Y2196D01*
X-15Y2189D01*
X-10Y2181D01*
X-3Y2174D01*
X4Y2167D01*
X13Y2161D01*
X23Y2155D01*
X24D01*
X26Y2155D01*
X30Y2154D01*
X35Y2153D01*
X42Y2151D01*
X47Y2149D01*
X52Y2148D01*
X58Y2147D01*
X64Y2144D01*
Y2144D01*
X63Y2143D01*
X62Y2141D01*
X62Y2139D01*
X59Y2134D01*
X56Y2128D01*
X52Y2121D01*
X46Y2117D01*
X42Y2114D01*
X38Y2113D01*
X35Y2112D01*
X30Y2111D01*
X29D01*
X28Y2112D01*
X25D01*
X20Y2113D01*
X12Y2117D01*
X8Y2119D01*
X3Y2122D01*
X-2Y2125D01*
X-8Y2130D01*
X-13Y2135D01*
X-20Y2141D01*
X-26Y2148D01*
X-33Y2155D01*
X-52Y2159D01*
X-55Y2152D01*
Y2148D01*
X-54D01*
X-52Y2148D01*
X-49Y2145D01*
X-47Y2144D01*
X-44Y2142D01*
X-42Y2139D01*
X-38Y2136D01*
X-35Y2131D01*
X-31Y2126D01*
X-26Y2120D01*
X-22Y2113D01*
X-16Y2106D01*
X-11Y2096D01*
X-10Y2096D01*
X-7Y2094D01*
X-3Y2091D01*
X3Y2089D01*
X10Y2086D01*
X17Y2083D01*
X25Y2082D01*
X34Y2081D01*
X35D01*
X35Y2082D01*
X38Y2083D01*
X43Y2084D01*
X49Y2085D01*
X53Y2077D01*
Y2041D01*
Y2040D01*
Y2040D01*
X52Y2037D01*
X50Y2035D01*
X48Y2034D01*
X46Y2034D01*
X42Y2033D01*
X41D01*
X40Y2034D01*
X38Y2035D01*
X35Y2036D01*
X31Y2038D01*
X28Y2040D01*
X23Y2042D01*
X17Y2045D01*
X6Y2052D01*
X-7Y2060D01*
X-22Y2071D01*
X-36Y2083D01*
X-51Y2096D01*
X-65Y2112D01*
X-78Y2129D01*
X-90Y2147D01*
X-95Y2157D01*
X-100Y2168D01*
X-104Y2179D01*
X-108Y2190D01*
X-110Y2202D01*
X-113Y2215D01*
X-114Y2228D01*
X-114Y2241D01*
Y2248D01*
Y2249D01*
Y2250D01*
Y2252D01*
X-114Y2255D01*
Y2258D01*
X-113Y2262D01*
X-113Y2267D01*
X-112Y2273D01*
X-109Y2285D01*
X-106Y2299D01*
X-100Y2315D01*
X-94Y2331D01*
X-89Y2340D01*
X-85Y2348D01*
X-79Y2357D01*
X-73Y2366D01*
X-67Y2375D01*
X-60Y2384D01*
X-52Y2393D01*
X-44Y2401D01*
X-35Y2410D01*
X-25Y2418D01*
X-14Y2426D01*
X-2Y2433D01*
X10Y2441D01*
X23Y2447D01*
X37Y2454D01*
X53Y2460D01*
X53D01*
X54Y2460D01*
X55D01*
X58Y2461D01*
X62Y2462D01*
X70Y2464D01*
X78Y2465D01*
X86Y2466D01*
X95Y2467D01*
X104Y2467D01*
X116D01*
X119Y2467D01*
D02*
G37*
G36*
X2875Y1897D02*
Y1896D01*
X2886Y1841D01*
Y1840D01*
X2887Y1838D01*
X2888Y1837D01*
X2925Y1822D01*
X2929D01*
X2976Y1855D01*
X2977D01*
X2979Y1854D01*
X3019Y1816D01*
Y1814D01*
Y1813D01*
Y1812D01*
Y1811D01*
X2987Y1765D01*
Y1763D01*
Y1762D01*
Y1761D01*
X3004Y1723D01*
Y1722D01*
X3005Y1721D01*
X3007D01*
X3060Y1711D01*
X3062D01*
X3063Y1710D01*
Y1709D01*
Y1653D01*
Y1652D01*
X3062Y1651D01*
X3060D01*
X3008Y1640D01*
X3007D01*
X3006Y1639D01*
X3005Y1638D01*
X2989Y1596D01*
Y1595D01*
Y1594D01*
Y1593D01*
Y1592D01*
X3019Y1549D01*
Y1547D01*
Y1546D01*
X2979Y1507D01*
X2978Y1506D01*
X2977D01*
X2976Y1507D01*
X2933Y1535D01*
X2929D01*
X2911Y1525D01*
X2909D01*
X2908Y1526D01*
X2869Y1620D01*
Y1621D01*
X2870Y1625D01*
X2875Y1627D01*
X2876Y1628D01*
X2877Y1629D01*
X2879Y1630D01*
X2882Y1632D01*
X2886Y1637D01*
X2892Y1642D01*
X2897Y1649D01*
X2901Y1657D01*
X2905Y1667D01*
X2906Y1679D01*
Y1680D01*
Y1683D01*
X2905Y1688D01*
X2904Y1694D01*
X2901Y1701D01*
X2898Y1709D01*
X2894Y1716D01*
X2888Y1723D01*
X2887Y1724D01*
X2885Y1726D01*
X2882Y1728D01*
X2876Y1733D01*
X2870Y1736D01*
X2862Y1738D01*
X2855Y1740D01*
X2845Y1741D01*
X2840D01*
X2836Y1740D01*
X2829Y1739D01*
X2823Y1737D01*
X2815Y1734D01*
X2809Y1729D01*
X2801Y1723D01*
X2800Y1722D01*
X2799Y1719D01*
X2796Y1716D01*
X2792Y1711D01*
X2789Y1704D01*
X2787Y1697D01*
X2785Y1689D01*
X2784Y1679D01*
Y1678D01*
Y1674D01*
X2785Y1668D01*
X2787Y1661D01*
X2790Y1653D01*
X2796Y1644D01*
X2802Y1637D01*
X2812Y1629D01*
Y1628D01*
X2813Y1627D01*
X2814D01*
X2820Y1625D01*
X2821Y1623D01*
Y1620D01*
X2783Y1526D01*
X2781D01*
X2778Y1525D01*
X2760Y1535D01*
X2756D01*
X2714Y1507D01*
X2713Y1506D01*
X2712D01*
X2711Y1507D01*
X2670Y1546D01*
Y1547D01*
Y1548D01*
Y1549D01*
X2701Y1592D01*
Y1593D01*
Y1594D01*
Y1595D01*
Y1596D01*
X2683Y1638D01*
Y1639D01*
X2681Y1640D01*
X2630Y1651D01*
X2629D01*
X2628Y1652D01*
X2627Y1653D01*
Y1709D01*
Y1710D01*
X2628Y1711D01*
X2630D01*
X2682Y1721D01*
X2683D01*
X2687Y1723D01*
X2702Y1761D01*
Y1762D01*
Y1763D01*
Y1764D01*
Y1765D01*
X2670Y1811D01*
Y1812D01*
Y1813D01*
Y1814D01*
Y1816D01*
X2711Y1854D01*
X2712Y1855D01*
X2714D01*
X2760Y1822D01*
X2764D01*
X2801Y1837D01*
X2802D01*
X2803Y1838D01*
Y1841D01*
X2814Y1896D01*
Y1897D01*
X2815Y1898D01*
X2874D01*
X2875Y1897D01*
D02*
G37*
G36*
X3024Y1459D02*
X3028Y1457D01*
X3019Y1446D01*
X3018Y1447D01*
X3017Y1448D01*
X3015Y1449D01*
X3013Y1450D01*
X3011D01*
X3007Y1449D01*
X3003Y1444D01*
X3002Y1441D01*
X3001Y1437D01*
Y1402D01*
X2989D01*
Y1461D01*
X3001D01*
Y1454D01*
X3002Y1455D01*
X3004Y1458D01*
X3010Y1460D01*
X3016Y1461D01*
X3019D01*
X3024Y1459D01*
D02*
G37*
G36*
X2773D02*
X2776Y1455D01*
X2779Y1452D01*
X2781Y1447D01*
X2783Y1440D01*
Y1402D01*
X2771D01*
Y1437D01*
Y1438D01*
Y1439D01*
X2769Y1443D01*
X2765Y1448D01*
X2763Y1450D01*
X2756D01*
X2753Y1449D01*
X2749Y1444D01*
X2748Y1441D01*
X2747Y1437D01*
Y1402D01*
X2735D01*
Y1461D01*
X2747D01*
Y1454D01*
X2748Y1455D01*
X2751Y1458D01*
X2755Y1460D01*
X2763Y1461D01*
X2766D01*
X2773Y1459D01*
D02*
G37*
G36*
X2655Y1460D02*
X2660Y1459D01*
X2666Y1454D01*
X2667Y1453D01*
X2668Y1449D01*
X2669Y1442D01*
Y1431D01*
Y1430D01*
Y1429D01*
Y1423D01*
X2668Y1415D01*
X2666Y1408D01*
X2665Y1407D01*
X2660Y1405D01*
X2655Y1402D01*
X2649Y1401D01*
X2648D01*
X2645Y1402D01*
X2640Y1404D01*
X2633Y1407D01*
Y1362D01*
X2634Y1363D01*
X2637Y1365D01*
X2642Y1367D01*
X2649Y1368D01*
X2653D01*
X2659Y1366D01*
X2663Y1364D01*
X2666Y1359D01*
X2668Y1355D01*
X2669Y1348D01*
Y1310D01*
X2657D01*
Y1344D01*
Y1345D01*
Y1346D01*
X2656Y1351D01*
X2652Y1355D01*
X2649Y1357D01*
X2643D01*
X2640Y1356D01*
X2635Y1352D01*
X2634Y1348D01*
X2633Y1344D01*
Y1310D01*
X2623D01*
Y1461D01*
X2633D01*
Y1454D01*
X2634Y1455D01*
X2639Y1458D01*
X2643Y1460D01*
X2649Y1461D01*
X2651D01*
X2655Y1460D01*
D02*
G37*
G36*
X2848D02*
X2855Y1458D01*
X2862Y1452D01*
X2856Y1444D01*
X2853Y1446D01*
X2849Y1448D01*
X2844Y1449D01*
X2839Y1450D01*
X2837D01*
X2834Y1449D01*
X2831Y1448D01*
X2828Y1443D01*
Y1442D01*
X2829Y1441D01*
X2832Y1439D01*
X2837Y1438D01*
X2847Y1437D01*
X2850D01*
X2856Y1434D01*
X2862Y1428D01*
X2863Y1425D01*
X2864Y1419D01*
Y1418D01*
Y1416D01*
X2863Y1414D01*
X2861Y1411D01*
X2858Y1406D01*
X2853Y1404D01*
X2848Y1402D01*
X2839Y1401D01*
X2837D01*
X2831Y1402D01*
X2823Y1405D01*
X2814Y1412D01*
X2822Y1419D01*
X2823Y1418D01*
X2827Y1416D01*
X2834Y1413D01*
X2840Y1412D01*
X2843D01*
X2847Y1413D01*
X2850Y1415D01*
X2852Y1417D01*
Y1419D01*
Y1420D01*
X2851Y1422D01*
X2849Y1424D01*
X2845Y1426D01*
X2833D01*
X2832Y1427D01*
X2826Y1429D01*
X2821Y1435D01*
X2820Y1438D01*
X2819Y1443D01*
Y1444D01*
Y1447D01*
X2821Y1452D01*
X2824Y1455D01*
X2827Y1459D01*
X2833Y1460D01*
X2839Y1461D01*
X2841D01*
X2848Y1460D01*
D02*
G37*
G36*
X3061D02*
X3067Y1457D01*
X3074Y1451D01*
X3065Y1443D01*
X3064Y1444D01*
X3062Y1447D01*
X3059Y1449D01*
X3053Y1450D01*
X3051D01*
X3047Y1448D01*
X3043Y1446D01*
X3041Y1442D01*
X3040Y1438D01*
X3039Y1431D01*
Y1430D01*
Y1428D01*
X3041Y1423D01*
X3046Y1416D01*
X3049Y1414D01*
X3053Y1413D01*
X3054D01*
X3058Y1414D01*
X3061Y1416D01*
X3065Y1419D01*
X3074Y1412D01*
X3073Y1410D01*
X3068Y1406D01*
X3062Y1403D01*
X3053Y1401D01*
X3049D01*
X3044Y1403D01*
X3040Y1405D01*
X3036Y1408D01*
X3031Y1414D01*
X3028Y1422D01*
X3027Y1431D01*
Y1432D01*
Y1436D01*
X3028Y1441D01*
X3030Y1447D01*
X3034Y1451D01*
X3038Y1457D01*
X3044Y1460D01*
X3053Y1461D01*
X3055D01*
X3061Y1460D01*
D02*
G37*
G36*
X2976Y1402D02*
X2964D01*
Y1407D01*
X2963Y1406D01*
X2959Y1404D01*
X2955Y1402D01*
X2949Y1401D01*
X2946D01*
X2940Y1403D01*
X2935Y1405D01*
X2932Y1410D01*
X2930Y1414D01*
X2929Y1420D01*
Y1461D01*
X2941D01*
Y1426D01*
Y1424D01*
X2942Y1419D01*
X2946Y1415D01*
X2948Y1414D01*
X2953Y1413D01*
X2955D01*
X2958Y1415D01*
X2961Y1418D01*
X2964Y1422D01*
Y1426D01*
Y1461D01*
X2976D01*
Y1402D01*
D02*
G37*
G36*
X3109Y1460D02*
X3114Y1458D01*
X3119Y1455D01*
X3122Y1451D01*
X3125Y1444D01*
X3126Y1437D01*
Y1426D01*
X3089D01*
Y1425D01*
Y1424D01*
X3091Y1419D01*
X3096Y1414D01*
X3099Y1413D01*
X3103Y1412D01*
X3104D01*
X3108Y1413D01*
X3112Y1415D01*
X3115Y1418D01*
X3124Y1411D01*
X3123Y1410D01*
X3119Y1406D01*
X3112Y1402D01*
X3103Y1401D01*
X3099D01*
X3095Y1403D01*
X3090Y1405D01*
X3086Y1408D01*
X3082Y1414D01*
X3078Y1422D01*
X3077Y1431D01*
Y1432D01*
Y1436D01*
X3078Y1441D01*
X3080Y1447D01*
X3083Y1451D01*
X3087Y1457D01*
X3094Y1460D01*
X3101Y1461D01*
X3106D01*
X3109Y1460D01*
D02*
G37*
G36*
X2901D02*
X2907Y1459D01*
X2912Y1454D01*
X2913Y1453D01*
X2916Y1449D01*
X2918Y1442D01*
X2919Y1431D01*
Y1430D01*
Y1429D01*
X2918Y1423D01*
X2917Y1415D01*
X2912Y1408D01*
X2911Y1407D01*
X2908Y1405D01*
X2903Y1402D01*
X2895Y1401D01*
X2893D01*
X2888Y1402D01*
X2883Y1404D01*
X2876Y1408D01*
X2875Y1410D01*
X2874Y1414D01*
X2872Y1422D01*
X2871Y1431D01*
Y1432D01*
Y1434D01*
X2872Y1440D01*
X2873Y1448D01*
X2876Y1454D01*
X2877Y1455D01*
X2881Y1458D01*
X2887Y1460D01*
X2895Y1461D01*
X2897D01*
X2901Y1460D01*
D02*
G37*
G36*
X2708D02*
X2714Y1458D01*
X2718Y1455D01*
X2721Y1451D01*
X2725Y1444D01*
X2726Y1437D01*
Y1426D01*
X2689D01*
Y1425D01*
Y1424D01*
X2691Y1419D01*
X2694Y1414D01*
X2697Y1413D01*
X2702Y1412D01*
X2703D01*
X2707Y1413D01*
X2711Y1415D01*
X2715Y1418D01*
X2725Y1411D01*
X2723Y1410D01*
X2718Y1406D01*
X2712Y1402D01*
X2703Y1401D01*
X2699D01*
X2694Y1403D01*
X2690Y1405D01*
X2685Y1408D01*
X2681Y1414D01*
X2678Y1422D01*
X2677Y1431D01*
Y1432D01*
Y1436D01*
X2678Y1441D01*
X2680Y1447D01*
X2682Y1451D01*
X2687Y1457D01*
X2693Y1460D01*
X2701Y1461D01*
X2705D01*
X2708Y1460D01*
D02*
G37*
G36*
X2596D02*
X2601Y1459D01*
X2606Y1454D01*
X2607Y1453D01*
X2609Y1449D01*
X2611Y1442D01*
X2612Y1431D01*
Y1430D01*
Y1429D01*
X2611Y1423D01*
X2610Y1415D01*
X2606Y1408D01*
X2605Y1407D01*
X2601Y1405D01*
X2596Y1402D01*
X2588Y1401D01*
X2586D01*
X2582Y1402D01*
X2576Y1404D01*
X2570Y1408D01*
X2569Y1410D01*
X2568Y1415D01*
X2566Y1422D01*
X2565Y1431D01*
Y1432D01*
Y1434D01*
X2566Y1440D01*
X2568Y1447D01*
X2570Y1454D01*
X2571Y1455D01*
X2574Y1458D01*
X2581Y1460D01*
X2588Y1461D01*
X2590D01*
X2596Y1460D01*
D02*
G37*
G36*
X3010Y1366D02*
X3014Y1364D01*
X3004Y1354D01*
Y1355D01*
X3002Y1356D01*
X3000Y1357D01*
X2994D01*
X2991Y1356D01*
X2988Y1352D01*
X2986Y1348D01*
Y1344D01*
Y1310D01*
X2974D01*
Y1368D01*
X2986D01*
Y1362D01*
X2987Y1363D01*
X2990Y1365D01*
X2994Y1367D01*
X3002Y1368D01*
X3005D01*
X3010Y1366D01*
D02*
G37*
G36*
X2824Y1310D02*
X2812D01*
Y1315D01*
X2811Y1314D01*
X2808Y1311D01*
X2803Y1309D01*
X2797Y1308D01*
X2796D01*
X2791Y1309D01*
X2786Y1311D01*
X2781Y1317D01*
X2780Y1318D01*
X2779Y1321D01*
X2778Y1323D01*
Y1328D01*
X2777Y1332D01*
Y1339D01*
Y1340D01*
Y1342D01*
X2778Y1348D01*
X2779Y1356D01*
X2780Y1359D01*
X2781Y1362D01*
X2783Y1363D01*
X2785Y1365D01*
X2790Y1367D01*
X2797Y1368D01*
X2798D01*
X2802Y1367D01*
X2807Y1366D01*
X2812Y1362D01*
Y1392D01*
X2824D01*
Y1310D01*
D02*
G37*
G36*
X2773Y1366D02*
X2777Y1364D01*
X2768Y1354D01*
X2767Y1355D01*
X2766Y1356D01*
X2763Y1357D01*
X2759D01*
X2755Y1356D01*
X2751Y1352D01*
X2750Y1348D01*
Y1344D01*
Y1310D01*
X2738D01*
Y1368D01*
X2750D01*
Y1362D01*
X2751Y1363D01*
X2753Y1365D01*
X2757Y1367D01*
X2764Y1368D01*
X2768D01*
X2773Y1366D01*
D02*
G37*
G36*
X2895Y1310D02*
X2884D01*
X2871Y1351D01*
X2859Y1310D01*
X2849D01*
X2831Y1368D01*
X2843D01*
X2853Y1327D01*
X2868Y1368D01*
X2876D01*
X2889Y1327D01*
X2900Y1368D01*
X2913D01*
X2895Y1310D01*
D02*
G37*
G36*
X2949Y1366D02*
X2953Y1364D01*
X2957Y1360D01*
X2959Y1356D01*
X2960Y1350D01*
Y1310D01*
X2949D01*
Y1315D01*
X2948Y1314D01*
X2946Y1311D01*
X2941Y1309D01*
X2934Y1308D01*
X2931D01*
X2924Y1310D01*
X2920Y1312D01*
X2917Y1316D01*
X2915Y1320D01*
X2913Y1327D01*
Y1328D01*
Y1330D01*
X2916Y1335D01*
X2918Y1339D01*
X2922Y1342D01*
X2927Y1343D01*
X2933Y1344D01*
X2949D01*
Y1350D01*
Y1351D01*
X2948Y1354D01*
X2944Y1356D01*
X2942Y1357D01*
X2933D01*
X2929Y1356D01*
X2927Y1354D01*
X2918Y1360D01*
X2919Y1362D01*
X2922Y1365D01*
X2928Y1367D01*
X2937Y1368D01*
X2941D01*
X2949Y1366D01*
D02*
G37*
G36*
X2707Y1367D02*
X2713Y1366D01*
X2717Y1364D01*
X2720Y1360D01*
X2724Y1356D01*
X2725Y1350D01*
Y1310D01*
X2713D01*
Y1315D01*
X2712Y1314D01*
X2709Y1311D01*
X2705Y1309D01*
X2699Y1308D01*
X2695D01*
X2688Y1310D01*
X2683Y1312D01*
X2680Y1316D01*
X2678Y1320D01*
X2677Y1327D01*
Y1328D01*
Y1330D01*
X2679Y1335D01*
X2681Y1339D01*
X2685Y1342D01*
X2690Y1343D01*
X2696Y1344D01*
X2713D01*
Y1350D01*
Y1351D01*
X2712Y1354D01*
X2707Y1356D01*
X2705Y1357D01*
X2696D01*
X2692Y1356D01*
X2689Y1354D01*
X2680Y1360D01*
X2681Y1362D01*
X2685Y1365D01*
X2691Y1367D01*
X2700Y1368D01*
X2704D01*
X2707Y1367D01*
D02*
G37*
G36*
X3046D02*
X3051Y1365D01*
X3055Y1363D01*
X3059Y1358D01*
X3062Y1352D01*
X3063Y1344D01*
Y1333D01*
X3026D01*
Y1332D01*
Y1331D01*
X3028Y1327D01*
X3031Y1321D01*
X3035Y1320D01*
X3039Y1319D01*
X3040D01*
X3044Y1320D01*
X3048Y1322D01*
X3052Y1326D01*
X3061Y1318D01*
X3060Y1317D01*
X3055Y1314D01*
X3049Y1309D01*
X3040Y1308D01*
X3036D01*
X3031Y1310D01*
X3027Y1312D01*
X3023Y1316D01*
X3018Y1321D01*
X3015Y1329D01*
X3014Y1339D01*
Y1340D01*
Y1343D01*
X3015Y1348D01*
X3017Y1354D01*
X3019Y1358D01*
X3024Y1364D01*
X3030Y1367D01*
X3038Y1368D01*
X3042D01*
X3046Y1367D01*
D02*
G37*
%LPC*%
G36*
X2645Y1450D02*
X2643D01*
X2640Y1448D01*
X2637Y1446D01*
X2635Y1442D01*
X2634Y1438D01*
X2633Y1431D01*
Y1430D01*
Y1428D01*
X2634Y1423D01*
X2639Y1416D01*
X2641Y1414D01*
X2645Y1413D01*
X2647D01*
X2652Y1415D01*
X2654Y1417D01*
X2655Y1420D01*
X2657Y1425D01*
Y1431D01*
Y1432D01*
Y1435D01*
X2656Y1441D01*
X2652Y1447D01*
X2649Y1449D01*
X2645Y1450D01*
D02*
G37*
G36*
X3104D02*
X3099D01*
X3096Y1449D01*
X3091Y1444D01*
X3090Y1441D01*
X3089Y1437D01*
X3114D01*
Y1438D01*
Y1439D01*
X3112Y1443D01*
X3108Y1448D01*
X3104Y1450D01*
D02*
G37*
G36*
X2895D02*
X2894D01*
X2892Y1449D01*
X2888Y1448D01*
X2886Y1444D01*
X2885Y1442D01*
X2884Y1438D01*
X2883Y1431D01*
Y1429D01*
Y1426D01*
X2884Y1420D01*
X2886Y1417D01*
Y1416D01*
X2887Y1415D01*
X2891Y1414D01*
X2895Y1413D01*
X2896D01*
X2898Y1414D01*
X2901Y1415D01*
X2904Y1417D01*
X2905Y1418D01*
X2906Y1420D01*
X2907Y1425D01*
Y1431D01*
Y1434D01*
Y1437D01*
X2906Y1441D01*
X2904Y1444D01*
Y1446D01*
X2901Y1448D01*
X2899Y1449D01*
X2895Y1450D01*
D02*
G37*
G36*
X2704D02*
X2699D01*
X2695Y1449D01*
X2691Y1444D01*
X2690Y1441D01*
X2689Y1437D01*
X2714D01*
Y1438D01*
Y1439D01*
X2712Y1443D01*
X2707Y1448D01*
X2704Y1450D01*
D02*
G37*
G36*
X2588D02*
X2587D01*
X2585Y1449D01*
X2582Y1448D01*
X2580Y1444D01*
X2578Y1443D01*
X2577Y1441D01*
X2576Y1437D01*
X2575Y1431D01*
Y1430D01*
X2576Y1426D01*
X2577Y1422D01*
X2580Y1417D01*
Y1416D01*
X2581Y1415D01*
X2584Y1414D01*
X2588Y1413D01*
X2589D01*
X2593Y1414D01*
X2596Y1415D01*
X2598Y1417D01*
Y1418D01*
X2599Y1420D01*
X2600Y1425D01*
Y1431D01*
Y1434D01*
Y1437D01*
X2599Y1441D01*
X2598Y1444D01*
X2597Y1446D01*
X2596Y1448D01*
X2593Y1449D01*
X2588Y1450D01*
D02*
G37*
G36*
X2801Y1357D02*
X2799D01*
X2796Y1355D01*
X2793Y1353D01*
X2791Y1350D01*
X2790Y1345D01*
X2789Y1339D01*
Y1338D01*
Y1335D01*
X2790Y1330D01*
X2795Y1323D01*
X2797Y1321D01*
X2801Y1320D01*
X2803D01*
X2807Y1322D01*
X2809Y1324D01*
X2810Y1328D01*
X2812Y1332D01*
Y1339D01*
Y1340D01*
Y1342D01*
X2811Y1348D01*
X2808Y1354D01*
X2804Y1356D01*
X2801Y1357D01*
D02*
G37*
G36*
X2949Y1333D02*
X2934D01*
X2931Y1332D01*
X2927Y1331D01*
X2925Y1327D01*
Y1326D01*
X2927Y1323D01*
X2930Y1320D01*
X2935Y1319D01*
X2937D01*
X2943Y1320D01*
X2947Y1323D01*
X2948Y1327D01*
X2949Y1330D01*
Y1333D01*
D02*
G37*
G36*
X2713D02*
X2697D01*
X2694Y1332D01*
X2690Y1331D01*
X2689Y1327D01*
Y1326D01*
X2690Y1323D01*
X2693Y1320D01*
X2700Y1319D01*
X2702D01*
X2706Y1320D01*
X2711Y1323D01*
X2713Y1327D01*
Y1330D01*
Y1333D01*
D02*
G37*
G36*
X3041Y1357D02*
X3036D01*
X3032Y1356D01*
X3028Y1352D01*
X3027Y1348D01*
X3026Y1344D01*
X3051D01*
Y1345D01*
Y1346D01*
X3049Y1351D01*
X3044Y1355D01*
X3041Y1357D01*
D02*
G37*
%LPD*%
D10*
X666Y1605D02*
G03*
X666Y1605I-10J0D01*
G01*
X3531Y102D02*
Y356D01*
X2261Y102D02*
X3531D01*
X2261Y356D02*
X3531D01*
X2261Y102D02*
Y356D01*
X889Y559D02*
X1630D01*
X1143D02*
X1905D01*
X889Y51D02*
X1905D01*
Y559D01*
X889Y51D02*
Y559D01*
X3874Y737D02*
X4128D01*
X3874D02*
Y1753D01*
X4128Y737D02*
Y1753D01*
X3874D02*
X4128D01*
X2616Y2324D02*
Y2578D01*
X838Y2324D02*
X2616D01*
X838Y2578D02*
X2616D01*
X838Y2324D02*
Y2578D01*
X1941Y1364D02*
Y1493D01*
Y1364D02*
X2159D01*
Y1582D01*
X2030D02*
X2159D01*
X1941Y1493D02*
X2030Y1582D01*
D11*
X3586Y512D02*
X3721D01*
X3724D01*
Y650D01*
Y655D01*
X3586D02*
X3724D01*
X3363Y512D02*
X3500D01*
X3363Y518D02*
Y655D01*
X3365D02*
X3500D01*
X3338Y512D02*
X3363D01*
X3338D02*
Y655D01*
X3363D01*
X975Y2014D02*
X1001D01*
X975Y1872D02*
Y2014D01*
Y1872D02*
X1001D01*
X1003Y2014D02*
X1138D01*
X1001Y1877D02*
Y2014D01*
Y1872D02*
X1138D01*
X1224Y2014D02*
X1361D01*
Y2009D02*
Y2014D01*
Y1872D02*
Y2009D01*
X1359Y1872D02*
X1361D01*
X1224D02*
X1359D01*
X3599Y1720D02*
X3734D01*
X3736D01*
Y1857D01*
Y1862D01*
X3599D02*
X3736D01*
X3376Y1720D02*
X3513D01*
X3376Y1725D02*
Y1862D01*
X3378D02*
X3513D01*
X3350Y1720D02*
X3376D01*
X3350D02*
Y1862D01*
X3376D01*
X1994Y610D02*
X1960D01*
X1977D01*
Y508D01*
X1994Y525D01*
X1964Y229D02*
X2032D01*
X1964Y161D01*
Y144D01*
X1981Y127D01*
X2015D01*
X2032Y144D01*
D12*
X1493Y1204D02*
Y1234D01*
X1408Y1174D02*
Y1264D01*
X1578D02*
X1578Y1264D01*
Y1174D02*
Y1264D01*
X1518Y1174D02*
X1578D01*
X1408D02*
X1467D01*
X1518Y1264D02*
X1578D01*
X1408D02*
X1467D01*
X2419Y1043D02*
X2509D01*
X2419Y1208D02*
X2509D01*
X2419Y1043D02*
Y1208D01*
X2509Y1043D02*
Y1208D01*
X3539Y921D02*
X3704D01*
X3539Y831D02*
X3704D01*
X3539D02*
Y921D01*
X3704Y831D02*
Y921D01*
X2139Y730D02*
X2199D01*
X2029D02*
X2089D01*
X2139Y820D02*
X2199D01*
X2029D02*
X2089D01*
X2029Y730D02*
Y820D01*
Y730D02*
X2029Y730D01*
X2199D02*
Y820D01*
X2114Y759D02*
Y790D01*
X1947Y1009D02*
X2112D01*
X1947Y1099D02*
X2112D01*
Y1009D02*
Y1099D01*
X1947Y1009D02*
Y1099D01*
X1407Y934D02*
X1466D01*
X1517D02*
X1577D01*
X1407Y844D02*
X1466D01*
X1517D02*
X1577D01*
Y934D01*
X1577Y934D02*
X1577Y934D01*
X1407Y844D02*
Y934D01*
X1492Y874D02*
Y904D01*
X1407Y1099D02*
X1466D01*
X1517D02*
X1577D01*
X1407Y1009D02*
X1466D01*
X1517D02*
X1577D01*
Y1099D01*
X1577Y1099D02*
X1577Y1099D01*
X1407Y1009D02*
Y1099D01*
X1492Y1039D02*
Y1069D01*
X1088Y1810D02*
X1253D01*
X1088Y1720D02*
X1253D01*
X1088D02*
Y1810D01*
X1253Y1720D02*
Y1810D01*
X3545Y1607D02*
X3710D01*
X3545Y1517D02*
X3710D01*
X3545D02*
Y1607D01*
X3710Y1517D02*
Y1607D01*
D13*
X-394Y1790D02*
X-169D01*
X-394Y870D02*
Y1790D01*
Y870D02*
X-169D01*
X331Y1790D02*
X406D01*
Y1812D01*
X331Y870D02*
X406D01*
Y847D02*
Y870D01*
X606Y955D02*
Y1005D01*
Y1655D02*
Y1705D01*
D14*
X1981Y444D02*
X1968Y457D01*
X1943D01*
X1930Y444D01*
Y432D01*
X1943Y419D01*
X1968D01*
X1981Y406D01*
Y394D01*
X1968Y381D01*
X1943D01*
X1930Y394D01*
X2007Y457D02*
Y394D01*
X2019Y381D01*
X2045D01*
X2057Y394D01*
Y457D01*
X2134Y444D02*
X2121Y457D01*
X2095D01*
X2083Y444D01*
Y432D01*
X2095Y419D01*
X2121D01*
X2134Y406D01*
Y394D01*
X2121Y381D01*
X2095D01*
X2083Y394D01*
X2159Y381D02*
Y457D01*
X2197D01*
X2210Y444D01*
Y419D01*
X2197Y406D01*
X2159D01*
X2286Y457D02*
X2235D01*
Y381D01*
X2286D01*
X2235Y419D02*
X2260D01*
X2311Y381D02*
Y457D01*
X2362Y381D01*
Y457D01*
X2387D02*
Y381D01*
X2426D01*
X2438Y394D01*
Y444D01*
X2426Y457D01*
X2387D01*
X2540D02*
X2565D01*
X2552D01*
Y381D01*
X2540D01*
X2565D01*
X2641Y457D02*
X2616D01*
X2603Y444D01*
Y394D01*
X2616Y381D01*
X2641D01*
X2654Y394D01*
Y444D01*
X2641Y457D01*
X2679Y368D02*
X2730D01*
X2756Y444D02*
X2768Y457D01*
X2794D01*
X2806Y444D01*
Y432D01*
X2794Y419D01*
X2781D01*
X2794D01*
X2806Y406D01*
Y394D01*
X2794Y381D01*
X2768D01*
X2756Y394D01*
X2908Y457D02*
X2933D01*
X2921D01*
Y381D01*
X2908D01*
X2933D01*
X3010Y457D02*
X2984D01*
X2971Y444D01*
Y394D01*
X2984Y381D01*
X3010D01*
X3022Y394D01*
Y444D01*
X3010Y457D01*
X3048Y368D02*
X3098D01*
X3175Y381D02*
X3124D01*
X3175Y432D01*
Y444D01*
X3162Y457D01*
X3137D01*
X3124Y444D01*
X3276Y457D02*
X3302D01*
X3289D01*
Y381D01*
X3276D01*
X3302D01*
X3378Y457D02*
X3352D01*
X3340Y444D01*
Y394D01*
X3352Y381D01*
X3378D01*
X3390Y394D01*
Y444D01*
X3378Y457D01*
X3416Y368D02*
X3467D01*
X3492Y381D02*
X3517D01*
X3505D01*
Y457D01*
X3492Y444D01*
X3632Y457D02*
X3657D01*
X3644D01*
Y381D01*
X3632D01*
X3657D01*
X3733Y457D02*
X3708D01*
X3695Y444D01*
Y394D01*
X3708Y381D01*
X3733D01*
X3746Y394D01*
Y444D01*
X3733Y457D01*
X3771Y368D02*
X3822D01*
X3847Y444D02*
X3860Y457D01*
X3886D01*
X3898Y444D01*
Y394D01*
X3886Y381D01*
X3860D01*
X3847Y394D01*
Y444D01*
X3569Y1194D02*
X3670D01*
X3619D01*
Y1041D01*
X3721Y1194D02*
X3823Y1041D01*
Y1194D02*
X3721Y1041D01*
X3569Y1295D02*
Y1448D01*
X3645D01*
X3670Y1422D01*
Y1372D01*
X3645Y1346D01*
X3569D01*
X3619D02*
X3670Y1295D01*
X3721Y1448D02*
X3823Y1295D01*
Y1448D02*
X3721Y1295D01*
X3863Y1941D02*
X3838Y1966D01*
X3787D01*
X3762Y1941D01*
Y1839D01*
X3787Y1814D01*
X3838D01*
X3863Y1839D01*
Y1890D01*
X3813D01*
X3914Y1814D02*
Y1966D01*
X4016Y1814D01*
Y1966D01*
X4066D02*
Y1814D01*
X4143D01*
X4168Y1839D01*
Y1941D01*
X4143Y1966D01*
X4066D01*
X3975Y711D02*
X3874D01*
Y635D01*
X3924Y660D01*
X3950D01*
X3975Y635D01*
Y584D01*
X3950Y559D01*
X3899D01*
X3874Y584D01*
X4026Y711D02*
Y610D01*
X4077Y559D01*
X4127Y610D01*
Y711D01*
X1346Y711D02*
Y584D01*
X114Y381D02*
X199D01*
X157D01*
Y254D01*
X241Y381D02*
X326D01*
X284D01*
Y254D01*
X368Y381D02*
Y254D01*
X453D01*
X-102Y635D02*
Y529D01*
X-80Y508D01*
X-38D01*
X-17Y529D01*
Y635D01*
X110Y614D02*
X89Y635D01*
X47D01*
X25Y614D01*
Y593D01*
X47Y571D01*
X89D01*
X110Y550D01*
Y529D01*
X89Y508D01*
X47D01*
X25Y529D01*
X152Y635D02*
Y508D01*
X216D01*
X237Y529D01*
Y550D01*
X216Y571D01*
X152D01*
X216D01*
X237Y593D01*
Y614D01*
X216Y635D01*
X152D01*
X406D02*
X491D01*
X449D01*
Y508D01*
X597Y635D02*
X554D01*
X533Y614D01*
Y529D01*
X554Y508D01*
X597D01*
X618Y529D01*
Y614D01*
X597Y635D01*
X2845Y2349D02*
Y2248D01*
X2879Y2282D01*
X2913Y2248D01*
Y2349D01*
X2997Y2248D02*
X2963D01*
X2946Y2265D01*
Y2299D01*
X2963Y2316D01*
X2997D01*
X3014Y2299D01*
Y2282D01*
X2946D01*
X3048Y2248D02*
Y2316D01*
X3099D01*
X3116Y2299D01*
Y2248D01*
X3150Y2349D02*
Y2248D01*
X3200D01*
X3217Y2265D01*
Y2282D01*
Y2299D01*
X3200Y2316D01*
X3150D01*
X3251Y2248D02*
X3285D01*
X3268D01*
Y2316D01*
X3251D01*
X3353D02*
X3386D01*
X3403Y2299D01*
Y2248D01*
X3353D01*
X3336Y2265D01*
X3353Y2282D01*
X3403D01*
X3454Y2248D02*
X3488D01*
X3505Y2265D01*
Y2299D01*
X3488Y2316D01*
X3454D01*
X3437Y2299D01*
Y2265D01*
X3454Y2248D01*
X3708Y2333D02*
X3691Y2349D01*
X3657D01*
X3640Y2333D01*
Y2265D01*
X3657Y2248D01*
X3691D01*
X3708Y2265D01*
X3742Y2349D02*
Y2248D01*
Y2299D01*
X3759Y2316D01*
X3793D01*
X3810Y2299D01*
Y2248D01*
X3894D02*
X3860D01*
X3844Y2265D01*
Y2299D01*
X3860Y2316D01*
X3894D01*
X3911Y2299D01*
Y2282D01*
X3844D01*
X3945Y2248D02*
Y2316D01*
X3996D01*
X4013Y2299D01*
Y2248D01*
X2883Y2536D02*
Y2434D01*
X2934D01*
X2951Y2451D01*
Y2519D01*
X2934Y2536D01*
X2883D01*
X3035Y2434D02*
X3001D01*
X2984Y2451D01*
Y2485D01*
X3001Y2502D01*
X3035D01*
X3052Y2485D01*
Y2468D01*
X2984D01*
X3086Y2434D02*
X3137D01*
X3154Y2451D01*
X3137Y2468D01*
X3103D01*
X3086Y2485D01*
X3103Y2502D01*
X3154D01*
X3188Y2434D02*
X3221D01*
X3205D01*
Y2502D01*
X3188D01*
X3306Y2400D02*
X3323D01*
X3340Y2417D01*
Y2502D01*
X3289D01*
X3272Y2485D01*
Y2451D01*
X3289Y2434D01*
X3340D01*
X3374D02*
Y2502D01*
X3425D01*
X3442Y2485D01*
Y2434D01*
X3526D02*
X3492D01*
X3475Y2451D01*
Y2485D01*
X3492Y2502D01*
X3526D01*
X3543Y2485D01*
Y2468D01*
X3475D01*
X3645Y2536D02*
Y2434D01*
X3594D01*
X3577Y2451D01*
Y2485D01*
X3594Y2502D01*
X3645D01*
X3780Y2536D02*
Y2434D01*
X3831D01*
X3848Y2451D01*
Y2468D01*
X3831Y2485D01*
X3780D01*
X3831D01*
X3848Y2502D01*
Y2519D01*
X3831Y2536D01*
X3780D01*
X3882Y2502D02*
Y2451D01*
X3899Y2434D01*
X3949D01*
Y2417D01*
X3932Y2400D01*
X3915D01*
X3949Y2434D02*
Y2502D01*
X1410Y690D02*
X1431Y711D01*
X1473D01*
X1494Y690D01*
Y669D01*
X1473Y648D01*
X1452D01*
X1473D01*
X1494Y627D01*
Y605D01*
X1473Y584D01*
X1431D01*
X1410Y605D01*
X1537Y584D02*
Y605D01*
X1558D01*
Y584D01*
X1537D01*
X1642Y690D02*
X1664Y711D01*
X1706D01*
X1727Y690D01*
Y669D01*
X1706Y648D01*
X1685D01*
X1706D01*
X1727Y627D01*
Y605D01*
X1706Y584D01*
X1664D01*
X1642Y605D01*
X1769Y711D02*
Y627D01*
X1812Y584D01*
X1854Y627D01*
Y711D01*
X1896D02*
Y584D01*
X978Y711D02*
Y584D01*
X1126Y711D02*
X1041D01*
Y648D01*
X1084Y669D01*
X1105D01*
X1126Y648D01*
Y605D01*
X1105Y584D01*
X1063D01*
X1041Y605D01*
X1168Y711D02*
Y627D01*
X1211Y584D01*
X1253Y627D01*
Y711D01*
X435Y2117D02*
Y2193D01*
X473D01*
X486Y2180D01*
Y2155D01*
X473Y2142D01*
X435D01*
X461D02*
X486Y2117D01*
X511Y2193D02*
X537D01*
X524D01*
Y2117D01*
X511D01*
X537D01*
X651Y2193D02*
Y2117D01*
X689D01*
X702Y2129D01*
Y2180D01*
X689Y2193D01*
X651D01*
X778Y2180D02*
X765Y2193D01*
X740D01*
X727Y2180D01*
Y2129D01*
X740Y2117D01*
X765D01*
X778Y2129D01*
X803Y2193D02*
Y2117D01*
X842D01*
X854Y2129D01*
Y2180D01*
X842Y2193D01*
X803D01*
X956D02*
Y2117D01*
X994D01*
X1007Y2129D01*
Y2180D01*
X994Y2193D01*
X956D01*
X1032D02*
X1083D01*
X1057D01*
Y2117D01*
X1108D02*
Y2193D01*
X1146D01*
X1159Y2180D01*
Y2155D01*
X1146Y2142D01*
X1108D01*
X1134D02*
X1159Y2117D01*
X1260Y2193D02*
Y2117D01*
X1299D01*
X1311Y2129D01*
Y2180D01*
X1299Y2193D01*
X1260D01*
X1387Y2180D02*
X1375Y2193D01*
X1349D01*
X1337Y2180D01*
Y2167D01*
X1349Y2155D01*
X1375D01*
X1387Y2142D01*
Y2129D01*
X1375Y2117D01*
X1349D01*
X1337Y2129D01*
X1413Y2117D02*
Y2193D01*
X1451D01*
X1464Y2180D01*
Y2155D01*
X1451Y2142D01*
X1413D01*
X1438D02*
X1464Y2117D01*
X1565D02*
Y2193D01*
X1603D01*
X1616Y2180D01*
Y2155D01*
X1603Y2142D01*
X1565D01*
X1591D02*
X1616Y2117D01*
X1641Y2193D02*
X1692D01*
X1667D01*
Y2117D01*
X1768Y2180D02*
X1756Y2193D01*
X1730D01*
X1718Y2180D01*
Y2167D01*
X1730Y2155D01*
X1756D01*
X1768Y2142D01*
Y2129D01*
X1756Y2117D01*
X1730D01*
X1718Y2129D01*
X1921Y2180D02*
X1908Y2193D01*
X1883D01*
X1870Y2180D01*
Y2129D01*
X1883Y2117D01*
X1908D01*
X1921Y2129D01*
X1946Y2193D02*
X1997D01*
X1971D01*
Y2117D01*
X2073Y2180D02*
X2060Y2193D01*
X2035D01*
X2022Y2180D01*
Y2167D01*
X2035Y2155D01*
X2060D01*
X2073Y2142D01*
Y2129D01*
X2060Y2117D01*
X2035D01*
X2022Y2129D01*
X2225Y2180D02*
X2213Y2193D01*
X2187D01*
X2175Y2180D01*
Y2167D01*
X2187Y2155D01*
X2213D01*
X2225Y2142D01*
Y2129D01*
X2213Y2117D01*
X2187D01*
X2175Y2129D01*
X2251Y2193D02*
Y2129D01*
X2263Y2117D01*
X2289D01*
X2302Y2129D01*
Y2193D01*
X2378Y2180D02*
X2365Y2193D01*
X2340D01*
X2327Y2180D01*
Y2167D01*
X2340Y2155D01*
X2365D01*
X2378Y2142D01*
Y2129D01*
X2365Y2117D01*
X2340D01*
X2327Y2129D01*
X2403Y2117D02*
Y2193D01*
X2441D01*
X2454Y2180D01*
Y2155D01*
X2441Y2142D01*
X2403D01*
X2530Y2193D02*
X2479D01*
Y2117D01*
X2530D01*
X2479Y2155D02*
X2505D01*
X2555Y2117D02*
Y2193D01*
X2606Y2117D01*
Y2193D01*
X2632D02*
Y2117D01*
X2670D01*
X2682Y2129D01*
Y2180D01*
X2670Y2193D01*
X2632D01*
X711Y1168D02*
X660D01*
X686D01*
Y1041D01*
X660Y1016D01*
X635D01*
X610Y1041D01*
X762Y1016D02*
X813D01*
X787D01*
Y1168D01*
X762Y1143D01*
X1562Y1727D02*
Y1600D01*
X1588Y1575D01*
X1638D01*
X1664Y1600D01*
Y1727D01*
X1714Y1575D02*
X1765D01*
X1740D01*
Y1727D01*
X1714Y1702D01*
X2578Y1041D02*
Y1194D01*
X2654D01*
X2680Y1168D01*
Y1118D01*
X2654Y1092D01*
X2578D01*
X2629D02*
X2680Y1041D01*
X2832Y1194D02*
X2730D01*
Y1118D01*
X2781Y1143D01*
X2807D01*
X2832Y1118D01*
Y1067D01*
X2807Y1041D01*
X2756D01*
X2730Y1067D01*
X3175Y914D02*
Y1067D01*
X3251D01*
X3277Y1041D01*
Y991D01*
X3251Y965D01*
X3175D01*
X3226D02*
X3277Y914D01*
X3404D02*
Y1067D01*
X3327Y991D01*
X3429D01*
X3175Y1511D02*
Y1664D01*
X3251D01*
X3277Y1638D01*
Y1588D01*
X3251Y1562D01*
X3175D01*
X3226D02*
X3277Y1511D01*
X3327Y1638D02*
X3353Y1664D01*
X3404D01*
X3429Y1638D01*
Y1613D01*
X3404Y1588D01*
X3378D01*
X3404D01*
X3429Y1562D01*
Y1537D01*
X3404Y1511D01*
X3353D01*
X3327Y1537D01*
X1054Y1524D02*
Y1676D01*
X1130D01*
X1156Y1651D01*
Y1600D01*
X1130Y1575D01*
X1054D01*
X1105D02*
X1156Y1524D01*
X1308D02*
X1206D01*
X1308Y1626D01*
Y1651D01*
X1283Y1676D01*
X1232D01*
X1206Y1651D01*
X2159Y978D02*
Y1130D01*
X2235D01*
X2261Y1105D01*
Y1054D01*
X2235Y1029D01*
X2159D01*
X2210D02*
X2261Y978D01*
X2311D02*
X2362D01*
X2337D01*
Y1130D01*
X2311Y1105D01*
X2946Y864D02*
Y711D01*
X3048D01*
X3200Y864D02*
X3099D01*
Y711D01*
X3200D01*
X3099Y787D02*
X3150D01*
X3251Y864D02*
Y711D01*
X3327D01*
X3353Y737D01*
Y838D01*
X3327Y864D01*
X3251D01*
X3404Y838D02*
X3429Y864D01*
X3480D01*
X3505Y838D01*
Y813D01*
X3480Y787D01*
X3454D01*
X3480D01*
X3505Y762D01*
Y737D01*
X3480Y711D01*
X3429D01*
X3404Y737D01*
X3023Y2095D02*
Y1943D01*
X3124D01*
X3277Y2095D02*
X3175D01*
Y1943D01*
X3277D01*
X3175Y2019D02*
X3226D01*
X3327Y2095D02*
Y1943D01*
X3404D01*
X3429Y1969D01*
Y2070D01*
X3404Y2095D01*
X3327D01*
X3581Y1943D02*
X3480D01*
X3581Y2045D01*
Y2070D01*
X3556Y2095D01*
X3505D01*
X3480Y2070D01*
X1448Y2045D02*
Y1892D01*
X1549D01*
X1702Y2045D02*
X1600D01*
Y1892D01*
X1702D01*
X1600Y1968D02*
X1651D01*
X1753Y2045D02*
Y1892D01*
X1829D01*
X1854Y1918D01*
Y2019D01*
X1829Y2045D01*
X1753D01*
X1905Y1892D02*
X1956D01*
X1930D01*
Y2045D01*
X1905Y2019D01*
X673Y191D02*
Y140D01*
Y165D01*
X800D01*
X825Y140D01*
Y114D01*
X800Y89D01*
X825Y241D02*
X673D01*
Y317D01*
X699Y343D01*
X749D01*
X775Y317D01*
Y241D01*
X825Y470D02*
X673D01*
X749Y394D01*
Y495D01*
X432Y2565D02*
X381D01*
X406D01*
Y2438D01*
X381Y2413D01*
X356D01*
X330Y2438D01*
X483Y2413D02*
Y2565D01*
X559D01*
X584Y2540D01*
Y2489D01*
X559Y2464D01*
X483D01*
X635Y2540D02*
X660Y2565D01*
X711D01*
X737Y2540D01*
Y2515D01*
X711Y2489D01*
X686D01*
X711D01*
X737Y2464D01*
Y2438D01*
X711Y2413D01*
X660D01*
X635Y2438D01*
X3708Y229D02*
X3658D01*
X3683D01*
Y102D01*
X3658Y76D01*
X3632D01*
X3607Y102D01*
X3759Y76D02*
Y229D01*
X3835D01*
X3861Y203D01*
Y152D01*
X3835Y127D01*
X3759D01*
X4013Y76D02*
X3912D01*
X4013Y178D01*
Y203D01*
X3988Y229D01*
X3937D01*
X3912Y203D01*
X4001Y279D02*
Y229D01*
Y254D01*
X4127D01*
X4153Y229D01*
Y203D01*
X4127Y178D01*
X4153Y330D02*
X4001D01*
Y406D01*
X4026Y432D01*
X4077D01*
X4102Y406D01*
Y330D01*
X4153Y483D02*
Y533D01*
Y508D01*
X4001D01*
X4026Y483D01*
X1207Y1118D02*
X1181Y1143D01*
X1130D01*
X1105Y1118D01*
Y1016D01*
X1130Y991D01*
X1181D01*
X1207Y1016D01*
X1333Y991D02*
Y1143D01*
X1257Y1067D01*
X1359D01*
X2388Y838D02*
X2362Y864D01*
X2311D01*
X2286Y838D01*
Y737D01*
X2311Y711D01*
X2362D01*
X2388Y737D01*
X2438Y838D02*
X2464Y864D01*
X2515D01*
X2540Y838D01*
Y813D01*
X2515Y787D01*
X2489D01*
X2515D01*
X2540Y762D01*
Y737D01*
X2515Y711D01*
X2464D01*
X2438Y737D01*
X1740Y940D02*
X1715Y965D01*
X1664D01*
X1638Y940D01*
Y838D01*
X1664Y813D01*
X1715D01*
X1740Y838D01*
X1892Y813D02*
X1791D01*
X1892Y914D01*
Y940D01*
X1867Y965D01*
X1816D01*
X1791Y940D01*
X1232Y1346D02*
X1207Y1372D01*
X1156D01*
X1130Y1346D01*
Y1245D01*
X1156Y1219D01*
X1207D01*
X1232Y1245D01*
X1283Y1219D02*
X1333D01*
X1308D01*
Y1372D01*
X1283Y1346D01*
M02*
