G04*
G04 #@! TF.GenerationSoftware,Altium Limited,Altium Designer,21.0.8 (223)*
G04*
G04 Layer_Color=128*
%FSLAX42Y42*%
%MOMM*%
G71*
G04*
G04 #@! TF.SameCoordinates,3342F10C-20B5-45E4-B721-DC8BC5ABD3D0*
G04*
G04*
G04 #@! TF.FilePolarity,Positive*
G04*
G01*
G75*
%ADD52C,0.05*%
D52*
X-54Y880D02*
X-4D01*
X-29Y855D02*
Y905D01*
X506Y880D02*
X556D01*
X531Y855D02*
Y905D01*
X-54Y1780D02*
X-4D01*
X-29Y1755D02*
Y1805D01*
X506Y1780D02*
X556D01*
X531Y1755D02*
Y1805D01*
X361Y1090D02*
X401D01*
X381Y1070D02*
Y1110D01*
X361Y1170D02*
X401D01*
X381Y1150D02*
Y1190D01*
X361Y1250D02*
X401D01*
X381Y1230D02*
Y1270D01*
X361Y1570D02*
X401D01*
X381Y1550D02*
Y1590D01*
X361Y1490D02*
X401D01*
X381Y1470D02*
Y1510D01*
X361Y1410D02*
X401D01*
X381Y1390D02*
Y1430D01*
X431Y1290D02*
X471D01*
X451Y1270D02*
Y1310D01*
X431Y1210D02*
X471D01*
X451Y1190D02*
Y1230D01*
X431Y1025D02*
X471D01*
X451Y1005D02*
Y1045D01*
X431Y1635D02*
X471D01*
X451Y1615D02*
Y1655D01*
X431Y1450D02*
X471D01*
X451Y1430D02*
Y1470D01*
X431Y1370D02*
X471D01*
X451Y1350D02*
Y1390D01*
X348Y957D02*
X414D01*
X381Y925D02*
Y990D01*
X348Y1702D02*
X414D01*
X381Y1670D02*
Y1735D01*
X2343Y229D02*
X2433D01*
X2388Y184D02*
Y274D01*
X2597Y229D02*
X2687D01*
X2642Y184D02*
Y274D01*
X2851Y229D02*
X2941D01*
X2896Y184D02*
Y274D01*
X3105Y229D02*
X3195D01*
X3150Y184D02*
Y274D01*
X3359Y229D02*
X3449D01*
X3404Y184D02*
Y274D01*
X971Y432D02*
X1061D01*
X1016Y387D02*
Y477D01*
X971Y178D02*
X1061D01*
X1016Y133D02*
Y223D01*
X1225Y178D02*
X1315D01*
X1270Y133D02*
Y223D01*
X1225Y432D02*
X1315D01*
X1270Y387D02*
Y477D01*
X1479Y178D02*
X1569D01*
X1524Y133D02*
Y223D01*
X1479Y432D02*
X1569D01*
X1524Y387D02*
Y477D01*
X1733Y178D02*
X1823D01*
X1778Y133D02*
Y223D01*
X1733Y432D02*
X1823D01*
X1778Y387D02*
Y477D01*
X3956Y1626D02*
X4046D01*
X4001Y1581D02*
Y1671D01*
X3956Y1372D02*
X4046D01*
X4001Y1327D02*
Y1417D01*
X3956Y1118D02*
X4046D01*
X4001Y1073D02*
Y1163D01*
X3956Y864D02*
X4046D01*
X4001Y819D02*
Y909D01*
X1174Y2451D02*
X1264D01*
X1219Y2406D02*
Y2496D01*
X1428Y2451D02*
X1518D01*
X1473Y2406D02*
Y2496D01*
X1682Y2451D02*
X1772D01*
X1727Y2406D02*
Y2496D01*
X1936Y2451D02*
X2026D01*
X1981Y2406D02*
Y2496D01*
X2190Y2451D02*
X2280D01*
X2235Y2406D02*
Y2496D01*
X2444Y2451D02*
X2534D01*
X2489Y2406D02*
Y2496D01*
X920Y2451D02*
X1010D01*
X965Y2406D02*
Y2496D01*
X1421Y835D02*
X1452D01*
X1437Y820D02*
Y851D01*
X1674Y775D02*
X1704D01*
X1689Y759D02*
Y790D01*
X759Y1575D02*
X790D01*
X775Y1560D02*
Y1590D01*
X671Y1384D02*
X701D01*
X686Y1369D02*
Y1400D01*
X836Y1194D02*
X866D01*
X851Y1179D02*
Y1209D01*
X1648Y1588D02*
X1679D01*
X1664Y1572D02*
Y1603D01*
X1433Y1372D02*
X1463D01*
X1448Y1356D02*
Y1387D01*
X2648Y923D02*
X2678D01*
X2663Y908D02*
Y938D01*
X3236Y1778D02*
X3266D01*
X3251Y1763D02*
Y1793D01*
X2075Y1987D02*
X2105D01*
X2090Y1972D02*
Y2002D01*
X2385Y1295D02*
X2416D01*
X2400Y1280D02*
Y1311D01*
X2512Y1029D02*
X2543D01*
X2527Y1013D02*
Y1044D01*
X3680Y1219D02*
X3711D01*
X3696Y1204D02*
Y1234D01*
X2131Y1016D02*
X2162D01*
X2146Y1001D02*
Y1031D01*
X1877Y1041D02*
X1908D01*
X1892Y1026D02*
Y1057D01*
X2410Y1460D02*
X2441D01*
X2426Y1445D02*
Y1476D01*
X1763Y1181D02*
X1793D01*
X1778Y1166D02*
Y1196D01*
X1864Y952D02*
X1895D01*
X1880Y937D02*
Y968D01*
X2001Y1926D02*
X2032D01*
X2017Y1911D02*
Y1941D01*
X3452Y1600D02*
X3482D01*
X3467Y1585D02*
Y1615D01*
X3719Y1041D02*
X3749D01*
X3734Y1026D02*
Y1057D01*
X2360Y660D02*
X2390D01*
X2375Y645D02*
Y676D01*
X1255Y902D02*
X1285D01*
X1270Y886D02*
Y917D01*
M02*
