G04*
G04 #@! TF.GenerationSoftware,Altium Limited,Altium Designer,21.0.8 (223)*
G04*
G04 Layer_Color=255*
%FSLAX42Y42*%
%MOMM*%
G71*
G04*
G04 #@! TF.SameCoordinates,3342F10C-20B5-45E4-B721-DC8BC5ABD3D0*
G04*
G04*
G04 #@! TF.FilePolarity,Positive*
G04*
G01*
G75*
%ADD41O,2.00X1.00*%
%ADD42C,0.65*%
%ADD43R,1.70X1.70*%
%ADD44C,1.70*%
%ADD45C,1.60*%
%ADD46R,1.60X1.60*%
%ADD47R,1.70X1.70*%
D41*
X-29Y880D02*
D03*
X531D02*
D03*
X-29Y1780D02*
D03*
X531D02*
D03*
D42*
X381Y1090D02*
D03*
Y1170D02*
D03*
Y1250D02*
D03*
Y1570D02*
D03*
Y1490D02*
D03*
Y1410D02*
D03*
X451Y1290D02*
D03*
Y1210D02*
D03*
Y1025D02*
D03*
Y1635D02*
D03*
Y1450D02*
D03*
Y1370D02*
D03*
X381Y957D02*
D03*
Y1702D02*
D03*
D43*
X2388Y229D02*
D03*
X2489Y2451D02*
D03*
D44*
X2642Y229D02*
D03*
X2896D02*
D03*
X3150D02*
D03*
X3404D02*
D03*
X4001Y1626D02*
D03*
Y1372D02*
D03*
Y1118D02*
D03*
X1219Y2451D02*
D03*
X1473D02*
D03*
X1727D02*
D03*
X1981D02*
D03*
X2235D02*
D03*
X965D02*
D03*
D45*
X1016Y432D02*
D03*
Y178D02*
D03*
X1270D02*
D03*
Y432D02*
D03*
X1524Y178D02*
D03*
Y432D02*
D03*
X1778Y178D02*
D03*
D46*
Y432D02*
D03*
D47*
X4001Y864D02*
D03*
M02*
