G04*
G04 #@! TF.GenerationSoftware,Altium Limited,Altium Designer,21.0.8 (223)*
G04*
G04 Layer_Color=32896*
%FSLAX42Y42*%
%MOMM*%
G71*
G04*
G04 #@! TF.SameCoordinates,3342F10C-20B5-45E4-B721-DC8BC5ABD3D0*
G04*
G04*
G04 #@! TF.FilePolarity,Positive*
G04*
G01*
G75*
%ADD14C,0.25*%
G36*
X3967Y2516D02*
X3984Y2513D01*
X3990Y2511D01*
X3994Y2510D01*
X3997Y2508D01*
X3999D01*
X4010Y2501D01*
X4019Y2493D01*
X4036Y2477D01*
X4048Y2462D01*
X4055Y2449D01*
X4061Y2437D01*
X4063Y2428D01*
X4064Y2422D01*
Y2419D01*
Y2060D01*
X4063Y2057D01*
X3030D01*
X3013Y2066D01*
X3001Y2077D01*
X2993Y2086D01*
X2987Y2096D01*
X2984Y2104D01*
X2981Y2109D01*
Y2114D01*
Y2115D01*
Y2514D01*
Y2516D01*
X2982Y2517D01*
X3951D01*
X3967Y2516D01*
D02*
G37*
G36*
X292Y921D02*
X304Y918D01*
X309Y916D01*
X312Y915D01*
X314Y913D01*
X315D01*
X319Y911D01*
X320Y910D01*
X329Y902D01*
X335Y894D01*
X340Y888D01*
X341Y887D01*
Y886D01*
X625Y394D01*
X626D01*
Y393D01*
X628Y389D01*
X630Y386D01*
X631Y384D01*
Y383D01*
X632Y381D01*
X633Y377D01*
X634Y374D01*
Y373D01*
X635Y363D01*
Y353D01*
X633Y345D01*
X631Y337D01*
X629Y331D01*
X627Y326D01*
X626Y323D01*
X625Y322D01*
Y321D01*
X621Y315D01*
X620Y314D01*
X619Y313D01*
X614Y308D01*
X613Y306D01*
X612Y305D01*
X603Y298D01*
X595Y294D01*
X586Y290D01*
X578Y288D01*
X572Y287D01*
X567Y286D01*
X-12D01*
X-15Y287D01*
X-21D01*
X-24Y288D01*
X-27Y289D01*
X-28D01*
X-38Y293D01*
X-46Y298D01*
X-53Y304D01*
X-58Y309D01*
X-62Y315D01*
X-65Y318D01*
X-67Y321D01*
X-68Y322D01*
X-69D01*
X-71Y326D01*
X-72Y329D01*
X-73Y331D01*
Y332D01*
X-74Y336D01*
X-75Y339D01*
X-76Y341D01*
Y342D01*
X-77Y353D01*
Y363D01*
X-76Y372D01*
X-74Y379D01*
X-72Y386D01*
X-70Y391D01*
X-69Y394D01*
X-68Y395D01*
X215Y887D01*
X220Y893D01*
X221Y895D01*
X222Y896D01*
X224Y899D01*
X226Y901D01*
X228Y903D01*
X229Y904D01*
X237Y910D01*
X245Y915D01*
X254Y918D01*
X261Y921D01*
X268Y922D01*
X273Y923D01*
X278D01*
X292Y921D01*
D02*
G37*
G36*
X303Y184D02*
X292D01*
Y255D01*
X244Y184D01*
X232D01*
Y274D01*
X243D01*
Y203D01*
X291Y274D01*
X303D01*
Y184D01*
D02*
G37*
G36*
X2D02*
X-9D01*
Y255D01*
X-57Y184D01*
X-68D01*
Y274D01*
X-58D01*
Y203D01*
X-10Y274D01*
X2D01*
Y184D01*
D02*
G37*
G36*
X625D02*
X613D01*
X603Y211D01*
X566D01*
X555Y184D01*
X541D01*
X577Y274D01*
X590D01*
X625Y184D01*
D02*
G37*
G36*
X548Y263D02*
X518D01*
Y184D01*
X506D01*
Y263D01*
X476D01*
Y274D01*
X548D01*
Y263D01*
D02*
G37*
G36*
X470D02*
X441D01*
Y184D01*
X429D01*
Y263D01*
X399D01*
Y274D01*
X470D01*
Y263D01*
D02*
G37*
G36*
X387Y184D02*
X320D01*
Y194D01*
X375D01*
Y225D01*
X324D01*
Y235D01*
X375D01*
Y263D01*
X321D01*
Y274D01*
X387D01*
Y184D01*
D02*
G37*
G36*
X219Y263D02*
X190D01*
Y184D01*
X177D01*
Y263D01*
X147D01*
Y274D01*
X219D01*
Y263D01*
D02*
G37*
G36*
X133Y184D02*
X121D01*
Y274D01*
X133D01*
Y184D01*
D02*
G37*
G36*
X68Y275D02*
X73Y274D01*
X83Y270D01*
X86Y267D01*
X89Y265D01*
X90Y264D01*
X91Y263D01*
X95Y258D01*
X98Y252D01*
X102Y241D01*
X103Y236D01*
X104Y232D01*
Y229D01*
Y228D01*
X103Y219D01*
X101Y212D01*
X99Y207D01*
X98Y205D01*
X94Y198D01*
X89Y192D01*
X85Y189D01*
X83Y189D01*
X75Y186D01*
X68Y184D01*
X63Y183D01*
X61D01*
X52Y184D01*
X45Y186D01*
X41Y187D01*
X39Y188D01*
X32Y192D01*
X27Y198D01*
X24Y202D01*
X23Y204D01*
X20Y212D01*
X19Y220D01*
X18Y226D01*
Y227D01*
Y228D01*
X19Y238D01*
X20Y246D01*
X22Y251D01*
X23Y253D01*
X27Y260D01*
X32Y266D01*
X36Y269D01*
X38Y270D01*
X46Y274D01*
X53Y275D01*
X59Y276D01*
X61D01*
X68Y275D01*
D02*
G37*
G36*
X394Y169D02*
X396Y168D01*
X397D01*
X401Y166D01*
X403Y163D01*
X405Y161D01*
Y160D01*
X407Y155D01*
X408Y151D01*
Y148D01*
Y147D01*
X407Y139D01*
X406Y136D01*
Y135D01*
X404Y132D01*
X401Y130D01*
X400Y128D01*
X399D01*
X395Y126D01*
X391Y125D01*
X386D01*
X382Y126D01*
X378Y127D01*
X375Y128D01*
X374Y129D01*
X371Y131D01*
X369Y135D01*
X368Y138D01*
Y139D01*
X374Y140D01*
X375Y136D01*
X377Y134D01*
X378Y132D01*
X379D01*
X381Y131D01*
X384Y130D01*
X387D01*
X392Y131D01*
X395D01*
X399Y135D01*
X400Y136D01*
Y137D01*
X402Y144D01*
Y146D01*
Y147D01*
X401Y153D01*
X400Y155D01*
Y156D01*
X399Y159D01*
X397Y161D01*
X396Y163D01*
X395D01*
X392Y164D01*
X389Y165D01*
X386D01*
X381Y164D01*
X379Y163D01*
X377Y161D01*
X375Y159D01*
X374Y157D01*
Y156D01*
X369Y157D01*
X370Y161D01*
X372Y164D01*
X374Y166D01*
X375Y167D01*
X379Y169D01*
X382Y170D01*
X391D01*
X394Y169D01*
D02*
G37*
G36*
X47D02*
X49Y168D01*
X50D01*
X54Y166D01*
X56Y163D01*
X58Y161D01*
Y160D01*
X60Y155D01*
X61Y151D01*
Y148D01*
Y147D01*
X60Y143D01*
X59Y139D01*
X58Y136D01*
Y135D01*
X56Y132D01*
X54Y130D01*
X52Y128D01*
X51D01*
X47Y126D01*
X43Y125D01*
X39D01*
X34Y126D01*
X30Y127D01*
X28Y128D01*
X27Y129D01*
X24Y131D01*
X22Y135D01*
X21Y138D01*
Y139D01*
X27Y140D01*
X28Y136D01*
X29Y134D01*
X30Y132D01*
X31D01*
X37Y130D01*
X40D01*
X45Y131D01*
X48D01*
X52Y135D01*
X53Y136D01*
Y137D01*
X55Y144D01*
Y146D01*
Y147D01*
X54Y153D01*
X53Y155D01*
Y156D01*
X52Y159D01*
X50Y161D01*
X49Y163D01*
X48D01*
X42Y165D01*
X39D01*
X34Y164D01*
X32Y163D01*
X30Y161D01*
X28Y159D01*
X27Y157D01*
Y156D01*
X21Y157D01*
X23Y161D01*
X25Y164D01*
X27Y166D01*
X28Y167D01*
X31Y169D01*
X35Y170D01*
X43D01*
X47Y169D01*
D02*
G37*
G36*
X525Y125D02*
X491D01*
Y130D01*
X519D01*
Y145D01*
X494D01*
Y150D01*
X519D01*
Y164D01*
X492D01*
Y170D01*
X525D01*
Y125D01*
D02*
G37*
G36*
X483D02*
X455D01*
Y130D01*
X477D01*
Y170D01*
X483D01*
Y125D01*
D02*
G37*
G36*
X447D02*
X414D01*
Y130D01*
X442D01*
Y145D01*
X417D01*
Y150D01*
X442D01*
Y164D01*
X416D01*
Y170D01*
X447D01*
Y125D01*
D02*
G37*
G36*
X364Y164D02*
X349D01*
Y125D01*
X343D01*
Y164D01*
X328D01*
Y170D01*
X364D01*
Y164D01*
D02*
G37*
G36*
X321Y125D02*
X316D01*
Y144D01*
X304D01*
X303Y143D01*
X302D01*
X301Y142D01*
X300Y141D01*
Y140D01*
X299Y139D01*
X298Y137D01*
X296Y135D01*
Y134D01*
X290Y125D01*
X282D01*
X290Y137D01*
X294Y141D01*
X295Y143D01*
X298Y144D01*
X299Y145D01*
X294Y146D01*
X291Y147D01*
X290Y149D01*
X289D01*
X287Y152D01*
X286Y154D01*
Y156D01*
Y157D01*
X287Y162D01*
X288Y164D01*
X291Y168D01*
X292Y169D01*
X293D01*
X299Y170D01*
X321D01*
Y125D01*
D02*
G37*
G36*
X263Y169D02*
X268Y167D01*
X272Y165D01*
X273Y164D01*
X276Y159D01*
X277Y153D01*
X278Y148D01*
Y147D01*
Y146D01*
Y142D01*
X277Y138D01*
X276Y136D01*
Y135D01*
X274Y132D01*
X271Y130D01*
X269Y128D01*
X268D01*
X265Y126D01*
X261Y125D01*
X253D01*
X249Y126D01*
X247Y127D01*
X246D01*
X240Y132D01*
X239Y134D01*
X238Y135D01*
X236Y139D01*
X235Y143D01*
Y146D01*
Y147D01*
Y152D01*
X236Y156D01*
X237Y158D01*
X238Y159D01*
X240Y163D01*
X243Y165D01*
X244Y167D01*
X245D01*
X249Y169D01*
X253Y170D01*
X257D01*
X263Y169D01*
D02*
G37*
G36*
X219D02*
X220D01*
X224Y166D01*
X226Y165D01*
Y164D01*
X228Y160D01*
Y159D01*
Y158D01*
X227Y154D01*
X226Y153D01*
Y152D01*
X225Y151D01*
X223Y149D01*
X222Y148D01*
X221D01*
X219Y147D01*
X216Y146D01*
X213Y145D01*
X212D01*
X208Y144D01*
X206Y143D01*
X204D01*
X201Y141D01*
X200Y140D01*
X199Y138D01*
Y137D01*
Y136D01*
Y134D01*
X200Y133D01*
X203Y131D01*
X204Y130D01*
X217D01*
X219Y132D01*
X221Y133D01*
X222Y134D01*
X224Y137D01*
Y139D01*
X229D01*
X228Y133D01*
X227Y132D01*
Y131D01*
X222Y128D01*
X221Y127D01*
X220D01*
X213Y125D01*
X210D01*
X204Y126D01*
X202Y127D01*
X201D01*
X197Y129D01*
X195Y130D01*
X194Y135D01*
Y137D01*
X194Y142D01*
X195Y143D01*
X199Y147D01*
X200Y148D01*
X201D01*
X204Y149D01*
X207Y150D01*
X210Y151D01*
X211D01*
X215Y152D01*
X218Y153D01*
X220Y154D01*
X222Y157D01*
Y158D01*
X221Y160D01*
X220Y162D01*
X219Y163D01*
X217Y164D01*
X215Y165D01*
X208D01*
X206Y164D01*
X204Y163D01*
X202Y161D01*
X201Y159D01*
X200Y157D01*
Y156D01*
X195Y157D01*
X196Y162D01*
X197Y164D01*
X201Y168D01*
X202Y169D01*
X203D01*
X209Y170D01*
X217D01*
X219Y169D01*
D02*
G37*
G36*
X190Y164D02*
X175D01*
Y125D01*
X169D01*
Y164D01*
X154D01*
Y170D01*
X190D01*
Y164D01*
D02*
G37*
G36*
X157Y125D02*
X151D01*
X146Y138D01*
X127D01*
X121Y125D01*
X114D01*
X133Y170D01*
X140D01*
X157Y125D01*
D02*
G37*
G36*
X118Y164D02*
X103D01*
Y125D01*
X97D01*
Y164D01*
X82D01*
Y170D01*
X118D01*
Y164D01*
D02*
G37*
G36*
X75Y125D02*
X69D01*
Y170D01*
X75D01*
Y125D01*
D02*
G37*
G36*
X475Y64D02*
X469D01*
Y99D01*
X446Y64D01*
X440D01*
Y109D01*
X446D01*
Y74D01*
X469Y109D01*
X475D01*
Y64D01*
D02*
G37*
G36*
X113D02*
X106D01*
X89Y109D01*
X95D01*
X107Y76D01*
X109Y71D01*
X110Y70D01*
Y71D01*
X111Y73D01*
X112Y75D01*
Y76D01*
X124Y109D01*
X130D01*
X113Y64D01*
D02*
G37*
G36*
X302D02*
X296D01*
X278Y109D01*
X284D01*
X296Y76D01*
X298Y71D01*
X299Y70D01*
Y69D01*
X300Y73D01*
X301Y75D01*
Y76D01*
X313Y109D01*
X320D01*
X302Y64D01*
D02*
G37*
G36*
X55Y109D02*
X57Y108D01*
X58Y107D01*
X64Y102D01*
X65Y100D01*
X66Y99D01*
X68Y91D01*
Y88D01*
Y87D01*
Y82D01*
X67Y78D01*
X66Y76D01*
Y75D01*
X64Y71D01*
X62Y68D01*
X60Y67D01*
X59Y66D01*
X55Y64D01*
X51Y63D01*
X47D01*
X42Y64D01*
X38Y65D01*
X36Y66D01*
X35Y67D01*
X32Y70D01*
X30Y74D01*
X28Y77D01*
Y78D01*
X34Y80D01*
X36Y76D01*
X37Y73D01*
X38Y72D01*
X39Y71D01*
X42Y69D01*
X45Y68D01*
X48D01*
X53Y69D01*
X54Y70D01*
X55D01*
X57Y72D01*
X59Y74D01*
X60Y76D01*
Y77D01*
X62Y84D01*
Y86D01*
Y87D01*
X61Y93D01*
Y95D01*
Y96D01*
X60Y99D01*
X58Y101D01*
X57Y102D01*
X56D01*
X53Y104D01*
X50Y105D01*
X47D01*
X41Y104D01*
X40Y103D01*
X39D01*
X37Y101D01*
X36Y98D01*
X35Y96D01*
Y95D01*
X29Y97D01*
X31Y101D01*
X33Y104D01*
X35Y106D01*
X36Y107D01*
X39Y109D01*
X43Y110D01*
X51D01*
X55Y109D01*
D02*
G37*
G36*
X517Y64D02*
X483D01*
Y69D01*
X511D01*
Y84D01*
X486D01*
Y90D01*
X511D01*
Y104D01*
X485D01*
Y109D01*
X517D01*
Y64D01*
D02*
G37*
G36*
X387D02*
X381D01*
Y109D01*
X387D01*
Y64D01*
D02*
G37*
G36*
X374Y104D02*
X359D01*
Y64D01*
X353D01*
Y104D01*
X338D01*
Y109D01*
X374D01*
Y104D01*
D02*
G37*
G36*
X331Y64D02*
X324D01*
Y109D01*
X331D01*
Y64D01*
D02*
G37*
G36*
X273D02*
X239D01*
Y69D01*
X267D01*
Y84D01*
X242D01*
Y90D01*
X267D01*
Y104D01*
X240D01*
Y109D01*
X273D01*
Y64D01*
D02*
G37*
G36*
X213D02*
X190D01*
X186Y66D01*
X185Y67D01*
X182Y69D01*
X180Y71D01*
X178Y76D01*
X177Y77D01*
Y78D01*
X176Y81D01*
Y84D01*
Y86D01*
Y87D01*
Y91D01*
X177Y94D01*
X178Y96D01*
Y97D01*
X181Y103D01*
X182Y104D01*
X183Y105D01*
X188Y108D01*
X189Y109D01*
X213D01*
Y64D01*
D02*
G37*
G36*
X168D02*
X134D01*
Y69D01*
X162D01*
Y84D01*
X137D01*
Y90D01*
X162D01*
Y104D01*
X135D01*
Y109D01*
X168D01*
Y64D01*
D02*
G37*
G36*
X82D02*
X76D01*
Y109D01*
X82D01*
Y64D01*
D02*
G37*
G36*
X21D02*
X-13D01*
Y69D01*
X15D01*
Y84D01*
X-11D01*
Y90D01*
X15D01*
Y104D01*
X-12D01*
Y109D01*
X21D01*
Y64D01*
D02*
G37*
G36*
X549Y109D02*
X551Y108D01*
X552D01*
X556Y106D01*
X558Y105D01*
Y104D01*
X560Y99D01*
Y98D01*
Y97D01*
X559Y93D01*
Y92D01*
X556Y88D01*
X554Y87D01*
X551Y86D01*
X548D01*
X546Y85D01*
X545D01*
X539Y83D01*
X538Y82D01*
X537D01*
X534Y81D01*
X533Y80D01*
X531Y77D01*
Y76D01*
X532Y73D01*
X533Y72D01*
X535Y70D01*
X536Y69D01*
X537D01*
X541Y68D01*
X543D01*
X548Y69D01*
X549Y70D01*
X550D01*
X553Y72D01*
X554Y73D01*
X556Y77D01*
Y78D01*
Y79D01*
X562Y78D01*
X561Y75D01*
X560Y73D01*
X559Y71D01*
Y70D01*
X557Y68D01*
X555Y66D01*
X554Y65D01*
X553D01*
X546Y63D01*
X542D01*
X536Y64D01*
X535Y65D01*
X534D01*
X529Y68D01*
X528Y70D01*
X526Y75D01*
Y76D01*
Y77D01*
X527Y81D01*
X528Y83D01*
X532Y87D01*
X533Y88D01*
X534D01*
X537Y89D01*
X540Y90D01*
X543Y91D01*
X544D01*
X548Y92D01*
X551Y93D01*
X553Y94D01*
X554Y97D01*
Y98D01*
X553Y102D01*
X552Y103D01*
X550Y104D01*
X547Y105D01*
X541D01*
X538Y104D01*
X537Y103D01*
X536Y102D01*
X534Y100D01*
X533Y98D01*
Y97D01*
Y96D01*
X527D01*
X528Y102D01*
X529Y103D01*
Y104D01*
X533Y107D01*
X534Y108D01*
X535D01*
X541Y110D01*
X544D01*
X549Y109D01*
D02*
G37*
G36*
X420D02*
X422Y108D01*
X423D01*
X427Y106D01*
X429Y105D01*
Y104D01*
X431Y99D01*
Y98D01*
Y97D01*
X430Y93D01*
X429Y92D01*
X428Y90D01*
X426Y88D01*
X425Y87D01*
X424D01*
X422Y86D01*
X419D01*
X417Y85D01*
X416D01*
X410Y83D01*
X408Y82D01*
X407D01*
X404Y81D01*
X403Y80D01*
X402Y77D01*
Y76D01*
Y73D01*
X403Y72D01*
X406Y70D01*
X407Y69D01*
X411Y68D01*
X413D01*
X418Y69D01*
X419Y70D01*
X420D01*
X422Y71D01*
X424Y72D01*
X425Y73D01*
X426Y77D01*
X427Y79D01*
X432Y78D01*
X431Y73D01*
X430Y71D01*
Y70D01*
X428Y68D01*
X426Y66D01*
X424Y65D01*
X423D01*
X416Y63D01*
X413D01*
X407Y64D01*
X405Y65D01*
X404D01*
X402Y66D01*
X400Y68D01*
X398Y69D01*
Y70D01*
X396Y75D01*
Y76D01*
Y77D01*
X397Y81D01*
X398Y83D01*
X402Y87D01*
X403Y88D01*
X404D01*
X411Y90D01*
X413Y91D01*
X414D01*
X418Y92D01*
X421Y93D01*
X423Y94D01*
X425Y96D01*
Y98D01*
X424Y100D01*
X423Y102D01*
X422Y103D01*
X420Y104D01*
X417Y105D01*
X411D01*
X408Y104D01*
X407Y103D01*
X406Y102D01*
X405Y101D01*
X404Y99D01*
X403Y97D01*
Y96D01*
X398D01*
X399Y102D01*
X400Y103D01*
Y104D01*
X404Y107D01*
X405Y108D01*
X406D01*
X412Y110D01*
X415D01*
X420Y109D01*
D02*
G37*
%LPC*%
G36*
X3204Y2383D02*
X3199D01*
X3189Y2382D01*
X3180Y2380D01*
X3174Y2376D01*
X3171Y2373D01*
X3168Y2370D01*
X3167Y2367D01*
Y2365D01*
Y2364D01*
X3162D01*
X3155Y2370D01*
X3146Y2376D01*
X3129Y2380D01*
X3123Y2382D01*
X3118Y2383D01*
X3113D01*
X3101Y2382D01*
X3092Y2379D01*
X3085Y2376D01*
X3080Y2371D01*
X3077Y2365D01*
X3076Y2362D01*
Y2360D01*
Y2358D01*
Y2357D01*
Y2354D01*
X3079Y2343D01*
X3082Y2330D01*
X3085Y2316D01*
X3088Y2301D01*
X3091Y2290D01*
X3092Y2281D01*
X3094Y2279D01*
Y2278D01*
X3098Y2261D01*
X3104Y2248D01*
X3113Y2239D01*
X3120Y2233D01*
X3129Y2230D01*
X3137Y2229D01*
X3141Y2227D01*
X3164D01*
X3159Y2245D01*
X3155Y2260D01*
X3152Y2273D01*
X3149Y2285D01*
X3146Y2296D01*
X3144Y2304D01*
X3141Y2318D01*
X3140Y2327D01*
X3138Y2333D01*
Y2336D01*
Y2340D01*
X3140Y2343D01*
X3143Y2345D01*
X3159D01*
X3162Y2343D01*
X3164Y2340D01*
X3167Y2334D01*
X3170Y2327D01*
X3176Y2307D01*
X3182Y2287D01*
X3186Y2264D01*
X3190Y2245D01*
X3192Y2237D01*
X3193Y2232D01*
X3195Y2229D01*
Y2227D01*
X3253D01*
X3248Y2245D01*
X3244Y2260D01*
X3241Y2275D01*
X3238Y2287D01*
X3235Y2297D01*
X3232Y2306D01*
X3229Y2321D01*
X3228Y2330D01*
X3226Y2336D01*
Y2339D01*
Y2340D01*
X3228Y2343D01*
X3231Y2345D01*
X3247D01*
X3250Y2343D01*
X3253Y2340D01*
X3256Y2334D01*
X3259Y2327D01*
X3265Y2307D01*
X3271Y2287D01*
X3275Y2264D01*
X3280Y2245D01*
X3281Y2237D01*
X3283Y2232D01*
X3284Y2229D01*
Y2227D01*
X3341D01*
X3304Y2379D01*
X3247D01*
X3248Y2365D01*
Y2364D01*
X3241Y2370D01*
X3232Y2376D01*
X3217Y2380D01*
X3210Y2382D01*
X3204Y2383D01*
D02*
G37*
G36*
X3476Y2379D02*
X3420D01*
X3445Y2272D01*
X3443Y2267D01*
X3442Y2264D01*
X3440Y2263D01*
X3423D01*
X3421Y2264D01*
X3418Y2267D01*
X3415Y2273D01*
X3412Y2281D01*
X3408Y2300D01*
X3402Y2321D01*
X3396Y2342D01*
X3393Y2361D01*
X3390Y2368D01*
Y2374D01*
X3388Y2377D01*
Y2379D01*
X3332D01*
X3368Y2227D01*
X3426D01*
X3423Y2234D01*
X3421Y2239D01*
Y2240D01*
Y2242D01*
X3423D01*
X3430Y2236D01*
X3437Y2232D01*
X3452Y2227D01*
X3457Y2226D01*
X3461Y2224D01*
X3466D01*
X3479Y2226D01*
X3490Y2229D01*
X3496Y2232D01*
X3501Y2237D01*
X3504Y2242D01*
X3506Y2245D01*
Y2248D01*
Y2249D01*
Y2252D01*
X3504Y2257D01*
X3503Y2264D01*
X3501Y2273D01*
X3497Y2294D01*
X3491Y2316D01*
X3485Y2340D01*
X3481Y2360D01*
X3479Y2367D01*
X3478Y2373D01*
X3476Y2377D01*
Y2379D01*
D02*
G37*
G36*
X3074Y2245D02*
X3068D01*
X3067Y2234D01*
X3065D01*
X3058Y2245D01*
X3056D01*
Y2227D01*
X3058D01*
Y2234D01*
X3061D01*
Y2230D01*
X3062Y2229D01*
X3064Y2227D01*
X3067D01*
Y2233D01*
X3070D01*
Y2227D01*
X3074D01*
Y2245D01*
D02*
G37*
G36*
X3823Y2428D02*
X3798D01*
X3796Y2400D01*
X3795Y2373D01*
Y2349D01*
X3793Y2328D01*
Y2309D01*
X3792Y2293D01*
Y2279D01*
Y2267D01*
X3790Y2257D01*
Y2248D01*
Y2240D01*
Y2236D01*
Y2229D01*
Y2227D01*
X3856D01*
Y2236D01*
X3854Y2246D01*
X3853Y2255D01*
Y2257D01*
Y2258D01*
Y2260D01*
X3854Y2261D01*
X3856Y2263D01*
X3899D01*
X3902Y2261D01*
X3903Y2257D01*
X3906Y2251D01*
X3909Y2245D01*
X3912Y2237D01*
X3914Y2233D01*
X3915Y2229D01*
Y2227D01*
X3982D01*
X3972Y2248D01*
X3961Y2267D01*
X3952Y2284D01*
X3945Y2297D01*
X3938Y2310D01*
X3932Y2321D01*
X3927Y2330D01*
X3923Y2337D01*
X3917Y2349D01*
X3914Y2355D01*
X3911Y2358D01*
Y2360D01*
X3906Y2371D01*
X3900Y2382D01*
X3887Y2400D01*
X3872Y2412D01*
X3856Y2419D01*
X3842Y2425D01*
X3830Y2426D01*
X3823Y2428D01*
D02*
G37*
G36*
X3726D02*
X3671D01*
X3676Y2410D01*
X3679Y2398D01*
X3682Y2388D01*
X3683Y2382D01*
X3685Y2377D01*
X3686Y2376D01*
Y2374D01*
X3692Y2349D01*
X3698Y2325D01*
X3702Y2306D01*
X3707Y2290D01*
X3710Y2275D01*
X3713Y2263D01*
X3716Y2254D01*
X3719Y2245D01*
X3720Y2239D01*
X3722Y2234D01*
X3723Y2230D01*
X3725Y2227D01*
X3778D01*
X3769Y2263D01*
X3762Y2294D01*
X3756Y2321D01*
X3750Y2343D01*
X3746Y2362D01*
X3741Y2379D01*
X3737Y2392D01*
X3734Y2403D01*
X3732Y2412D01*
X3731Y2418D01*
X3729Y2422D01*
X3728Y2425D01*
X3726Y2428D01*
D02*
G37*
G36*
X3557Y2379D02*
X3500D01*
X3503Y2365D01*
X3506Y2357D01*
X3509Y2349D01*
X3510Y2345D01*
Y2342D01*
X3512Y2340D01*
X3516Y2321D01*
X3519Y2303D01*
X3524Y2288D01*
X3527Y2275D01*
X3530Y2264D01*
X3531Y2255D01*
X3534Y2248D01*
X3536Y2242D01*
X3539Y2233D01*
X3540Y2229D01*
X3542Y2227D01*
X3594D01*
Y2230D01*
X3592Y2236D01*
X3591Y2243D01*
X3588Y2254D01*
X3585Y2264D01*
X3582Y2278D01*
X3574Y2306D01*
X3568Y2333D01*
X3565Y2345D01*
X3562Y2357D01*
X3560Y2365D01*
X3558Y2373D01*
X3557Y2377D01*
Y2379D01*
D02*
G37*
G36*
X3089Y2245D02*
X3076D01*
Y2242D01*
X3079D01*
X3080Y2240D01*
X3082Y2239D01*
Y2227D01*
X3085D01*
Y2239D01*
X3089Y2245D01*
D02*
G37*
G36*
X3646Y2426D02*
X3589D01*
X3592Y2413D01*
X3595Y2403D01*
X3597Y2395D01*
X3598Y2389D01*
X3600Y2386D01*
Y2383D01*
Y2382D01*
Y2380D01*
X3577D01*
X3580Y2368D01*
X3582Y2360D01*
X3585Y2354D01*
X3586Y2349D01*
X3588Y2346D01*
Y2345D01*
X3607D01*
X3609Y2343D01*
X3610Y2342D01*
X3613Y2333D01*
X3616Y2321D01*
X3619Y2307D01*
X3622Y2293D01*
X3623Y2281D01*
X3626Y2272D01*
Y2270D01*
Y2269D01*
Y2266D01*
X3625Y2263D01*
X3607D01*
X3615Y2233D01*
X3616Y2230D01*
X3619Y2229D01*
X3629Y2227D01*
X3640Y2226D01*
X3644D01*
X3659Y2227D01*
X3670Y2229D01*
X3677Y2232D01*
X3682Y2236D01*
X3685Y2239D01*
X3687Y2242D01*
Y2243D01*
Y2245D01*
Y2251D01*
Y2255D01*
X3686Y2261D01*
X3683Y2272D01*
X3682Y2284D01*
X3677Y2297D01*
X3674Y2312D01*
X3667Y2343D01*
X3659Y2374D01*
X3655Y2388D01*
X3652Y2401D01*
X3650Y2412D01*
X3647Y2419D01*
X3646Y2425D01*
Y2426D01*
D02*
G37*
G36*
X3869Y2184D02*
X3862D01*
Y2178D01*
X3869D01*
Y2184D01*
D02*
G37*
G36*
X3545D02*
X3537D01*
Y2178D01*
X3545D01*
Y2184D01*
D02*
G37*
G36*
X3359D02*
X3351D01*
Y2178D01*
X3359D01*
Y2184D01*
D02*
G37*
G36*
X3167D02*
X3159D01*
Y2178D01*
X3167D01*
Y2184D01*
D02*
G37*
G36*
X3074Y2185D02*
X3068D01*
Y2184D01*
X3067Y2181D01*
Y2179D01*
Y2178D01*
X3065D01*
X3058Y2185D01*
X3056D01*
Y2171D01*
X3058D01*
Y2176D01*
X3061D01*
Y2173D01*
X3062Y2172D01*
X3064Y2171D01*
X3067D01*
Y2175D01*
X3070D01*
Y2171D01*
X3074D01*
Y2185D01*
D02*
G37*
G36*
X3851Y2172D02*
X3845D01*
X3844Y2171D01*
X3839Y2172D01*
X3833D01*
X3830Y2171D01*
X3827Y2169D01*
Y2168D01*
Y2145D01*
X3835D01*
Y2163D01*
X3836Y2166D01*
X3838Y2168D01*
X3842D01*
X3844Y2166D01*
Y2165D01*
Y2163D01*
Y2145D01*
X3851D01*
Y2172D01*
D02*
G37*
G36*
X3634D02*
X3628D01*
X3626Y2171D01*
X3622Y2172D01*
X3621D01*
Y2165D01*
X3625Y2163D01*
X3628Y2159D01*
X3629Y2153D01*
Y2151D01*
Y2145D01*
X3634D01*
Y2172D01*
D02*
G37*
G36*
X3579D02*
X3571D01*
X3570Y2171D01*
X3565Y2172D01*
X3560D01*
X3557Y2171D01*
X3554Y2166D01*
Y2163D01*
Y2162D01*
Y2145D01*
X3561D01*
Y2163D01*
Y2165D01*
X3562Y2166D01*
X3564Y2168D01*
X3567D01*
X3570Y2166D01*
X3571Y2162D01*
Y2157D01*
Y2156D01*
Y2145D01*
X3579D01*
Y2172D01*
D02*
G37*
G36*
X3338D02*
X3327D01*
X3326Y2171D01*
X3321Y2172D01*
X3317D01*
Y2153D01*
X3318Y2144D01*
X3321Y2138D01*
X3324Y2135D01*
X3326Y2133D01*
X3336D01*
X3338Y2135D01*
X3339Y2136D01*
X3341Y2138D01*
Y2141D01*
X3332Y2139D01*
X3330D01*
X3327Y2141D01*
X3326Y2142D01*
Y2144D01*
Y2147D01*
X3329D01*
X3330Y2145D01*
X3332D01*
X3339Y2147D01*
X3342Y2151D01*
X3344Y2156D01*
Y2157D01*
Y2160D01*
X3342Y2166D01*
X3339Y2169D01*
X3338Y2172D01*
D02*
G37*
G36*
X3116D02*
X3112D01*
X3109Y2171D01*
X3104Y2172D01*
X3101D01*
Y2165D01*
X3106D01*
X3107Y2163D01*
X3109Y2162D01*
Y2145D01*
X3116D01*
Y2172D01*
D02*
G37*
G36*
X3089Y2185D02*
X3076D01*
Y2184D01*
X3079Y2182D01*
X3080Y2178D01*
X3082Y2172D01*
Y2171D01*
X3083D01*
X3085Y2178D01*
X3086Y2182D01*
X3088Y2184D01*
X3089D01*
Y2185D01*
D02*
G37*
G36*
X3930Y2172D02*
X3915D01*
X3912Y2171D01*
X3911Y2166D01*
Y2163D01*
Y2162D01*
Y2145D01*
X3915Y2147D01*
X3917D01*
X3921Y2145D01*
X3929D01*
X3932Y2148D01*
X3933Y2150D01*
X3935Y2151D01*
Y2156D01*
X3933Y2157D01*
X3932Y2160D01*
X3926Y2162D01*
X3920Y2163D01*
X3917D01*
Y2165D01*
X3918Y2166D01*
X3920Y2168D01*
X3923D01*
X3932Y2165D01*
Y2169D01*
X3930Y2172D01*
D02*
G37*
G36*
X3900Y2185D02*
X3893D01*
Y2165D01*
X3891D01*
X3884Y2172D01*
X3876D01*
X3885Y2160D01*
X3875Y2145D01*
X3882D01*
X3884Y2147D01*
X3887Y2150D01*
X3890Y2153D01*
X3891Y2154D01*
X3893D01*
Y2145D01*
X3900D01*
Y2185D01*
D02*
G37*
G36*
X3220Y2172D02*
X3208D01*
X3204Y2169D01*
X3202Y2165D01*
X3201Y2162D01*
Y2160D01*
Y2145D01*
X3216D01*
X3225Y2147D01*
Y2156D01*
X3223Y2157D01*
X3222Y2160D01*
X3216Y2162D01*
X3211Y2163D01*
X3208D01*
X3210Y2166D01*
X3211Y2168D01*
X3214D01*
X3223Y2165D01*
Y2169D01*
X3222Y2171D01*
X3220Y2172D01*
D02*
G37*
G36*
X3984Y2181D02*
X3975D01*
X3973Y2179D01*
X3972Y2178D01*
X3967Y2169D01*
X3966Y2162D01*
X3964Y2159D01*
Y2157D01*
X3961D01*
Y2159D01*
X3960Y2162D01*
X3958Y2171D01*
X3957Y2178D01*
X3955Y2179D01*
Y2181D01*
X3943D01*
Y2145D01*
X3951D01*
Y2165D01*
X3954D01*
X3955Y2160D01*
X3957Y2154D01*
X3958Y2148D01*
X3960Y2147D01*
Y2145D01*
X3964D01*
X3966Y2147D01*
X3967Y2148D01*
X3970Y2156D01*
X3972Y2162D01*
Y2163D01*
Y2165D01*
X3976D01*
Y2145D01*
X3984D01*
Y2181D01*
D02*
G37*
G36*
X3710Y2172D02*
X3701D01*
X3696Y2169D01*
X3695Y2166D01*
X3693Y2165D01*
Y2156D01*
X3710D01*
Y2154D01*
X3708Y2151D01*
X3698D01*
X3695Y2153D01*
Y2145D01*
X3704D01*
X3710Y2147D01*
X3714Y2150D01*
X3717Y2151D01*
Y2153D01*
Y2165D01*
X3714Y2169D01*
X3711Y2171D01*
X3710Y2172D01*
D02*
G37*
G36*
X3408D02*
X3402D01*
X3397Y2169D01*
X3396Y2165D01*
X3394Y2162D01*
Y2160D01*
Y2156D01*
X3411D01*
Y2154D01*
X3409Y2153D01*
X3408Y2151D01*
X3399D01*
X3396Y2153D01*
Y2148D01*
X3397Y2145D01*
X3411D01*
X3415Y2150D01*
X3418Y2154D01*
X3420Y2156D01*
Y2157D01*
X3418Y2166D01*
X3412Y2171D01*
X3408Y2172D01*
D02*
G37*
G36*
X3143D02*
X3132D01*
X3129Y2169D01*
X3126Y2165D01*
Y2162D01*
Y2160D01*
Y2156D01*
X3143D01*
Y2154D01*
X3141Y2153D01*
X3140Y2151D01*
X3131D01*
X3128Y2153D01*
Y2148D01*
X3129Y2145D01*
X3143D01*
X3147Y2150D01*
X3150Y2154D01*
X3152Y2156D01*
Y2157D01*
X3150Y2165D01*
X3147Y2169D01*
X3144Y2171D01*
X3143Y2172D01*
D02*
G37*
G36*
X3869D02*
X3862D01*
Y2145D01*
X3869D01*
Y2172D01*
D02*
G37*
G36*
X3811D02*
X3792D01*
Y2147D01*
X3793Y2141D01*
X3795Y2136D01*
X3798Y2135D01*
X3799Y2133D01*
X3812D01*
X3814Y2135D01*
X3815Y2136D01*
X3817Y2138D01*
Y2141D01*
X3807Y2139D01*
X3805D01*
X3804Y2141D01*
X3802Y2142D01*
X3801Y2144D01*
X3799D01*
X3802Y2147D01*
X3805Y2145D01*
X3811D01*
X3815Y2148D01*
X3817Y2151D01*
X3818Y2153D01*
Y2165D01*
X3815Y2169D01*
X3812Y2171D01*
X3811Y2172D01*
D02*
G37*
G36*
X3765Y2181D02*
X3743D01*
Y2176D01*
X3756D01*
X3757Y2175D01*
Y2173D01*
Y2172D01*
Y2171D01*
X3756Y2168D01*
X3744D01*
Y2162D01*
X3756D01*
X3757Y2160D01*
Y2159D01*
Y2157D01*
Y2154D01*
X3756Y2151D01*
X3743D01*
Y2145D01*
X3765D01*
Y2181D01*
D02*
G37*
G36*
X3734Y2185D02*
X3726D01*
Y2145D01*
X3734D01*
Y2185D01*
D02*
G37*
G36*
X3674Y2172D02*
X3665D01*
Y2168D01*
X3673Y2166D01*
X3677Y2165D01*
X3679Y2163D01*
Y2162D01*
Y2156D01*
X3677Y2153D01*
X3671Y2151D01*
X3665D01*
Y2145D01*
X3673D01*
X3680Y2147D01*
X3685Y2151D01*
X3686Y2156D01*
Y2157D01*
Y2160D01*
X3685Y2168D01*
X3679Y2171D01*
X3674Y2172D01*
D02*
G37*
G36*
X3650Y2179D02*
X3649Y2175D01*
X3647Y2173D01*
X3644Y2172D01*
Y2168D01*
X3647D01*
X3649Y2166D01*
Y2165D01*
Y2163D01*
Y2154D01*
X3647Y2153D01*
X3644Y2151D01*
X3641D01*
Y2145D01*
X3650D01*
X3655Y2147D01*
Y2154D01*
X3656Y2159D01*
X3658Y2165D01*
X3661Y2168D01*
X3662D01*
Y2172D01*
X3659Y2173D01*
X3655Y2176D01*
X3652Y2178D01*
X3650Y2179D01*
D02*
G37*
G36*
X3603Y2172D02*
X3600D01*
X3594Y2171D01*
X3589Y2168D01*
X3588Y2165D01*
X3586Y2163D01*
Y2154D01*
X3591Y2150D01*
X3595Y2147D01*
X3598Y2145D01*
X3601D01*
X3607Y2147D01*
X3612Y2150D01*
X3615Y2151D01*
Y2153D01*
Y2165D01*
X3612Y2169D01*
X3607Y2171D01*
X3603Y2172D01*
D02*
G37*
G36*
X3545D02*
X3537D01*
Y2145D01*
X3545D01*
Y2172D01*
D02*
G37*
G36*
X3521D02*
X3507D01*
Y2171D01*
X3515Y2166D01*
X3519Y2165D01*
X3521Y2162D01*
Y2156D01*
X3519Y2153D01*
X3513Y2151D01*
X3507D01*
Y2145D01*
X3515D01*
X3521Y2147D01*
X3525Y2150D01*
X3528Y2151D01*
Y2153D01*
Y2165D01*
X3525Y2169D01*
X3522Y2171D01*
X3521Y2172D01*
D02*
G37*
G36*
X3498D02*
X3484D01*
Y2168D01*
X3490D01*
X3493Y2166D01*
X3496Y2165D01*
X3494Y2163D01*
X3490Y2162D01*
X3485Y2160D01*
X3484D01*
Y2151D01*
X3485Y2148D01*
X3488Y2147D01*
X3490Y2145D01*
X3501D01*
Y2151D01*
X3497D01*
X3494Y2153D01*
X3491D01*
X3501Y2162D01*
Y2168D01*
X3500Y2171D01*
X3498Y2172D01*
D02*
G37*
G36*
X3457Y2181D02*
X3439D01*
X3433Y2178D01*
X3429Y2173D01*
X3426Y2168D01*
Y2166D01*
Y2165D01*
Y2159D01*
X3429Y2154D01*
X3434Y2148D01*
X3440Y2145D01*
X3457D01*
Y2181D01*
D02*
G37*
G36*
X3382Y2172D02*
X3368D01*
Y2171D01*
X3369Y2169D01*
X3373Y2166D01*
X3378Y2165D01*
X3379D01*
X3372Y2160D01*
X3369Y2159D01*
X3368Y2156D01*
Y2151D01*
X3369Y2148D01*
X3372Y2147D01*
X3373Y2145D01*
X3387D01*
Y2151D01*
X3381D01*
X3378Y2153D01*
X3375D01*
X3387Y2162D01*
Y2168D01*
X3384Y2171D01*
X3382Y2172D01*
D02*
G37*
G36*
X3359D02*
X3351D01*
Y2145D01*
X3359D01*
Y2172D01*
D02*
G37*
G36*
X3308D02*
X3289D01*
X3286Y2171D01*
X3284Y2169D01*
Y2168D01*
Y2145D01*
X3289D01*
Y2156D01*
X3290Y2162D01*
X3292Y2165D01*
X3293Y2168D01*
X3295D01*
X3298Y2166D01*
X3299Y2163D01*
X3301Y2162D01*
Y2145D01*
X3308D01*
Y2172D01*
D02*
G37*
G36*
X3256Y2181D02*
X3234D01*
Y2176D01*
X3244D01*
X3245Y2175D01*
X3247Y2173D01*
Y2172D01*
Y2171D01*
X3245Y2169D01*
X3244Y2168D01*
X3234D01*
Y2162D01*
X3244D01*
X3245Y2160D01*
X3247Y2159D01*
Y2157D01*
Y2154D01*
X3245Y2153D01*
X3244Y2151D01*
X3234D01*
Y2145D01*
X3256D01*
Y2181D01*
D02*
G37*
G36*
X3189Y2172D02*
X3176D01*
Y2168D01*
X3180D01*
X3183Y2166D01*
X3186Y2165D01*
X3179Y2160D01*
X3176Y2156D01*
X3174Y2154D01*
Y2153D01*
X3177Y2148D01*
X3180Y2147D01*
X3182Y2145D01*
X3193D01*
Y2151D01*
X3189D01*
X3186Y2153D01*
X3183D01*
X3184Y2154D01*
X3187Y2157D01*
X3192Y2160D01*
X3193Y2162D01*
Y2168D01*
X3190Y2171D01*
X3189Y2172D01*
D02*
G37*
G36*
X3167D02*
X3159D01*
Y2145D01*
X3167D01*
Y2172D01*
D02*
G37*
%LPD*%
G36*
X3862Y2352D02*
X3869Y2336D01*
X3874Y2322D01*
X3878Y2313D01*
X3881Y2307D01*
Y2304D01*
X3882Y2301D01*
X3856D01*
X3854Y2303D01*
X3853Y2304D01*
X3851Y2313D01*
X3850Y2325D01*
X3848Y2339D01*
Y2352D01*
X3847Y2362D01*
Y2371D01*
Y2373D01*
Y2374D01*
X3851D01*
X3862Y2352D01*
D02*
G37*
G36*
X3335Y2166D02*
X3336Y2163D01*
Y2162D01*
X3335Y2156D01*
X3333Y2153D01*
X3332Y2151D01*
X3330D01*
X3327Y2153D01*
X3326Y2154D01*
X3324Y2156D01*
Y2157D01*
X3326Y2163D01*
X3327Y2166D01*
X3329Y2168D01*
X3332D01*
X3335Y2166D01*
D02*
G37*
G36*
X3926Y2156D02*
X3927Y2154D01*
X3926Y2153D01*
X3924Y2151D01*
X3918D01*
X3917Y2153D01*
Y2154D01*
Y2156D01*
X3918Y2157D01*
X3923D01*
X3926Y2156D01*
D02*
G37*
G36*
X3217D02*
Y2154D01*
Y2151D01*
X3211D01*
X3208Y2153D01*
Y2154D01*
X3210Y2157D01*
X3214D01*
X3217Y2156D01*
D02*
G37*
G36*
X3708Y2166D02*
X3710Y2165D01*
Y2163D01*
Y2162D01*
X3701D01*
Y2163D01*
X3702Y2166D01*
X3704Y2168D01*
X3708D01*
Y2166D01*
D02*
G37*
G36*
X3412Y2165D02*
X3411Y2163D01*
X3409Y2162D01*
X3405D01*
X3402Y2163D01*
X3403Y2166D01*
X3405Y2168D01*
X3408D01*
X3412Y2165D01*
D02*
G37*
G36*
X3144D02*
X3143Y2163D01*
X3141Y2162D01*
X3137D01*
X3132Y2163D01*
Y2165D01*
X3134Y2166D01*
X3135Y2168D01*
X3140D01*
X3144Y2165D01*
D02*
G37*
G36*
X3811Y2166D02*
Y2165D01*
Y2163D01*
Y2156D01*
X3808Y2153D01*
X3807Y2151D01*
X3805D01*
X3802Y2153D01*
X3799Y2154D01*
Y2156D01*
Y2163D01*
Y2165D01*
X3801Y2166D01*
X3802Y2168D01*
X3810D01*
X3811Y2166D01*
D02*
G37*
G36*
X3606D02*
X3607Y2165D01*
Y2163D01*
Y2154D01*
X3606Y2153D01*
X3604Y2151D01*
X3600D01*
X3597Y2153D01*
X3594Y2154D01*
Y2156D01*
Y2162D01*
X3595Y2165D01*
X3598Y2168D01*
X3604D01*
X3606Y2166D01*
D02*
G37*
G36*
X3448Y2175D02*
X3449Y2173D01*
Y2172D01*
Y2154D01*
X3448Y2151D01*
X3442Y2153D01*
X3439Y2156D01*
X3436Y2159D01*
X3434Y2160D01*
Y2163D01*
X3436Y2169D01*
X3439Y2173D01*
X3442Y2176D01*
X3446D01*
X3448Y2175D01*
D02*
G37*
%LPC*%
G36*
X280Y875D02*
X278D01*
Y874D01*
X268Y872D01*
X259Y869D01*
X254Y866D01*
X252Y864D01*
X249Y862D01*
X248Y861D01*
Y860D01*
X246Y856D01*
X245Y855D01*
X244D01*
X152Y694D01*
X184Y682D01*
X194Y679D01*
X202Y678D01*
X206Y677D01*
X222D01*
X232Y678D01*
X274D01*
X282Y677D01*
X290Y675D01*
X296Y674D01*
X300Y673D01*
X303Y672D01*
X304D01*
X311Y669D01*
X319Y666D01*
X332Y657D01*
X338Y653D01*
X343Y650D01*
X346Y648D01*
X347Y647D01*
X350Y645D01*
X355Y642D01*
X358Y640D01*
X360Y639D01*
X364Y637D01*
X365Y636D01*
X366D01*
X368Y635D01*
X369Y634D01*
X376Y629D01*
X381Y625D01*
X384Y623D01*
X385Y622D01*
X391Y617D01*
X395Y613D01*
X397Y611D01*
X398Y610D01*
X440Y634D01*
X313Y854D01*
X309Y859D01*
X305Y864D01*
X302Y866D01*
X301Y867D01*
X300Y868D01*
X299D01*
X298Y869D01*
X291Y873D01*
X285Y874D01*
X280Y875D01*
D02*
G37*
G36*
X147Y686D02*
X92Y592D01*
X97Y588D01*
X99Y587D01*
X100Y586D01*
X104Y581D01*
X108Y575D01*
X111Y572D01*
X112Y570D01*
X115Y565D01*
X117Y558D01*
X119Y553D01*
X120Y552D01*
Y551D01*
X123Y542D01*
X126Y537D01*
X127Y534D01*
X128Y533D01*
X132Y528D01*
X133Y527D01*
X134Y526D01*
X139Y521D01*
X140Y520D01*
X141Y519D01*
X150Y510D01*
X159Y503D01*
X167Y497D01*
X173Y493D01*
X179Y490D01*
X183Y488D01*
X185Y487D01*
X186D01*
X389Y605D01*
X382Y611D01*
X380Y613D01*
X379Y614D01*
X373Y618D01*
X368Y622D01*
X364Y624D01*
X363Y625D01*
X359Y628D01*
X357Y629D01*
X355Y630D01*
X349Y634D01*
X344Y637D01*
X342Y638D01*
X341Y639D01*
X332Y645D01*
X324Y650D01*
X318Y654D01*
X312Y657D01*
X307Y659D01*
X303Y661D01*
X301Y662D01*
X300D01*
X285Y666D01*
X271Y668D01*
X249D01*
X244Y667D01*
X242D01*
X230Y666D01*
X210D01*
X198Y667D01*
X189Y670D01*
X186Y671D01*
X183Y672D01*
X181Y673D01*
X180D01*
X147Y686D01*
D02*
G37*
G36*
X293Y513D02*
X268Y498D01*
X274Y494D01*
X279Y490D01*
X283Y486D01*
X285Y485D01*
X287Y488D01*
X289Y491D01*
X290Y494D01*
X291Y495D01*
X292Y497D01*
X294Y503D01*
Y505D01*
Y506D01*
Y508D01*
Y511D01*
X293Y512D01*
Y513D01*
D02*
G37*
G36*
X320Y529D02*
X303Y519D01*
X304Y514D01*
X305Y510D01*
Y507D01*
Y506D01*
X304Y501D01*
X303Y497D01*
X302Y494D01*
Y493D01*
X301Y491D01*
X298Y485D01*
X296Y481D01*
X294Y479D01*
Y478D01*
X300Y472D01*
X306Y467D01*
X310Y463D01*
X311Y461D01*
X312Y460D01*
X313Y459D01*
X314Y458D01*
X315Y457D01*
X318Y463D01*
X320Y467D01*
X320Y470D01*
X321Y471D01*
X322Y473D01*
X323Y475D01*
X324Y478D01*
Y479D01*
X325Y483D01*
Y488D01*
Y492D01*
Y494D01*
Y495D01*
Y497D01*
Y503D01*
Y508D01*
Y510D01*
Y511D01*
X324Y518D01*
Y520D01*
Y521D01*
X322Y527D01*
X320Y528D01*
Y529D01*
D02*
G37*
G36*
X345Y544D02*
X329Y535D01*
X331Y531D01*
X333Y528D01*
X334Y525D01*
Y524D01*
X335Y519D01*
X336Y515D01*
Y512D01*
Y511D01*
Y505D01*
Y503D01*
Y502D01*
Y497D01*
Y495D01*
Y494D01*
Y486D01*
X335Y481D01*
X334Y478D01*
Y477D01*
Y476D01*
X333Y473D01*
Y472D01*
Y471D01*
X332D01*
X331Y469D01*
X330Y468D01*
Y467D01*
X327Y460D01*
X323Y454D01*
X321Y450D01*
X320Y448D01*
X325Y441D01*
X328Y436D01*
X330Y432D01*
X331Y430D01*
X335Y433D01*
X336Y434D01*
X337D01*
X340Y436D01*
X342Y438D01*
X344Y439D01*
Y440D01*
X345Y441D01*
X346Y441D01*
X347D01*
X350Y442D01*
Y443D01*
X351D01*
X352Y444D01*
X353D01*
Y445D01*
X354Y446D01*
Y448D01*
Y455D01*
X353Y461D01*
X352Y465D01*
Y467D01*
Y474D01*
X354Y482D01*
X356Y488D01*
X357Y490D01*
Y491D01*
X359Y497D01*
X360Y501D01*
X361Y508D01*
Y511D01*
Y512D01*
X359Y516D01*
X357Y520D01*
X355Y524D01*
X354Y525D01*
X350Y533D01*
X347Y539D01*
X345Y543D01*
Y544D01*
D02*
G37*
G36*
X229Y449D02*
X228D01*
X226Y447D01*
X221Y444D01*
X218Y441D01*
X216Y440D01*
Y439D01*
Y438D01*
X215D01*
Y437D01*
X213Y434D01*
Y433D01*
Y432D01*
Y429D01*
X214Y426D01*
X215Y423D01*
Y422D01*
X216D01*
X218Y420D01*
X222Y419D01*
X226D01*
X234Y420D01*
X240Y421D01*
X244Y422D01*
X246D01*
X251Y424D01*
X252Y425D01*
X253D01*
X252Y426D01*
Y427D01*
X251Y428D01*
X247Y434D01*
X244Y439D01*
X241Y441D01*
X240Y441D01*
X237Y444D01*
X233Y446D01*
X230Y448D01*
X229Y449D01*
D02*
G37*
G36*
X409Y580D02*
X355Y550D01*
X356Y544D01*
X359Y538D01*
X362Y533D01*
X363Y532D01*
Y531D01*
X367Y524D01*
X370Y519D01*
X371Y515D01*
Y514D01*
Y511D01*
Y506D01*
X370Y498D01*
X369Y493D01*
X368Y490D01*
X367Y488D01*
Y487D01*
X365Y482D01*
X364Y478D01*
X363Y473D01*
Y471D01*
Y470D01*
X364Y462D01*
Y454D01*
Y449D01*
Y448D01*
Y447D01*
Y445D01*
Y444D01*
X363Y442D01*
Y441D01*
X362Y438D01*
Y436D01*
X361Y432D01*
X360Y430D01*
Y429D01*
X357Y419D01*
X355Y412D01*
X353Y406D01*
Y401D01*
X352Y398D01*
Y396D01*
Y394D01*
X354Y388D01*
X357Y383D01*
X360Y379D01*
X361Y378D01*
X362Y377D01*
X363Y376D01*
Y379D01*
Y381D01*
Y385D01*
Y387D01*
X366Y393D01*
X367Y395D01*
X368Y396D01*
X370Y399D01*
X371Y400D01*
X374Y405D01*
X378Y409D01*
X381Y411D01*
X385Y413D01*
X391Y415D01*
X396D01*
X397Y414D01*
X398D01*
X399Y413D01*
X400D01*
X401Y417D01*
X402Y421D01*
X403Y424D01*
X404Y425D01*
X407Y432D01*
X410Y438D01*
X411Y441D01*
X412Y442D01*
X413Y450D01*
X415Y457D01*
X416Y464D01*
Y465D01*
Y466D01*
X417Y478D01*
X419Y486D01*
X420Y491D01*
Y493D01*
Y494D01*
X421Y497D01*
X422Y500D01*
X423Y502D01*
Y503D01*
X425Y511D01*
X426Y517D01*
X427Y523D01*
Y527D01*
Y530D01*
Y532D01*
Y534D01*
X425Y539D01*
X423Y545D01*
X421Y550D01*
X420Y551D01*
Y552D01*
X414Y564D01*
X411Y572D01*
X409Y578D01*
Y580D01*
D02*
G37*
G36*
X258Y493D02*
X218Y470D01*
X223Y466D01*
X228Y462D01*
X232Y459D01*
X233Y458D01*
X234D01*
X240Y454D01*
X244Y452D01*
X245Y450D01*
X246D01*
X252Y444D01*
X257Y439D01*
X260Y435D01*
X261Y434D01*
Y433D01*
X263Y429D01*
X264Y426D01*
X265Y424D01*
Y423D01*
Y421D01*
X266Y420D01*
Y419D01*
X272Y421D01*
X275D01*
X279Y422D01*
X280Y423D01*
X293D01*
X299Y422D01*
X301D01*
X303Y421D01*
X304D01*
X305Y420D01*
X308D01*
X309Y419D01*
X310D01*
X316Y417D01*
X320Y414D01*
X322Y412D01*
X323Y411D01*
X325Y407D01*
X326Y406D01*
X326Y405D01*
Y406D01*
X326Y406D01*
X325Y414D01*
X322Y423D01*
X319Y431D01*
X315Y439D01*
X311Y445D01*
X307Y450D01*
X304Y453D01*
X303Y454D01*
X295Y463D01*
X287Y470D01*
X282Y474D01*
X281Y476D01*
X280D01*
X271Y483D01*
X264Y488D01*
X260Y492D01*
X258Y493D01*
D02*
G37*
G36*
X256Y415D02*
X254Y414D01*
X252Y413D01*
X250Y412D01*
X246D01*
X244Y411D01*
X241Y406D01*
Y402D01*
Y399D01*
Y398D01*
Y396D01*
X242Y395D01*
Y394D01*
X243Y393D01*
X244Y392D01*
X247Y390D01*
X250Y389D01*
X253D01*
X258Y390D01*
X262Y392D01*
X264Y393D01*
X265Y394D01*
X261Y400D01*
X259Y406D01*
X258Y410D01*
Y411D01*
X257Y414D01*
X256Y415D01*
D02*
G37*
G36*
X289Y418D02*
X281D01*
X275Y416D01*
X271Y415D01*
X269Y414D01*
X268Y413D01*
X269Y408D01*
X272Y402D01*
X276Y397D01*
X277Y396D01*
Y395D01*
X282Y388D01*
X286Y383D01*
X289Y381D01*
X290Y380D01*
X293Y378D01*
X295Y377D01*
X297Y376D01*
X301Y375D01*
X303D01*
X307Y374D01*
X312D01*
X316Y375D01*
X318Y376D01*
X319Y378D01*
X322Y382D01*
X324Y387D01*
X325Y390D01*
Y392D01*
X324Y396D01*
Y397D01*
X321Y402D01*
X320Y405D01*
X320Y407D01*
X316Y410D01*
X312Y412D01*
X309Y414D01*
X307D01*
X306Y415D01*
X303D01*
X302Y416D01*
X298Y417D01*
X293D01*
X289Y418D01*
D02*
G37*
G36*
X397Y409D02*
X389D01*
X386Y407D01*
X380Y404D01*
X376Y400D01*
X375Y399D01*
Y398D01*
X374Y396D01*
Y395D01*
X373Y394D01*
Y393D01*
X370Y388D01*
X369Y386D01*
Y385D01*
X368Y384D01*
Y383D01*
Y382D01*
Y381D01*
Y378D01*
X369Y377D01*
Y376D01*
Y374D01*
X370Y373D01*
X374D01*
X378Y374D01*
X382Y376D01*
X384Y378D01*
X385Y379D01*
X387Y382D01*
X389Y386D01*
X393Y394D01*
X394Y398D01*
X396Y402D01*
X397Y404D01*
Y405D01*
X398Y408D01*
X397Y409D01*
D02*
G37*
G36*
X455Y607D02*
X419Y585D01*
X421Y576D01*
X424Y567D01*
X426Y563D01*
X428Y560D01*
X429Y558D01*
Y557D01*
X433Y548D01*
X435Y542D01*
X437Y538D01*
Y537D01*
X438Y532D01*
Y527D01*
X436Y515D01*
X435Y510D01*
X434Y505D01*
X433Y502D01*
Y501D01*
X432Y497D01*
X431Y493D01*
Y492D01*
Y491D01*
X430Y490D01*
X429Y483D01*
X428Y474D01*
X427Y470D01*
X426Y467D01*
Y465D01*
Y464D01*
X425Y458D01*
X424Y453D01*
X423Y445D01*
X422Y441D01*
Y440D01*
X420Y435D01*
X417Y428D01*
X415Y423D01*
X414Y422D01*
Y421D01*
X412Y417D01*
X411Y413D01*
X409Y409D01*
X408Y407D01*
Y406D01*
Y405D01*
X407Y404D01*
Y403D01*
Y402D01*
X404Y394D01*
X402Y388D01*
X399Y383D01*
X397Y379D01*
X396Y376D01*
X394Y374D01*
X393Y373D01*
X387Y367D01*
X380Y364D01*
X376Y362D01*
X374D01*
X367Y363D01*
X364Y364D01*
X363D01*
X357Y368D01*
X355Y369D01*
X354Y370D01*
X350Y374D01*
X347Y378D01*
X343Y386D01*
X341Y392D01*
Y393D01*
Y394D01*
Y398D01*
X342Y403D01*
X345Y415D01*
X346Y420D01*
X348Y425D01*
X349Y428D01*
Y429D01*
X347Y428D01*
X345Y426D01*
X343Y425D01*
X342D01*
X338Y422D01*
X336Y420D01*
X335Y419D01*
X336Y414D01*
Y409D01*
Y405D01*
Y404D01*
Y403D01*
Y402D01*
Y401D01*
Y394D01*
X334Y387D01*
X333Y382D01*
X331Y378D01*
X328Y372D01*
X326Y370D01*
X322Y367D01*
X318Y365D01*
X314Y364D01*
X302D01*
X295Y366D01*
X293Y367D01*
X292D01*
X286Y370D01*
X285Y372D01*
X284D01*
X279Y376D01*
X275Y380D01*
X272Y384D01*
X271Y385D01*
X265Y382D01*
X259Y380D01*
X255Y379D01*
X254D01*
X247Y380D01*
X241Y382D01*
X237Y384D01*
X236Y385D01*
X235Y386D01*
X233Y389D01*
X232Y391D01*
X231Y395D01*
X230Y396D01*
Y401D01*
Y405D01*
X231Y408D01*
Y409D01*
X226D01*
X217Y410D01*
X211Y412D01*
X208Y414D01*
X207Y415D01*
X206Y418D01*
X205Y419D01*
X204Y424D01*
X203Y428D01*
X202Y430D01*
Y431D01*
X203Y436D01*
X204Y440D01*
X206Y442D01*
X207Y443D01*
X208Y444D01*
Y445D01*
X213Y450D01*
X216Y453D01*
X218Y454D01*
X219Y455D01*
X212Y461D01*
X210Y463D01*
X209Y464D01*
X-14Y335D01*
X-11Y333D01*
X-7Y331D01*
X-4Y330D01*
X-1D01*
X1Y329D01*
X8D01*
Y328D01*
X548D01*
X554Y329D01*
X559Y330D01*
X567Y334D01*
X572Y337D01*
X573Y339D01*
X574D01*
X577Y342D01*
X578Y343D01*
X581Y347D01*
X582Y348D01*
X586Y358D01*
X587Y367D01*
Y371D01*
X586Y373D01*
Y375D01*
Y376D01*
X585Y380D01*
Y381D01*
X583Y385D01*
X582Y386D01*
Y387D01*
X455Y607D01*
D02*
G37*
G36*
X87Y583D02*
X-26Y388D01*
X-29Y382D01*
X-30Y377D01*
X-31Y373D01*
Y372D01*
Y371D01*
Y369D01*
Y368D01*
Y364D01*
Y362D01*
X174Y480D01*
X167Y484D01*
X160Y489D01*
X146Y499D01*
X141Y504D01*
X137Y507D01*
X134Y510D01*
X133Y511D01*
X130Y514D01*
X128Y517D01*
X126Y519D01*
X125Y520D01*
X122Y525D01*
X120Y526D01*
Y527D01*
X116Y533D01*
X113Y539D01*
X111Y545D01*
X110Y546D01*
Y547D01*
X107Y555D01*
X105Y561D01*
X103Y564D01*
Y565D01*
X99Y570D01*
X95Y575D01*
X93Y577D01*
X92Y578D01*
X89Y582D01*
X87Y583D01*
D02*
G37*
G36*
X584Y264D02*
X582Y258D01*
X580Y252D01*
X579Y248D01*
X578Y246D01*
X569Y221D01*
X599D01*
X589Y247D01*
X587Y253D01*
X585Y259D01*
X584Y263D01*
Y264D01*
D02*
G37*
G36*
X63Y265D02*
X61D01*
X55Y264D01*
X50Y263D01*
X46Y262D01*
X45Y261D01*
X40Y257D01*
X36Y253D01*
X35Y249D01*
X34Y248D01*
X32Y241D01*
X30Y235D01*
Y230D01*
Y229D01*
Y228D01*
X31Y217D01*
X34Y208D01*
X38Y203D01*
X39Y201D01*
X46Y196D01*
X53Y193D01*
X59Y192D01*
X61D01*
X69Y193D01*
X76Y197D01*
X80Y200D01*
X82Y201D01*
X87Y209D01*
X90Y218D01*
X91Y224D01*
Y226D01*
Y227D01*
Y234D01*
X90Y241D01*
X88Y246D01*
X86Y250D01*
X83Y255D01*
X82Y257D01*
X75Y262D01*
X68Y264D01*
X63Y265D01*
D02*
G37*
G36*
X316Y165D02*
X299D01*
X297Y164D01*
X295Y163D01*
X293Y161D01*
X292Y159D01*
Y158D01*
Y157D01*
X293Y154D01*
X294Y153D01*
X296Y151D01*
X297Y150D01*
X302Y149D01*
X316D01*
Y165D01*
D02*
G37*
G36*
X261D02*
X257D01*
X251Y164D01*
X250Y163D01*
X249D01*
X244Y159D01*
X243Y158D01*
Y157D01*
X241Y150D01*
Y148D01*
Y147D01*
X242Y141D01*
X243Y137D01*
X245Y134D01*
X246Y133D01*
X249Y131D01*
X253Y130D01*
X257D01*
X262Y131D01*
X265Y132D01*
X267Y133D01*
X268D01*
X270Y137D01*
X271Y141D01*
X272Y145D01*
Y146D01*
X271Y153D01*
X270Y157D01*
X269Y160D01*
X268Y161D01*
X264Y163D01*
X261Y165D01*
D02*
G37*
G36*
X137D02*
X136Y162D01*
X135Y159D01*
X133Y157D01*
Y156D01*
X128Y143D01*
X144D01*
X139Y156D01*
X138Y160D01*
X137Y163D01*
Y164D01*
Y165D01*
D02*
G37*
G36*
X207Y104D02*
X192D01*
X191Y103D01*
X190D01*
X188Y102D01*
X186Y100D01*
X185Y99D01*
Y98D01*
X183Y95D01*
X182Y91D01*
Y88D01*
Y87D01*
X183Y81D01*
X184Y79D01*
Y78D01*
X186Y74D01*
X187Y73D01*
Y72D01*
X189Y71D01*
X190Y70D01*
X191D01*
X193Y69D01*
X207D01*
Y104D01*
D02*
G37*
%LPD*%
D14*
X3255Y1702D02*
X3120D01*
X3187D01*
Y1498D01*
X2917Y1702D02*
X3052D01*
Y1498D01*
X2917D01*
X3052Y1600D02*
X2984D01*
X2713Y1668D02*
X2747Y1702D01*
X2815D01*
X2849Y1668D01*
Y1532D01*
X2815Y1498D01*
X2747D01*
X2713Y1532D01*
X2646Y1702D02*
Y1498D01*
Y1600D01*
X2510D01*
Y1702D01*
Y1498D01*
X2138Y1702D02*
X2206D01*
X2239Y1668D01*
Y1532D01*
X2206Y1498D01*
X2138D01*
X2104Y1532D01*
Y1668D01*
X2138Y1702D01*
X2036D02*
X1901D01*
X1969D01*
Y1498D01*
X1833D02*
Y1634D01*
X1765Y1702D01*
X1698Y1634D01*
Y1498D01*
Y1600D01*
X1833D01*
X1630Y1702D02*
Y1498D01*
Y1566D01*
X1495Y1702D01*
X1596Y1600D01*
X1495Y1498D01*
X1427Y1702D02*
Y1532D01*
X1393Y1498D01*
X1325D01*
X1291Y1532D01*
Y1702D01*
X1088Y1668D02*
X1122Y1702D01*
X1190D01*
X1224Y1668D01*
Y1634D01*
X1190Y1600D01*
X1122D01*
X1088Y1566D01*
Y1532D01*
X1122Y1498D01*
X1190D01*
X1224Y1532D01*
X2815Y1363D02*
X2849Y1397D01*
X2917D01*
X2950Y1363D01*
Y1329D01*
X2917Y1295D01*
X2849D01*
X2815Y1261D01*
Y1228D01*
X2849Y1194D01*
X2917D01*
X2950Y1228D01*
X2747Y1194D02*
Y1329D01*
X2680Y1397D01*
X2612Y1329D01*
Y1194D01*
Y1295D01*
X2747D01*
X2544Y1397D02*
Y1261D01*
X2476Y1194D01*
X2409Y1261D01*
Y1397D01*
X2206D02*
X2341D01*
Y1194D01*
X2206D01*
X2341Y1295D02*
X2273D01*
X1935Y1397D02*
X1799D01*
X1867D01*
Y1194D01*
X1732Y1397D02*
Y1194D01*
Y1295D01*
X1596D01*
Y1397D01*
Y1194D01*
X1393Y1397D02*
X1528D01*
Y1194D01*
X1393D01*
X1528Y1295D02*
X1461D01*
X2646Y1092D02*
Y889D01*
X2578Y957D01*
X2510Y889D01*
Y1092D01*
X2341D02*
X2409D01*
X2443Y1058D01*
Y923D01*
X2409Y889D01*
X2341D01*
X2307Y923D01*
Y1058D01*
X2341Y1092D01*
X2239Y889D02*
Y1092D01*
X2138D01*
X2104Y1058D01*
Y991D01*
X2138Y957D01*
X2239D01*
X2172D02*
X2104Y889D01*
X2036Y1092D02*
Y889D01*
X1901D01*
X1833Y1092D02*
Y889D01*
X1732D01*
X1698Y923D01*
Y1058D01*
X1732Y1092D01*
X1833D01*
M02*
