G04*
G04 #@! TF.GenerationSoftware,Altium Limited,Altium Designer,21.0.8 (223)*
G04*
G04 Layer_Color=2752767*
%FSLAX42Y42*%
%MOMM*%
G71*
G04*
G04 #@! TF.SameCoordinates,3342F10C-20B5-45E4-B721-DC8BC5ABD3D0*
G04*
G04*
G04 #@! TF.FilePolarity,Positive*
G04*
G01*
G75*
%ADD52C,0.05*%
%ADD53C,0.07*%
D52*
X-49Y859D02*
Y900D01*
X-9D01*
Y859D01*
X-49D01*
X511D02*
Y900D01*
X551D01*
Y859D01*
X511D01*
X-49Y1759D02*
Y1800D01*
X-9D01*
Y1759D01*
X-49D01*
X511D02*
Y1800D01*
X551D01*
Y1759D01*
X511D01*
X381Y937D02*
X361Y978D01*
X401D01*
X381Y937D01*
Y1682D02*
X361Y1723D01*
X401D01*
X381Y1682D01*
X2388Y208D02*
X2398Y218D01*
X2408D01*
X2398Y229D01*
X2408Y239D01*
X2398D01*
X2388Y249D01*
X2377Y239D01*
X2367D01*
X2377Y229D01*
X2367Y218D01*
X2377D01*
X2388Y208D01*
X2642D02*
X2652Y218D01*
X2662D01*
X2652Y229D01*
X2662Y239D01*
X2652D01*
X2642Y249D01*
X2631Y239D01*
X2621D01*
X2631Y229D01*
X2621Y218D01*
X2631D01*
X2642Y208D01*
X2896D02*
X2906Y218D01*
X2916D01*
X2906Y229D01*
X2916Y239D01*
X2906D01*
X2896Y249D01*
X2885Y239D01*
X2875D01*
X2885Y229D01*
X2875Y218D01*
X2885D01*
X2896Y208D01*
X3150D02*
X3160Y218D01*
X3170D01*
X3160Y229D01*
X3170Y239D01*
X3160D01*
X3150Y249D01*
X3139Y239D01*
X3129D01*
X3139Y229D01*
X3129Y218D01*
X3139D01*
X3150Y208D01*
X3404D02*
X3414Y218D01*
X3424D01*
X3414Y229D01*
X3424Y239D01*
X3414D01*
X3404Y249D01*
X3393Y239D01*
X3383D01*
X3393Y229D01*
X3383Y218D01*
X3393D01*
X3404Y208D01*
X1016Y411D02*
X1026Y422D01*
X1036D01*
X1026Y432D01*
X1036Y442D01*
X1026D01*
X1016Y452D01*
X1006Y442D01*
X996D01*
X1006Y432D01*
X996Y422D01*
X1006D01*
X1016Y411D01*
Y157D02*
X1026Y168D01*
X1036D01*
X1026Y178D01*
X1036Y188D01*
X1026D01*
X1016Y198D01*
X1006Y188D01*
X996D01*
X1006Y178D01*
X996Y168D01*
X1006D01*
X1016Y157D01*
X1270D02*
X1280Y168D01*
X1290D01*
X1280Y178D01*
X1290Y188D01*
X1280D01*
X1270Y198D01*
X1260Y188D01*
X1250D01*
X1260Y178D01*
X1250Y168D01*
X1260D01*
X1270Y157D01*
Y411D02*
X1280Y422D01*
X1290D01*
X1280Y432D01*
X1290Y442D01*
X1280D01*
X1270Y452D01*
X1260Y442D01*
X1250D01*
X1260Y432D01*
X1250Y422D01*
X1260D01*
X1270Y411D01*
X1524Y157D02*
X1534Y168D01*
X1544D01*
X1534Y178D01*
X1544Y188D01*
X1534D01*
X1524Y198D01*
X1514Y188D01*
X1504D01*
X1514Y178D01*
X1504Y168D01*
X1514D01*
X1524Y157D01*
Y411D02*
X1534Y422D01*
X1544D01*
X1534Y432D01*
X1544Y442D01*
X1534D01*
X1524Y452D01*
X1514Y442D01*
X1504D01*
X1514Y432D01*
X1504Y422D01*
X1514D01*
X1524Y411D01*
X1778Y157D02*
X1788Y168D01*
X1798D01*
X1788Y178D01*
X1798Y188D01*
X1788D01*
X1778Y198D01*
X1768Y188D01*
X1758D01*
X1768Y178D01*
X1758Y168D01*
X1768D01*
X1778Y157D01*
Y411D02*
X1788Y422D01*
X1798D01*
X1788Y432D01*
X1798Y442D01*
X1788D01*
X1778Y452D01*
X1768Y442D01*
X1758D01*
X1768Y432D01*
X1758Y422D01*
X1768D01*
X1778Y411D01*
X4001Y1605D02*
X4011Y1615D01*
X4021D01*
X4011Y1626D01*
X4021Y1636D01*
X4011D01*
X4001Y1646D01*
X3990Y1636D01*
X3980D01*
X3990Y1626D01*
X3980Y1615D01*
X3990D01*
X4001Y1605D01*
Y1351D02*
X4011Y1361D01*
X4021D01*
X4011Y1372D01*
X4021Y1382D01*
X4011D01*
X4001Y1392D01*
X3990Y1382D01*
X3980D01*
X3990Y1372D01*
X3980Y1361D01*
X3990D01*
X4001Y1351D01*
Y1097D02*
X4011Y1107D01*
X4021D01*
X4011Y1118D01*
X4021Y1128D01*
X4011D01*
X4001Y1138D01*
X3990Y1128D01*
X3980D01*
X3990Y1118D01*
X3980Y1107D01*
X3990D01*
X4001Y1097D01*
Y843D02*
X4011Y853D01*
X4021D01*
X4011Y864D01*
X4021Y874D01*
X4011D01*
X4001Y884D01*
X3990Y874D01*
X3980D01*
X3990Y864D01*
X3980Y853D01*
X3990D01*
X4001Y843D01*
X1219Y2431D02*
X1229Y2441D01*
X1240D01*
X1229Y2451D01*
X1240Y2461D01*
X1229D01*
X1219Y2471D01*
X1209Y2461D01*
X1199D01*
X1209Y2451D01*
X1199Y2441D01*
X1209D01*
X1219Y2431D01*
X1473D02*
X1483Y2441D01*
X1494D01*
X1483Y2451D01*
X1494Y2461D01*
X1483D01*
X1473Y2471D01*
X1463Y2461D01*
X1453D01*
X1463Y2451D01*
X1453Y2441D01*
X1463D01*
X1473Y2431D01*
X1727D02*
X1737Y2441D01*
X1748D01*
X1737Y2451D01*
X1748Y2461D01*
X1737D01*
X1727Y2471D01*
X1717Y2461D01*
X1707D01*
X1717Y2451D01*
X1707Y2441D01*
X1717D01*
X1727Y2431D01*
X1981D02*
X1991Y2441D01*
X2002D01*
X1991Y2451D01*
X2002Y2461D01*
X1991D01*
X1981Y2471D01*
X1971Y2461D01*
X1961D01*
X1971Y2451D01*
X1961Y2441D01*
X1971D01*
X1981Y2431D01*
X2235D02*
X2245Y2441D01*
X2256D01*
X2245Y2451D01*
X2256Y2461D01*
X2245D01*
X2235Y2471D01*
X2225Y2461D01*
X2215D01*
X2225Y2451D01*
X2215Y2441D01*
X2225D01*
X2235Y2431D01*
X2489D02*
X2499Y2441D01*
X2510D01*
X2499Y2451D01*
X2510Y2461D01*
X2499D01*
X2489Y2471D01*
X2479Y2461D01*
X2469D01*
X2479Y2451D01*
X2469Y2441D01*
X2479D01*
X2489Y2431D01*
X965D02*
X975Y2441D01*
X986D01*
X975Y2451D01*
X986Y2461D01*
X975D01*
X965Y2471D01*
X955Y2461D01*
X945D01*
X955Y2451D01*
X945Y2441D01*
X955D01*
X965Y2431D01*
X1416Y815D02*
X1426Y835D01*
X1416Y856D01*
X1437Y846D01*
X1457Y856D01*
X1447Y835D01*
X1457Y815D01*
X1437Y825D01*
X1416Y815D01*
X1669Y754D02*
X1679Y775D01*
X1669Y795D01*
X1689Y785D01*
X1709Y795D01*
X1699Y775D01*
X1709Y754D01*
X1689Y765D01*
X1669Y754D01*
X754Y1554D02*
X765Y1575D01*
X754Y1595D01*
X775Y1585D01*
X795Y1595D01*
X785Y1575D01*
X795Y1554D01*
X775Y1565D01*
X754Y1554D01*
X665Y1364D02*
X676Y1384D01*
X665Y1405D01*
X686Y1394D01*
X706Y1405D01*
X696Y1384D01*
X706Y1364D01*
X686Y1374D01*
X665Y1364D01*
X831Y1173D02*
X841Y1194D01*
X831Y1214D01*
X851Y1204D01*
X871Y1214D01*
X861Y1194D01*
X871Y1173D01*
X851Y1184D01*
X831Y1173D01*
X1643Y1567D02*
X1654Y1588D01*
X1643Y1608D01*
X1664Y1598D01*
X1684Y1608D01*
X1674Y1588D01*
X1684Y1567D01*
X1664Y1577D01*
X1643Y1567D01*
X1427Y1351D02*
X1438Y1372D01*
X1427Y1392D01*
X1448Y1382D01*
X1468Y1392D01*
X1458Y1372D01*
X1468Y1351D01*
X1448Y1361D01*
X1427Y1351D01*
X2642Y903D02*
X2653Y923D01*
X2642Y943D01*
X2663Y933D01*
X2683Y943D01*
X2673Y923D01*
X2683Y903D01*
X2663Y913D01*
X2642Y903D01*
X3231Y1758D02*
X3241Y1778D01*
X3231Y1798D01*
X3251Y1788D01*
X3272Y1798D01*
X3261Y1778D01*
X3272Y1758D01*
X3251Y1768D01*
X3231Y1758D01*
X2069Y1967D02*
X2080Y1987D01*
X2069Y2007D01*
X2090Y1997D01*
X2110Y2007D01*
X2100Y1987D01*
X2110Y1967D01*
X2090Y1977D01*
X2069Y1967D01*
X2380Y1275D02*
X2390Y1295D01*
X2380Y1316D01*
X2400Y1306D01*
X2421Y1316D01*
X2410Y1295D01*
X2421Y1275D01*
X2400Y1285D01*
X2380Y1275D01*
X2507Y1008D02*
X2517Y1029D01*
X2507Y1049D01*
X2527Y1039D01*
X2548Y1049D01*
X2537Y1029D01*
X2548Y1008D01*
X2527Y1019D01*
X2507Y1008D01*
X3675Y1199D02*
X3686Y1219D01*
X3675Y1240D01*
X3696Y1229D01*
X3716Y1240D01*
X3706Y1219D01*
X3716Y1199D01*
X3696Y1209D01*
X3675Y1199D01*
X2126Y996D02*
X2136Y1016D01*
X2126Y1036D01*
X2146Y1026D01*
X2167Y1036D01*
X2156Y1016D01*
X2167Y996D01*
X2146Y1006D01*
X2126Y996D01*
X1872Y1021D02*
X1882Y1041D01*
X1872Y1062D01*
X1892Y1052D01*
X1913Y1062D01*
X1902Y1041D01*
X1913Y1021D01*
X1892Y1031D01*
X1872Y1021D01*
X2405Y1440D02*
X2416Y1460D01*
X2405Y1481D01*
X2426Y1471D01*
X2446Y1481D01*
X2436Y1460D01*
X2446Y1440D01*
X2426Y1450D01*
X2405Y1440D01*
X1758Y1161D02*
X1768Y1181D01*
X1758Y1201D01*
X1778Y1191D01*
X1798Y1201D01*
X1788Y1181D01*
X1798Y1161D01*
X1778Y1171D01*
X1758Y1161D01*
X1859Y932D02*
X1869Y952D01*
X1859Y973D01*
X1880Y963D01*
X1900Y973D01*
X1890Y952D01*
X1900Y932D01*
X1880Y942D01*
X1859Y932D01*
X1996Y1906D02*
X2006Y1926D01*
X1996Y1946D01*
X2017Y1936D01*
X2037Y1946D01*
X2027Y1926D01*
X2037Y1906D01*
X2017Y1916D01*
X1996Y1906D01*
X3447Y1580D02*
X3457Y1600D01*
X3447Y1621D01*
X3467Y1610D01*
X3487Y1621D01*
X3477Y1600D01*
X3487Y1580D01*
X3467Y1590D01*
X3447Y1580D01*
X3713Y1021D02*
X3724Y1041D01*
X3713Y1062D01*
X3734Y1052D01*
X3754Y1062D01*
X3744Y1041D01*
X3754Y1021D01*
X3734Y1031D01*
X3713Y1021D01*
X2355Y640D02*
X2365Y660D01*
X2355Y681D01*
X2375Y671D01*
X2395Y681D01*
X2385Y660D01*
X2395Y640D01*
X2375Y650D01*
X2355Y640D01*
X1250Y881D02*
X1260Y902D01*
X1250Y922D01*
X1270Y912D01*
X1290Y922D01*
X1280Y902D01*
X1290Y881D01*
X1270Y892D01*
X1250Y881D01*
D53*
X401Y1090D02*
G03*
X401Y1090I-20J0D01*
G01*
Y1170D02*
G03*
X401Y1170I-20J0D01*
G01*
Y1250D02*
G03*
X401Y1250I-20J0D01*
G01*
Y1570D02*
G03*
X401Y1570I-20J0D01*
G01*
Y1490D02*
G03*
X401Y1490I-20J0D01*
G01*
Y1410D02*
G03*
X401Y1410I-20J0D01*
G01*
X471Y1290D02*
G03*
X471Y1290I-20J0D01*
G01*
Y1210D02*
G03*
X471Y1210I-20J0D01*
G01*
Y1025D02*
G03*
X471Y1025I-20J0D01*
G01*
Y1635D02*
G03*
X471Y1635I-20J0D01*
G01*
Y1450D02*
G03*
X471Y1450I-20J0D01*
G01*
Y1370D02*
G03*
X471Y1370I-20J0D01*
G01*
M02*
