G04*
G04 #@! TF.GenerationSoftware,Altium Limited,Altium Designer,21.0.8 (223)*
G04*
G04 Layer_Color=8388736*
%FSLAX42Y42*%
%MOMM*%
G71*
G04*
G04 #@! TF.SameCoordinates,3342F10C-20B5-45E4-B721-DC8BC5ABD3D0*
G04*
G04*
G04 #@! TF.FilePolarity,Negative*
G04*
G01*
G75*
G04:AMPARAMS|DCode=23|XSize=1.47mm|YSize=1.09mm|CornerRadius=0mm|HoleSize=0mm|Usage=FLASHONLY|Rotation=180.000|XOffset=0mm|YOffset=0mm|HoleType=Round|Shape=Octagon|*
%AMOCTAGOND23*
4,1,8,-0.74,0.27,-0.74,-0.27,-0.46,-0.55,0.46,-0.55,0.74,-0.27,0.74,0.27,0.46,0.55,-0.46,0.55,-0.74,0.27,0.0*
%
%ADD23OCTAGOND23*%

%ADD24R,1.47X1.09*%
%ADD25R,0.60X0.70*%
%ADD26R,0.70X0.60*%
%ADD27R,0.90X0.55*%
%ADD28R,0.90X0.45*%
%ADD29O,0.90X0.45*%
%ADD30O,0.45X0.90*%
%ADD31O,2.20X1.20*%
%ADD32C,0.85*%
%ADD33R,1.90X1.90*%
%ADD34C,1.90*%
%ADD35C,1.80*%
%ADD36R,1.80X1.80*%
%ADD37R,1.90X1.90*%
%ADD38C,0.81*%
D23*
X3454Y584D02*
D03*
X1092Y1943D02*
D03*
X3467Y1791D02*
D03*
D24*
X3632Y584D02*
D03*
X1270Y1943D02*
D03*
X3645Y1791D02*
D03*
D25*
X1448Y1219D02*
D03*
X1538Y1219D02*
D03*
X3579Y876D02*
D03*
X3664D02*
D03*
X2069Y775D02*
D03*
X2159Y775D02*
D03*
X2072Y1054D02*
D03*
X1987D02*
D03*
X1537Y889D02*
D03*
X1447Y889D02*
D03*
X1537Y1054D02*
D03*
X1447Y1054D02*
D03*
X1128Y1765D02*
D03*
X1213D02*
D03*
X3585Y1562D02*
D03*
X3670D02*
D03*
D26*
X2464Y1083D02*
D03*
Y1168D02*
D03*
D27*
X562Y1055D02*
D03*
Y1105D02*
D03*
Y1155D02*
D03*
Y1205D02*
D03*
Y1255D02*
D03*
Y1305D02*
D03*
Y1355D02*
D03*
Y1405D02*
D03*
Y1455D02*
D03*
Y1505D02*
D03*
Y1555D02*
D03*
Y1605D02*
D03*
D28*
X1853Y1598D02*
D03*
D29*
Y1548D02*
D03*
Y1498D02*
D03*
Y1448D02*
D03*
Y1398D02*
D03*
Y1348D02*
D03*
X2248D02*
D03*
Y1398D02*
D03*
Y1448D02*
D03*
Y1498D02*
D03*
Y1548D02*
D03*
Y1598D02*
D03*
D30*
X1925Y1275D02*
D03*
X1975D02*
D03*
X2025D02*
D03*
X2075D02*
D03*
X2125D02*
D03*
X2175D02*
D03*
Y1670D02*
D03*
X2125D02*
D03*
X2075D02*
D03*
X2025D02*
D03*
X1975D02*
D03*
X1925D02*
D03*
D31*
X-29Y880D02*
D03*
X531D02*
D03*
X-29Y1780D02*
D03*
X531D02*
D03*
D32*
X381Y1090D02*
D03*
Y1170D02*
D03*
Y1250D02*
D03*
Y1570D02*
D03*
Y1490D02*
D03*
Y1410D02*
D03*
X451Y1290D02*
D03*
Y1210D02*
D03*
Y1025D02*
D03*
Y1635D02*
D03*
Y1450D02*
D03*
Y1370D02*
D03*
X381Y957D02*
D03*
Y1702D02*
D03*
D33*
X2388Y229D02*
D03*
X2489Y2451D02*
D03*
D34*
X2642Y229D02*
D03*
X2896D02*
D03*
X3150D02*
D03*
X3404D02*
D03*
X4001Y1626D02*
D03*
Y1372D02*
D03*
Y1118D02*
D03*
X1219Y2451D02*
D03*
X1473D02*
D03*
X1727D02*
D03*
X1981D02*
D03*
X2235D02*
D03*
X965D02*
D03*
D35*
X1016Y432D02*
D03*
Y178D02*
D03*
X1270D02*
D03*
Y432D02*
D03*
X1524Y178D02*
D03*
Y432D02*
D03*
X1778Y178D02*
D03*
D36*
Y432D02*
D03*
D37*
X4001Y864D02*
D03*
D38*
X1437Y835D02*
D03*
X1689Y775D02*
D03*
X775Y1575D02*
D03*
X686Y1384D02*
D03*
X851Y1194D02*
D03*
X1664Y1588D02*
D03*
X1448Y1372D02*
D03*
X2663Y923D02*
D03*
X3251Y1778D02*
D03*
X2090Y1987D02*
D03*
X2400Y1295D02*
D03*
X2527Y1029D02*
D03*
X3696Y1219D02*
D03*
X2146Y1016D02*
D03*
X1892Y1041D02*
D03*
X2426Y1460D02*
D03*
X1778Y1181D02*
D03*
X1880Y952D02*
D03*
X2017Y1926D02*
D03*
X3467Y1600D02*
D03*
X3734Y1041D02*
D03*
X2375Y660D02*
D03*
X1270Y902D02*
D03*
M02*
