G04*
G04 #@! TF.GenerationSoftware,Altium Limited,Altium Designer,21.0.8 (223)*
G04*
G04 Layer_Color=16711935*
%FSLAX42Y42*%
%MOMM*%
G71*
G04*
G04 #@! TF.SameCoordinates,3342F10C-20B5-45E4-B721-DC8BC5ABD3D0*
G04*
G04*
G04 #@! TF.FilePolarity,Positive*
G04*
G01*
G75*
%ADD14C,0.25*%
%ADD49C,0.00*%
D14*
X4064Y0D02*
G03*
X4191Y127I0J127D01*
G01*
Y2540D02*
G03*
X4064Y2667I-127J0D01*
G01*
X-203Y127D02*
G03*
X-76Y0I127J0D01*
G01*
Y2667D02*
G03*
X-203Y2540I0J-127D01*
G01*
Y127D02*
Y1842D01*
X-76Y2667D02*
X4064D01*
X4191Y127D02*
Y2540D01*
X-76Y0D02*
X4064D01*
X-203Y1842D02*
Y2540D01*
D49*
X414Y972D02*
G03*
X348Y972I-32J0D01*
G01*
Y942D02*
G03*
X414Y942I32J0D01*
G01*
X-69Y905D02*
G03*
X-69Y855I0J-25D01*
G01*
X11D02*
G03*
X11Y905I0J25D01*
G01*
X501D02*
G03*
X501Y855I0J-25D01*
G01*
X561D02*
G03*
X561Y905I0J25D01*
G01*
X11Y1755D02*
G03*
X11Y1805I0J25D01*
G01*
X-69D02*
G03*
X-69Y1755I0J-25D01*
G01*
X501Y1805D02*
G03*
X501Y1755I0J-25D01*
G01*
X561D02*
G03*
X561Y1805I0J25D01*
G01*
X348Y942D02*
Y972D01*
X414Y942D02*
Y972D01*
X-69Y855D02*
X11D01*
X-69Y905D02*
X11D01*
X501D02*
X561D01*
X501Y855D02*
X561D01*
X-69Y1755D02*
X11D01*
X-69Y1805D02*
X11D01*
X501Y1755D02*
X561D01*
X501Y1805D02*
X561D01*
M02*
